<svg width="10" height="8" viewBox="0 0 10 8" fill="none" xmlns="http://www.w3.org/2000/svg">
<path d="M2.57919 3.41667L9.08335 3.41667C9.24863 3.41667 9.38717 3.47257 9.49898 3.58438C9.61078 3.69618 9.66669 3.83473 9.66669 4C9.66669 4.16528 9.61078 4.30382 9.49898 4.41563C9.38717 4.52743 9.24863 4.58334 9.08335 4.58334L2.57919 4.58334L4.24169 6.24584C4.35835 6.3625 4.41426 6.49861 4.4094 6.65417C4.40453 6.80973 4.34863 6.94584 4.24169 7.0625C4.12502 7.17917 3.98648 7.23993 3.82606 7.2448C3.66565 7.24966 3.5271 7.19375 3.41044 7.07709L0.741687 4.40834C0.683353 4.35 0.642034 4.28681 0.617728 4.21875C0.593423 4.1507 0.58127 4.07778 0.58127 4C0.58127 3.92223 0.593423 3.84931 0.617728 3.78125C0.642034 3.7132 0.683353 3.65 0.741687 3.59167L3.41044 0.922921C3.5271 0.806254 3.66564 0.750351 3.82606 0.755212C3.98648 0.760073 4.12502 0.820838 4.24169 0.937504C4.34863 1.05417 4.40453 1.19028 4.40939 1.34584C4.41426 1.50139 4.35835 1.6375 4.24169 1.75417L2.57919 3.41667Z" fill="#004582"/>
</svg>
