<svg width="30" height="32" viewBox="0 0 30 32" fill="none" xmlns="http://www.w3.org/2000/svg">
<path d="M1.36285 18.915C1.71341 18.9193 2.00794 19.1628 2.10132 19.5014C4.76358 29.2695 17.1769 32.9856 24.6235 25.67C26.9007 23.4323 30.6563 16.8919 25.7757 15.5259C22.5689 14.6282 22.1753 18.2132 21.0245 19.9193C18.8378 23.1585 14.5577 24.0937 11.2834 21.8818C10.6542 21.4568 8.3281 19.4596 9.46742 18.6815C10.8266 17.7536 11.0162 19.3098 11.7849 19.9496C13.2029 21.1268 15.21 21.3084 16.9643 20.8458C20.9756 19.7882 19.3435 13.6052 24.9625 13.4899C30.31 13.3789 30.9149 18.9366 29.0112 22.9337C24.8878 31.5865 13.2546 34.0217 5.75061 28.1456C3.46047 26.3487 0.65885 22.7939 0.574083 19.6902C0.56259 19.2579 0.931828 18.9092 1.36285 18.915Z" fill="white"/>
<path d="M29.0112 12.8213C28.6606 12.817 28.3661 12.5734 28.2727 12.2348C25.6105 2.46678 13.1972 -1.25081 5.7506 6.06622C3.47339 8.30398 -0.282214 14.8443 4.59835 16.2103C7.80512 17.108 8.19878 13.523 9.3496 11.817C11.5363 8.57775 15.8163 7.64259 19.0906 9.85442C19.7199 10.2795 22.046 12.2766 20.9066 13.0547C19.5475 13.9827 19.3578 12.4265 18.5892 11.7867C17.1711 10.6095 15.164 10.4279 13.4098 10.8904C9.39845 11.9481 11.0306 18.1311 5.41153 18.2464C0.062601 18.3588 -0.542261 12.8011 1.36284 8.80398C5.48624 0.15121 17.118 -2.28396 24.6234 3.59215C26.9136 5.3861 29.7152 8.94087 29.8 12.0461C29.8115 12.4783 29.4422 12.8271 29.0112 12.8213Z" fill="white"/>
</svg>
