<svg width="31" height="32" viewBox="0 0 31 32" fill="none" xmlns="http://www.w3.org/2000/svg">
<path d="M15.5008 18.6282C14.6482 18.6282 13.9181 18.3255 13.3105 17.717C12.7029 17.1085 12.3991 16.3773 12.3991 15.5235C12.3991 14.6697 12.7029 13.9386 13.3105 13.3301C13.9181 12.7215 14.6467 12.4173 15.5008 12.4173C16.3549 12.4173 17.0834 12.7215 17.691 13.3301C18.2987 13.9386 18.6025 14.6682 18.6025 15.5235C18.6025 16.3789 18.2987 17.1085 17.691 17.717C17.0834 18.3255 16.3549 18.6282 15.5008 18.6282ZM15.5008 22.5091C17.4384 22.5091 19.0861 21.8307 20.4424 20.4709C21.7987 19.1126 22.4761 17.464 22.4761 15.5235C22.4761 13.5831 21.7987 11.9329 20.4424 10.5746C19.0861 9.21632 17.4399 8.53794 15.5008 8.53794C13.5616 8.53794 11.9154 9.21632 10.5591 10.5746C9.20281 11.9329 8.52543 13.5815 8.52543 15.5235C8.52543 17.4655 9.20281 19.1126 10.5591 20.4709C11.9154 21.8307 13.5616 22.5091 15.5008 22.5091ZM15.5008 24.8376C12.9168 24.8376 10.7219 23.9311 8.91295 22.1195C7.10556 20.3094 6.20031 18.1097 6.20031 15.522C6.20031 12.9342 7.10556 10.7361 8.91295 8.92448C10.7219 7.11443 12.9183 6.20786 15.5008 6.20786C18.0832 6.20786 20.2797 7.11443 22.0886 8.92448C23.896 10.7361 24.8012 12.9358 24.8012 15.522C24.8012 18.1082 23.896 20.3079 22.0886 22.1195C20.2797 23.9311 18.0832 24.8376 15.5008 24.8376ZM15.5008 28.7185C19.1791 28.7185 22.2948 27.4409 24.8477 24.8842C27.4007 22.3275 28.6764 19.2073 28.6764 15.5235C28.6764 11.8398 27.4007 8.71957 24.8477 6.16284C22.2948 3.60612 19.1791 2.32853 15.5008 2.32853C11.8224 2.32853 8.70679 3.60612 6.15381 6.16284C3.60083 8.71957 2.32512 11.8382 2.32512 15.5235C2.32512 19.2088 3.60083 22.3275 6.15381 24.8842C8.70679 27.4409 11.8224 28.7185 15.5008 28.7185ZM15.5008 31.0471C13.3555 31.0471 11.3419 30.6403 9.45547 29.8254C7.57058 29.0104 5.92905 27.9035 4.53398 26.5064C3.13891 25.1093 2.03525 23.4669 1.22146 21.5777C0.40612 19.6885 0 17.6704 0 15.5235C0 13.3766 0.40612 11.3586 1.21991 9.46935C2.0337 7.58169 3.13891 5.93775 4.53243 4.54063C5.9275 3.14351 7.56903 2.03824 9.45392 1.22325C11.3419 0.406716 13.3555 0 15.5008 0C17.6461 0 19.6596 0.406716 21.5461 1.2217C23.431 2.03669 25.0725 3.14351 26.4676 4.53908C27.8626 5.9362 28.9663 7.58014 29.7801 9.4678C30.5939 11.357 31 13.3751 31 15.522C31 17.6689 30.5939 19.6869 29.7801 21.5762C28.9663 23.4654 27.8611 25.1078 26.4676 26.5049C25.0725 27.902 23.431 29.0088 21.5461 29.8238C19.6596 30.6388 17.6445 31.0455 15.5008 31.0455" fill="white"/>
</svg>
