<svg width="31" height="31" viewBox="0 0 31 31" fill="none" xmlns="http://www.w3.org/2000/svg">
<path d="M15.4773 28.675C19.15 28.675 22.261 27.3994 24.8101 24.8465C27.3576 22.2952 28.6314 19.1797 28.6314 15.5016C28.6314 11.8234 27.3576 8.7079 24.8101 6.1566C22.261 3.60375 19.15 2.32655 15.4773 2.32655C11.8045 2.32655 8.69359 3.60375 6.14448 6.1566C3.59692 8.7079 2.32159 11.8234 2.32159 15.5016C2.32159 19.1797 3.59692 22.2952 6.14448 24.8465C8.69359 27.3994 11.8045 28.675 15.4773 28.675ZM15.4773 31C13.3352 31 11.3247 30.5924 9.44114 29.7786C7.55756 28.9664 5.92006 27.8612 4.5271 26.4662C3.13415 25.0713 2.03062 23.4314 1.21961 21.545C0.407053 19.6586 0 17.6452 0 15.5C0 13.3548 0.407053 11.3414 1.21961 9.455C2.03062 7.56865 3.13415 5.92875 4.5271 4.53375C5.92006 3.13875 7.55756 2.0336 9.44114 1.2214C11.3232 0.40765 13.3352 0 15.4773 0C17.6193 0 19.6298 0.40765 21.5134 1.2214C23.397 2.0336 25.0345 3.13875 26.4275 4.53375C27.8204 5.92875 28.9239 7.56865 29.735 9.455C30.5475 11.3414 30.9546 13.3548 30.9546 15.5C30.9546 17.6452 30.5475 19.6586 29.735 21.545C28.9239 23.4314 27.8204 25.0713 26.4275 26.4662C25.0345 27.8612 23.397 28.9664 21.5134 29.7786C19.6298 30.5924 17.6193 31 15.4773 31Z" fill="white"/>
<path d="M21.0708 22.7013C20.5507 22.7013 20.0849 22.5509 19.6732 22.2518C19.2599 21.9511 18.9736 21.5682 18.8142 21.1017H14.6787C13.7995 21.1017 13.0473 20.7886 12.4221 20.1608C11.7968 19.5346 11.4826 18.7798 11.4826 17.9009C11.4826 17.0221 11.7952 16.2672 12.4221 15.641C13.0473 15.0148 13.8011 14.7002 14.6787 14.7002H16.2775C16.717 14.7002 17.0931 14.5436 17.4057 14.2305C17.7184 13.9174 17.8747 13.5408 17.8747 13.1006C17.8747 12.6604 17.7184 12.2837 17.4057 11.9706C17.0931 11.6575 16.717 11.501 16.2775 11.501H12.1419C11.9686 11.9675 11.6792 12.3519 11.2737 12.6511C10.8681 12.9518 10.4054 13.1006 9.88534 13.1006C9.21981 13.1006 8.65335 12.8665 8.18748 12.4C7.72161 11.9334 7.48791 11.3661 7.48791 10.6996C7.48791 10.0331 7.72161 9.46585 8.18748 8.9993C8.65335 8.53275 9.21981 8.2987 9.88534 8.2987C10.4054 8.2987 10.8681 8.44905 11.2737 8.7482C11.6792 9.0489 11.9701 9.43175 12.1419 9.8983H16.2775C17.1566 9.8983 17.9088 10.2114 18.534 10.8391C19.1593 11.4669 19.4735 12.2202 19.4735 13.099C19.4735 13.9779 19.1609 14.7327 18.534 15.3589C17.9088 15.9851 17.155 16.2998 16.2775 16.2998H14.6787C14.2391 16.2998 13.863 16.4563 13.5504 16.7694C13.2377 17.0825 13.0814 17.4592 13.0814 17.8994C13.0814 18.3396 13.2377 18.7162 13.5504 19.0293C13.863 19.3424 14.2391 19.499 14.6787 19.499H18.8142C18.9875 19.0324 19.277 18.648 19.6825 18.3489C20.088 18.0482 20.5507 17.8994 21.0708 17.8994C21.7363 17.8994 22.3028 18.1334 22.7686 18.6C23.2345 19.0665 23.4682 19.6338 23.4682 20.3003C23.4682 20.9668 23.2345 21.5341 22.7686 22.0007C22.3028 22.4672 21.7363 22.7013 21.0708 22.7013ZM9.88379 11.4994C10.1098 11.4994 10.3001 11.4235 10.4534 11.27C10.6066 11.1166 10.6824 10.9259 10.6824 10.6996C10.6824 10.4733 10.6066 10.2827 10.4534 10.1292C10.3001 9.9758 10.1098 9.89985 9.88379 9.89985C9.65783 9.89985 9.46745 9.9758 9.31423 10.1292C9.161 10.2827 9.08517 10.4733 9.08517 10.6996C9.08517 10.9259 9.161 11.1166 9.31423 11.27C9.46745 11.4235 9.65783 11.4994 9.88379 11.4994Z" fill="white"/>
</svg>
