<svg width="50" height="52" viewBox="0 0 50 52" fill="none" xmlns="http://www.w3.org/2000/svg">
<path d="M5.00407 31.2042C3.62761 31.2042 2.45458 30.6965 1.4714 29.674C0.488211 28.6515 0 27.4315 0 26C0 24.5685 0.488211 23.3485 1.4714 22.326C2.45458 21.3035 3.62761 20.7958 5.00407 20.7958C6.38053 20.7958 7.55357 21.3035 8.53675 22.326C9.51993 23.3485 10.0081 24.5685 10.0081 26C10.0081 27.4315 9.51993 28.6515 8.53675 29.674C7.56035 30.6895 6.38053 31.2042 5.00407 31.2042ZM7.37728 40.562L14.7478 32.8967C15.2088 32.4171 15.792 32.1844 16.4972 32.1844C17.2023 32.1844 17.7855 32.4242 18.2465 32.8967C18.7076 33.3762 18.9314 33.9826 18.9314 34.716C18.9314 35.4494 18.7008 36.0559 18.2465 36.5354L10.8761 44.2007C10.415 44.6802 9.83184 44.9129 9.12666 44.9129C8.42148 44.9129 7.83836 44.6732 7.37728 44.2007C6.9162 43.7282 6.69243 43.1147 6.69243 42.3813C6.69243 41.648 6.92298 41.0415 7.37728 40.562ZM14.8766 18.9905L7.50611 11.3252C7.04503 10.8457 6.82126 10.2392 6.82126 9.50583C6.82126 8.77244 7.05181 8.16599 7.50611 7.68647C7.96719 7.20694 8.55031 6.97423 9.25549 6.97423C9.96067 6.97423 10.5438 7.214 11.0049 7.68647L18.3754 15.3518C18.8365 15.8313 19.0602 16.4378 19.0602 17.1711C19.0602 17.9045 18.8297 18.511 18.3754 18.9905C17.9143 19.47 17.3312 19.7027 16.626 19.7027C15.9208 19.7027 15.3377 19.463 14.8766 18.9905ZM25 52C23.6235 52 22.4505 51.4923 21.4673 50.4698C20.4909 49.4543 19.9959 48.2273 19.9959 46.7958C19.9959 45.3643 20.4841 44.1443 21.4673 43.1218C22.4437 42.1063 23.6235 41.5915 25 41.5915C26.3765 41.5915 27.5495 42.0993 28.5327 43.1218C29.5159 44.1443 30.0041 45.3643 30.0041 46.7958C30.0041 48.2273 29.5159 49.4473 28.5327 50.4698C27.5495 51.4923 26.3765 52 25 52ZM25 10.4085C23.6235 10.4085 22.4505 9.90073 21.4673 8.87822C20.4909 7.86276 19.9959 6.63575 19.9959 5.20423C19.9959 3.77272 20.4841 2.55275 21.4673 1.53024C22.4437 0.514782 23.6235 0 25 0C26.3765 0 27.5495 0.50773 28.5327 1.53024C29.5091 2.5457 30.0041 3.77272 30.0041 5.20423C30.0041 6.63575 29.5159 7.85571 28.5327 8.87822C27.5495 9.90073 26.3765 10.4085 25 10.4085ZM31.6246 15.3518L39.124 7.68647C39.585 7.20694 40.1546 6.96013 40.8395 6.93897C41.5243 6.91782 42.121 7.16463 42.6227 7.68647C43.0838 8.16599 43.3076 8.77244 43.3076 9.50583C43.3076 10.2392 43.077 10.8457 42.6227 11.3252L35.1844 19.061C34.6827 19.5829 34.0928 19.8438 33.4011 19.8438C32.7095 19.8438 32.1196 19.5829 31.6179 19.061C31.1568 18.5392 30.9195 17.9257 30.8991 17.2064C30.8788 16.4942 31.1161 15.8736 31.6179 15.3518H31.6246ZM39.124 44.2007L31.7535 36.5354C31.2924 36.0559 31.0686 35.4494 31.0686 34.716C31.0686 33.9826 31.2992 33.3762 31.7535 32.8967C32.2146 32.4171 32.7977 32.1844 33.5029 32.1844C34.208 32.1844 34.7912 32.4242 35.2522 32.8967L42.6227 40.562C43.0838 41.0415 43.3076 41.648 43.3076 42.3813C43.3076 43.1147 43.077 43.7212 42.6227 44.2007C42.1617 44.6802 41.5785 44.9129 40.8733 44.9129C40.1682 44.9129 39.585 44.6732 39.124 44.2007ZM44.9959 31.2042C43.6195 31.2042 42.4464 30.6965 41.4633 29.674C40.4868 28.6585 39.9919 27.4315 39.9919 26C39.9919 24.5685 40.4801 23.3485 41.4633 22.326C42.4397 21.3106 43.6195 20.7958 44.9959 20.7958C46.3724 20.7958 47.5454 21.3035 48.5286 22.326C49.5118 23.3485 50 24.5685 50 26C50 27.4315 49.5118 28.6515 48.5286 29.674C47.5454 30.6965 46.3724 31.2042 44.9959 31.2042Z" fill="white"/>
</svg>
