<svg width="44" height="51" viewBox="0 0 44 51" fill="none" xmlns="http://www.w3.org/2000/svg">
<path d="M0 39.3657V21.9417C0 20.6369 0.484 19.5403 1.441 18.6521C2.398 17.7639 3.531 17.3472 4.829 17.435C8.052 17.9174 11.11 18.8714 14.025 20.264C16.94 21.6676 19.602 23.4879 22 25.7138C24.409 23.4769 27.06 21.6566 29.975 20.264C32.89 18.8605 35.959 17.9174 39.171 17.435C40.48 17.3582 41.602 17.7639 42.559 18.6521C43.516 19.5403 44 20.6478 44 21.9417V39.3657C44 40.6706 43.571 41.7671 42.713 42.6882C41.855 43.6093 40.777 44.1028 39.479 44.1795C36.872 44.5853 34.342 45.2541 31.9 46.1862C29.458 47.1183 27.17 48.3573 25.058 49.9035C24.607 50.2653 24.134 50.5395 23.617 50.7259C23.111 50.9123 22.572 51 22 51C21.428 51 20.889 50.9123 20.383 50.7259C19.877 50.5395 19.393 50.2653 18.942 49.9035C16.819 48.3573 14.542 47.1183 12.1 46.1862C9.658 45.2541 7.128 44.5853 4.521 44.1795C3.212 44.1028 2.134 43.5984 1.287 42.6882C0.44 41.7781 0 40.6706 0 39.3657ZM22 46.0656C24.563 44.1576 27.302 42.6334 30.195 41.493C33.088 40.3526 36.058 39.607 39.116 39.2341V22.4132C36.146 22.9396 33.22 24.0032 30.349 25.6151C27.478 27.2161 24.695 29.3653 22.011 32.0409C19.327 29.3653 16.544 27.2161 13.673 25.6151C10.802 24.0142 7.876 22.9396 4.906 22.4132V39.2341C7.964 39.596 10.934 40.3526 13.827 41.493C16.72 42.6334 19.448 44.1576 22.022 46.0656H22ZM22 19.4965C19.316 19.4965 17.006 18.5425 15.092 16.6345C13.178 14.7265 12.221 12.4347 12.221 9.74823C12.221 7.06171 13.178 4.76994 15.092 2.86197C17.006 0.953988 19.305 0 22 0C24.695 0 26.994 0.953988 28.908 2.86197C30.822 4.76994 31.779 7.06171 31.779 9.74823C31.779 12.4347 30.822 14.7265 28.908 16.6345C26.994 18.5425 24.695 19.4965 22 19.4965ZM22 14.6278C23.342 14.6278 24.497 14.1453 25.454 13.1914C26.411 12.2374 26.895 11.086 26.895 9.74823C26.895 8.41045 26.411 7.25908 25.454 6.3051C24.497 5.35111 23.342 4.86863 22 4.86863C20.658 4.86863 19.503 5.35111 18.546 6.3051C17.589 7.25908 17.105 8.41045 17.105 9.74823C17.105 11.086 17.589 12.2374 18.546 13.1914C19.503 14.1453 20.658 14.6278 22 14.6278Z" fill="white"/>
</svg>
