<svg width="39" height="52" viewBox="0 0 39 52" fill="none" xmlns="http://www.w3.org/2000/svg">
<path d="M19.5 52C18.0678 52 16.8473 51.4921 15.8243 50.4693C14.8084 49.4536 14.2934 48.2263 14.2934 46.7944H24.6925C24.6925 48.2263 24.1845 49.4466 23.1615 50.4693C22.1456 51.4851 20.9181 52 19.4859 52H19.5ZM11.7042 44.1986C10.9705 44.1986 10.3497 43.9517 9.84877 43.4509C9.34786 42.9501 9.10094 42.3364 9.10094 41.5958C9.10094 40.8551 9.34786 40.2415 9.84877 39.7406C10.3497 39.2398 10.9635 38.9929 11.7042 38.9929H27.3099C28.0436 38.9929 28.6644 39.2398 29.1653 39.7406C29.6662 40.2415 29.9132 40.8551 29.9132 41.5958C29.9132 42.3364 29.6662 42.9501 29.1653 43.4509C28.6644 43.9517 28.0506 44.1986 27.3099 44.1986H11.7042ZM9.75 36.3972C6.75868 34.6196 4.38821 32.2355 2.63151 29.2447C0.874821 26.2539 0 23.0022 0 19.4965C0 14.0792 1.8978 9.47314 5.68633 5.6853C9.48191 1.8904 14.0818 0 19.5 0C24.9182 0 29.5251 1.89745 33.3137 5.6853C37.1093 9.4802 39 14.0792 39 19.4965C39 23.0092 38.1252 26.2539 36.3685 29.2447C34.6118 32.2355 32.2413 34.6196 29.25 36.3972H9.74295H9.75ZM11.3092 31.1986H27.6908C29.638 29.809 31.1478 28.102 32.206 26.0635C33.2713 24.025 33.8005 21.8383 33.8005 19.4965C33.8005 15.5111 32.4106 12.1324 29.638 9.35323C26.8654 6.58112 23.4861 5.19154 19.4929 5.19154C15.4998 5.19154 12.1275 6.58112 9.34787 9.35323C6.57526 12.1253 5.18542 15.5041 5.18542 19.4965C5.18542 21.8383 5.71455 24.025 6.77985 26.0635C7.84516 28.102 9.34787 29.809 11.295 31.1986H11.3092Z" fill="white"/>
</svg>
