<svg width="48" height="48" viewBox="0 0 48 48" fill="none" xmlns="http://www.w3.org/2000/svg">
<path d="M22.0587 39.2516C26.7975 39.2516 30.8383 37.5884 34.188 34.2553C37.5377 30.9222 39.2125 26.8707 39.2125 22.0873C39.2125 17.3039 37.5377 13.299 34.188 9.94595C30.8383 6.59293 26.7975 4.91642 22.0587 4.91642C17.32 4.91642 13.2259 6.59293 9.90283 9.94595C6.57309 13.299 4.91154 17.3439 4.91154 22.0873C4.91154 26.8308 6.57309 30.9289 9.90283 34.2553C13.2326 37.5884 17.2801 39.2516 22.0587 39.2516ZM22.0587 31.8936C19.1211 31.8936 16.3962 31.1085 13.8839 29.5318C11.3716 27.9551 9.40437 25.8661 7.97543 23.2449C7.7694 22.879 7.66971 22.4865 7.66971 22.0807C7.66971 21.6748 7.7694 21.2823 7.97543 20.9164C9.40437 18.3019 11.3716 16.2062 13.8839 14.6295C16.3962 13.0528 19.1211 12.2678 22.0587 12.2678C24.9963 12.2678 27.7146 13.0661 30.207 14.6561C32.6993 16.2528 34.6599 18.3351 36.0888 20.9098C36.2949 21.2757 36.3946 21.6682 36.3946 22.074C36.3946 22.4798 36.2949 22.8723 36.0888 23.2383C34.6599 25.8528 32.6993 27.9484 30.207 29.5252C27.7146 31.1019 25.003 31.8869 22.0587 31.8869V31.8936ZM22.0587 28.2146C24.3051 28.2146 26.3655 27.6757 28.2463 26.5913C30.1272 25.5069 31.596 24.0033 32.6594 22.0873C31.596 20.2046 30.1272 18.7143 28.2463 17.61C26.3655 16.5056 24.3051 15.9534 22.0587 15.9534C19.8123 15.9534 17.6922 16.5056 15.8113 17.61C13.9304 18.7143 12.4616 20.2046 11.3982 22.0873C12.4616 24.01 13.9304 25.5135 15.8113 26.5913C17.6922 27.6757 19.7724 28.2146 22.0587 28.2146ZM22.0587 25.7663C23.0822 25.7663 23.9462 25.4204 24.664 24.7218C25.3818 24.0233 25.7341 23.1451 25.7341 22.0873C25.7341 21.0295 25.3752 20.1979 24.664 19.4794C23.9529 18.7609 23.0822 18.4083 22.0587 18.4083C21.0352 18.4083 20.118 18.7676 19.4268 19.4794C18.7356 20.1913 18.3834 21.0628 18.3834 22.0873C18.3834 23.1118 18.729 24.0299 19.4268 24.7218C20.118 25.4137 21.002 25.7663 22.0587 25.7663ZM22.0587 44.1547C18.9948 44.1547 16.1303 43.5692 13.4519 42.405C10.7801 41.2407 8.44731 39.664 6.46675 37.6815C4.48618 35.699 2.91768 33.3705 1.74795 30.6894C0.584865 28.015 0 25.141 0 22.074C0 19.0071 0.584865 16.1996 1.74795 13.5185C2.91103 10.8441 4.48618 8.50229 6.46675 6.49979C8.44731 4.4973 10.7735 2.91393 13.4519 1.74969C16.1237 0.585447 18.9948 0 22.0587 0C25.1226 0 27.9273 0.585447 30.6057 1.74969C33.2775 2.91393 35.617 4.4973 37.6175 6.49979C39.618 8.50229 41.1998 10.8441 42.3628 13.5185C43.5259 16.1929 44.1108 19.047 44.1108 22.074C44.1108 24.6886 43.6788 27.1634 42.8214 29.4919C41.9641 31.8204 40.781 33.9493 39.2724 35.8653L47.2943 43.8952C47.7861 44.3875 48.0188 44.9597 47.9988 45.6116C47.9789 46.2636 47.7263 46.8358 47.2345 47.3281C46.7427 47.7805 46.1711 48 45.5198 48C44.8685 48 44.2969 47.7738 43.8051 47.3281L35.7831 39.358C33.8624 40.8682 31.7422 42.0457 29.4161 42.884C27.0899 43.7222 24.6374 44.1414 22.0654 44.1414L22.0587 44.1547Z" fill="white"/>
</svg>
