<svg width="5" height="9" viewBox="0 0 5 9" fill="none" xmlns="http://www.w3.org/2000/svg">
<path d="M4.49965 4.88891L0.850965 8.49007C0.800638 8.53974 0.746227 8.57688 0.687731 8.6015C0.629235 8.62612 0.566655 8.63821 0.499989 8.63777C0.366659 8.63689 0.250295 8.5903 0.150898 8.49798C0.0515014 8.40566 0.00229465 8.2845 0.00327807 8.1345L0.0531047 0.534665C0.0540881 0.384668 0.104879 0.264165 0.205478 0.173156C0.306077 0.0821473 0.423042 0.0370796 0.556372 0.0379537C0.589705 0.0381722 0.706041 0.0889362 0.905381 0.190246L4.50654 3.83893C4.58932 3.92281 4.64711 4.00653 4.67989 4.09008C4.71268 4.17363 4.72875 4.2654 4.72809 4.3654C4.72743 4.46539 4.71017 4.55695 4.67629 4.64006C4.64241 4.72318 4.58353 4.80613 4.49965 4.88891Z" fill="#004582"/>
</svg>
