<?xml version="1.0" encoding="UTF-8"?>
<svg id="Capa_1" xmlns="http://www.w3.org/2000/svg" version="1.1" viewBox="0 0 16 16">
  <!-- Generator: Adobe Illustrator 29.2.1, SVG Export Plug-In . SVG Version: 2.1.0 Build 116)  -->
  <defs>
    <style>
      .st0 {
        fill: #fff;
      }
    </style>
  </defs>
  <path class="st0" d="M8,11.6c-.1,0-.3,0-.4,0-.1,0-.2-.1-.3-.2l-3.6-3.6c-.2-.2-.3-.4-.3-.7,0-.3.1-.5.3-.7.2-.2.4-.3.7-.3.3,0,.5,0,.7.3l1.9,1.9V1c0-.3,0-.5.3-.7C7.5,0,7.7,0,8,0s.5,0,.7.3c.2.2.3.4.3.7v7.1l1.9-1.9c.2-.2.4-.3.7-.3.3,0,.5.1.7.3.2.2.3.4.3.7,0,.3,0,.5-.3.7l-3.6,3.6c0,0-.2.2-.3.2-.1,0-.2,0-.4,0ZM2,16c-.5,0-1-.2-1.4-.6-.4-.4-.6-.9-.6-1.4v-2c0-.3,0-.5.3-.7.2-.2.4-.3.7-.3s.5,0,.7.3c.2.2.3.4.3.7v2h12v-2c0-.3,0-.5.3-.7s.4-.3.7-.3.5,0,.7.3.3.4.3.7v2c0,.6-.2,1-.6,1.4-.4.4-.9.6-1.4.6H2Z"/>
</svg>