<?xml version="1.0" encoding="UTF-8"?>
<svg id="Capa_1" xmlns="http://www.w3.org/2000/svg" version="1.1" viewBox="0 0 20 16">
  <!-- Generator: Adobe Illustrator 29.2.1, SVG Export Plug-In . SVG Version: 2.1.0 Build 116)  -->
  <defs>
    <style>
      .st0 {
        fill: #004582;
      }
    </style>
  </defs>
  <path class="st0" d="M2,16c-.5,0-1-.2-1.4-.6-.4-.4-.6-.9-.6-1.4V2C0,1.5.2,1,.6.6,1,.2,1.5,0,2,0h16C18.5,0,19,.2,19.4.6c.4.4.6.9.6,1.4v12c0,.6-.2,1-.6,1.4-.4.4-.9.6-1.4.6H2ZM18,4l-7.5,4.7c0,0-.2,0-.3.1,0,0-.2,0-.3,0s-.2,0-.3,0c0,0-.2,0-.3-.1L2,4v10h16V4ZM10,7l8-5H2l8,5ZM2,4.3v-1.5h0s0,0,0,0v1.5Z"/>
</svg>