<?xml version="1.0" encoding="UTF-8"?>
<svg id="Capa_1" xmlns="http://www.w3.org/2000/svg" version="1.1" viewBox="0 0 16 16">
  <!-- Generator: Adobe Illustrator 29.4.0, SVG Export Plug-In . SVG Version: 2.1.0 Build 152)  -->
  <defs>
    <style>
      .st0 {
        fill: #fff;
      }
    </style>
  </defs>
  <path class="st0" d="M3.2,13.3c-.3,0-.6-.1-.9-.4-.2-.2-.4-.5-.4-.9V3.5c0-.3.1-.6.4-.9.2-.2.5-.4.9-.4h8.6c.3,0,.6.1.9.4.2.2.4.5.4.9v4.3c0,.2,0,.3-.2.4s-.3.2-.4.2-.3,0-.4-.2-.2-.3-.2-.4V3.5H3.2v8.6h3.7c.2,0,.3,0,.4.2.1.1.2.3.2.4s0,.3-.2.4c-.1.1-.3.2-.4.2h-3.7ZM10.8,12.2l2.2-2.2c.1-.1.3-.2.4-.2s.3,0,.4.2c.1.1.2.3.2.4s0,.3-.2.4l-2.6,2.6c-.1.1-.3.2-.4.2s-.3,0-.4-.2l-1.3-1.3c-.1-.1-.2-.3-.2-.4s0-.3.2-.4c.1-.1.3-.2.4-.2s.3,0,.4.2l.9.9ZM5.1,8.4c.2,0,.3,0,.4-.2.1-.1.2-.3.2-.4s0-.3-.2-.4c-.1-.1-.3-.2-.4-.2s-.3,0-.4.2c-.1.1-.2.3-.2.4s0,.3.2.4c.1.1.3.2.4.2ZM5.1,6c.2,0,.3,0,.4-.2.1-.1.2-.3.2-.4s0-.3-.2-.4c-.1-.1-.3-.2-.4-.2s-.3,0-.4.2c-.1.1-.2.3-.2.4s0,.3.2.4c.1.1.3.2.4.2ZM10,8.4c.2,0,.3,0,.4-.2s.2-.3.2-.4,0-.3-.2-.4-.3-.2-.4-.2h-2.4c-.2,0-.3,0-.4.2s-.2.3-.2.4,0,.3.2.4.3.2.4.2h2.4ZM10,6c.2,0,.3,0,.4-.2.1-.1.2-.3.2-.4s0-.3-.2-.4c-.1-.1-.3-.2-.4-.2h-2.4c-.2,0-.3,0-.4.2-.1.1-.2.3-.2.4s0,.3.2.4c.1.1.3.2.4.2h2.4Z"/>
</svg>