<?xml version="1.0" encoding="UTF-8"?>
<svg id="Capa_1" xmlns="http://www.w3.org/2000/svg" version="1.1" viewBox="0 0 16 16">
  <!-- Generator: Adobe Illustrator 29.4.0, SVG Export Plug-In . SVG Version: 2.1.0 Build 152)  -->
  <defs>
    <style>
      .st0 {
        fill: #fff;
      }
    </style>
  </defs>
  <path class="st0" d="M1.7,15.1c-.4,0-.8-.1-1.2-.5C.3,14.3,0,13.9,0,13.4V2.2C0,1.8.1,1.4.5,1c.3-.3.7-.5,1.2-.5h11.4c.4,0,.8.1,1.2.5.3.3.5.7.5,1.2v5.7c0,.3,0,.4-.3.5s-.4.3-.5.3-.4,0-.5-.3-.3-.4-.3-.5V2.2H1.7v11.4h4.9c.3,0,.4,0,.5.3.1.1.3.4.3.5s0,.4-.3.5c-.1.1-.4.3-.5.3,0,0-4.9,0-4.9,0ZM11.8,13.7l2.9-2.9c.1-.1.4-.3.5-.3s.4,0,.5.3c.1.1.3.4.3.5s0,.4-.3.5l-3.4,3.4c-.1.1-.4.3-.5.3s-.4,0-.5-.3l-1.7-1.7c-.1-.1-.3-.4-.3-.5s0-.4.3-.5c.1-.1.4-.3.5-.3s.4,0,.5.3c0,0,1.2,1.2,1.2,1.2ZM4.2,8.7c.3,0,.4,0,.5-.3.1-.1.3-.4.3-.5s0-.4-.3-.5c-.1-.1-.4-.3-.5-.3s-.4,0-.5.3c-.1.1-.3.4-.3.5s0,.4.3.5c.1.1.4.3.5.3ZM4.2,5.5c.3,0,.4,0,.5-.3.1-.1.3-.4.3-.5s0-.4-.3-.5c-.1-.1-.4-.3-.5-.3s-.4,0-.5.3c-.1.1-.3.4-.3.5s0,.4.3.5c.1.1.4.3.5.3ZM10.7,8.7c.3,0,.4,0,.5-.3s.3-.4.3-.5,0-.4-.3-.5-.4-.3-.5-.3h-3.2c-.3,0-.4,0-.5.3s-.3.4-.3.5,0,.4.3.5.4.3.5.3h3.2ZM10.7,5.5c.3,0,.4,0,.5-.3.1-.1.3-.4.3-.5s0-.4-.3-.5c-.1-.1-.4-.3-.5-.3h-3.2c-.3,0-.4,0-.5.3-.1.1-.3.4-.3.5s0,.4.3.5c.1.1.4.3.5.3h3.2Z"/>
</svg>