<?xml version="1.0" encoding="UTF-8"?>
<svg id="Capa_1" xmlns="http://www.w3.org/2000/svg" version="1.1" viewBox="0 0 164.41 164.41">
  <!-- Generator: Adobe Illustrator 29.1.0, SVG Export Plug-In . SVG Version: 2.1.0 Build 142)  -->
  <defs>
    <style>
      .st0 {
        fill: #0b4680;
      }

      .st1 {
        fill: #e3464c;
      }
    </style>
  </defs>
  <path class="st0" d="M10.29,98.01h0c1.82.03,3.36,1.29,3.84,3.04,13.85,50.67,78.43,69.95,117.17,32,11.85-11.61,31.38-45.53,6-52.62-16.68-4.66-18.73,13.94-24.72,22.79-11.38,16.8-33.65,21.65-50.68,10.18-3.27-2.2-15.38-12.56-9.45-16.6,7.07-4.81,8.06,3.26,12.06,6.58,7.37,6.11,17.82,7.05,26.95,4.65,20.87-5.49,12.38-37.56,41.61-38.16,27.82-.57,30.97,28.26,21.06,48.99-21.45,44.89-81.97,57.51-121.01,27.03-11.92-9.3-26.49-27.75-26.93-43.85-.06-2.25,1.86-4.05,4.1-4.02Z"/>
  <path class="st1" d="M154.12,66.4h0c-1.82-.03-3.36-1.29-3.84-3.04C136.43,12.69,71.85-6.59,33.12,31.36c-11.85,11.61-31.38,45.53-6,52.62,16.68,4.66,18.73-13.94,24.72-22.79,11.38-16.8,33.65-21.65,50.68-10.18,3.27,2.2,15.38,12.56,9.45,16.6-7.07,4.81-8.06-3.26-12.06-6.58-7.37-6.11-17.82-7.05-26.95-4.65-20.87,5.49-12.38,37.56-41.61,38.16C3.52,95.12.38,66.29,10.29,45.56,31.74.68,92.25-11.95,131.3,18.53c11.92,9.3,26.49,27.75,26.93,43.85.06,2.25-1.86,4.05-4.1,4.02Z"/>
</svg>