<svg width="113" height="18" viewBox="0 0 113 18" fill="none" xmlns="http://www.w3.org/2000/svg">
<path d="M5.10846 8.87868H1.97229V10.2545H4.90779V11.7929H1.97229V13.372H5.22886V14.9626H0V7.28223H5.10846V8.87868Z" fill="white"/>
<path d="M12.6709 9.34316V12.9134C12.6709 13.9526 11.8452 14.9685 9.47162 14.9685H6.15771V7.28809H9.47162C11.8452 7.28809 12.6709 8.30401 12.6709 9.34316ZM10.6986 12.5593V9.69148C10.6986 9.09353 10.1768 8.89035 9.47162 8.89035H8.13574V13.3604H9.47162C10.1768 13.3604 10.6986 13.1572 10.6986 12.5593Z" fill="white"/>
<path d="M15.6752 7.28809V12.6754C15.6752 13.2733 16.2084 13.4765 16.9595 13.4765C17.7105 13.4765 18.2437 13.2733 18.2437 12.6754V7.28809H20.216V13.0237C20.216 14.0396 19.356 15.0788 16.9595 15.0788C14.5629 15.0788 13.7029 14.0396 13.7029 13.0237V7.28809H15.6752Z" fill="white"/>
<path d="M27.5203 12.2225V13.0236C27.5203 14.0395 26.7635 15.0787 24.3841 15.0787C22.0047 15.0787 21.2479 14.0395 21.2479 13.0236V9.22695C21.2479 8.21102 22.0047 7.17188 24.3841 7.17188C26.7635 7.17188 27.5203 8.21102 27.5203 9.22695V9.89456H25.5881V9.55785C25.5881 8.98313 25.118 8.77994 24.407 8.77994C23.6961 8.77994 23.2259 8.98313 23.2259 9.58108V12.6753C23.2259 13.2732 23.6846 13.4764 24.407 13.4764C25.1294 13.4764 25.5881 13.2732 25.5881 12.6985V12.2225H27.5203Z" fill="white"/>
<path d="M32.3421 13.5868H29.9341L29.5213 14.9626H27.6006L30.0889 7.28223H32.3077L34.7616 14.9626H32.7434L32.3421 13.5868ZM31.8949 12.0774L31.1381 9.52307L30.3813 12.0774H31.9006H31.8949Z" fill="white"/>
<path d="M41.2346 12.2225V13.0236C41.2346 14.0395 40.4778 15.0787 38.0984 15.0787C35.7191 15.0787 34.9623 14.0395 34.9623 13.0236V9.22695C34.9623 8.21102 35.7191 7.17188 38.0984 7.17188C40.4778 7.17188 41.2346 8.21102 41.2346 9.22695V9.89456H39.3025V9.55785C39.3025 8.98313 38.8323 8.77994 38.1214 8.77994C37.4104 8.77994 36.9403 8.98313 36.9403 9.58108V12.6753C36.9403 13.2732 37.399 13.4764 38.1214 13.4764C38.8438 13.4764 39.3025 13.2732 39.3025 12.6985V12.2225H41.2346Z" fill="white"/>
<path d="M44.1185 7.28809V14.9685H42.1462V7.28809H44.1185Z" fill="white"/>
<path d="M45.2021 9.22706C45.2021 8.21113 46.0507 7.17198 48.4473 7.17198C50.8438 7.17198 51.7153 8.21113 51.7153 9.22706V13.0237C51.7153 14.0397 50.8553 15.0788 48.4473 15.0788C46.0392 15.0788 45.2021 14.0397 45.2021 13.0237V9.22706ZM49.743 9.58118C49.743 8.98323 49.1983 8.78005 48.4473 8.78005C47.6962 8.78005 47.1744 8.98323 47.1744 9.58118V12.6754C47.1744 13.2734 47.7076 13.4765 48.4473 13.4765C49.1869 13.4765 49.743 13.2734 49.743 12.6754V9.58118ZM50.4711 5.04724L49.1123 6.754H47.4726L48.3211 5.04724H50.4769H50.4711Z" fill="white"/>
<path d="M57.5633 14.9685L54.6622 10.9106V14.9685H52.7988V7.28809H54.5475L57.4371 11.3518V7.28809H59.3005V14.9685H57.5575H57.5633Z" fill="white"/>
<path d="M1.08935 2.34767V4.6814H0V0.199707H1.22121L2.35069 2.72501L3.42857 0.199707H4.64979V4.6814H3.53177V2.37669L2.80363 4.00218H1.85762L1.07788 2.34767H1.08935Z" fill="white"/>
<path d="M6.55906 1.01834H5.44678V0.0778809H6.55906V1.01834ZM6.55906 4.68148H5.44678V1.38988H6.55906V4.68148Z" fill="white"/>
<path d="M9.55753 1.32019C10.2455 1.32019 10.6641 1.72656 10.6641 2.29548V4.68146H9.54606V2.56833C9.54606 2.34192 9.48299 2.26645 9.19632 2.26645C8.90965 2.26645 8.54845 2.429 8.38791 2.5393V4.68726H7.27563V1.39566H8.32485L8.36498 1.70915C8.60578 1.53499 8.97845 1.326 9.56326 1.326L9.55753 1.32019Z" fill="white"/>
<path d="M12.4645 1.01834H11.3522V0.0778809H12.4645V1.01834ZM12.4645 4.68148H11.3522V1.38988H12.4645V4.68148Z" fill="white"/>
<path d="M15.0616 2.45804V2.28388C15.0616 2.10392 14.8667 2.05748 14.6087 2.05748C14.3335 2.05748 14.1615 2.10392 14.1615 2.27227V2.33033C14.1615 2.42902 14.2417 2.48126 14.3163 2.49868L15.3368 2.75411C15.8643 2.88764 16.151 3.13726 16.151 3.49139V3.79907C16.151 4.2693 15.7267 4.72792 14.5857 4.72792C13.4448 4.72792 13.032 4.2693 13.032 3.80487V3.59008H14.0755V3.75263C14.0755 3.9384 14.3163 3.97903 14.5915 3.97903C14.9011 3.97903 15.1189 3.93839 15.1189 3.77004V3.70618C15.1189 3.6191 15.0616 3.56105 14.8609 3.5088L13.9035 3.25337C13.4677 3.13726 13.1409 2.85861 13.1409 2.48126V2.27227C13.1409 1.81365 13.4849 1.30859 14.6259 1.30859C15.7668 1.30859 16.1166 1.80204 16.1166 2.27227V2.45224H15.0731L15.0616 2.45804Z" fill="white"/>
<path d="M19.0349 1.38411V2.23169H18.1347V3.47402C18.1347 3.72945 18.2953 3.78751 18.5819 3.78751H19.0807V4.66991H18.4157C17.3837 4.66991 17.011 4.33901 17.011 3.59013V2.22588H16.472V1.37831H17.011V0.553955H18.129V1.37831H19.0291L19.0349 1.38411Z" fill="white"/>
<path d="M22.6985 3.28245H20.6173V3.64238C20.6173 3.85718 20.7836 3.95006 21.1276 3.95006C21.4716 3.95006 21.6493 3.86298 21.6493 3.65979V3.56691H22.6756V3.69463C22.6756 4.33901 22.2341 4.73958 21.1276 4.73958C20.021 4.73958 19.5222 4.3274 19.5222 3.65979V2.39424C19.5222 1.72663 20.0325 1.31445 21.1276 1.31445C22.2226 1.31445 22.7043 1.72663 22.7043 2.39424V3.27665L22.6985 3.28245ZM21.6436 2.59162V2.42327C21.6436 2.21427 21.4601 2.11559 21.1218 2.11559C20.7836 2.11559 20.6116 2.21427 20.6116 2.42327V2.59162H21.6436Z" fill="white"/>
<path d="M25.7201 1.33179V2.29547H25.6226C25.1295 2.29547 24.7167 2.45221 24.4645 2.63798V4.68144H23.3522V1.38984H24.4014L24.4415 1.7846C24.6651 1.58141 24.9805 1.33759 25.6283 1.33759H25.7258L25.7201 1.33179Z" fill="white"/>
<path d="M27.2853 1.01834H26.173V0.0778809H27.2853V1.01834ZM27.2853 4.68148H26.173V1.38988H27.2853V4.68148Z" fill="white"/>
<path d="M27.9331 2.39998C27.9331 1.73237 28.5122 1.32019 29.6245 1.32019C30.7367 1.32019 31.3215 1.73237 31.3215 2.39998V3.66553C31.3215 4.33314 30.7367 4.74532 29.6245 4.74532C28.5122 4.74532 27.9331 4.33314 27.9331 3.66553V2.39998ZM30.2035 2.48706C30.2035 2.24904 29.9685 2.17357 29.6245 2.17357C29.2805 2.17357 29.0454 2.25484 29.0454 2.48706V3.57265C29.0454 3.81647 29.2805 3.89774 29.6245 3.89774C29.9685 3.89774 30.2035 3.81647 30.2035 3.57265V2.48706Z" fill="white"/>
<path d="M35.5528 4.68143L35.507 4.35633C35.2604 4.53049 34.8935 4.74529 34.3087 4.74529C33.5691 4.74529 33.2021 4.33892 33.2021 3.68872V2.37092C33.2021 1.72653 33.5691 1.31436 34.3087 1.31436C34.8878 1.31436 35.2547 1.52335 35.4783 1.68589V0.0720215H36.5906V4.67562H35.5471L35.5528 4.68143ZM34.3259 3.50876C34.3259 3.67131 34.366 3.80483 34.6699 3.80483C34.9738 3.80483 35.3178 3.63067 35.484 3.53198V2.53347C35.3235 2.43478 34.9623 2.26062 34.6699 2.26062C34.3775 2.26062 34.3259 2.39414 34.3259 2.55669V3.50876Z" fill="white"/>
<path d="M40.4262 3.28245H38.345V3.64238C38.345 3.85718 38.5112 3.95006 38.8552 3.95006C39.1992 3.95006 39.377 3.86298 39.377 3.65979V3.56691H40.4032V3.69463C40.4032 4.33901 39.9618 4.73958 38.8552 4.73958C37.7487 4.73958 37.2499 4.3274 37.2499 3.65979V2.39424C37.2499 1.72663 37.7601 1.31445 38.8552 1.31445C39.9503 1.31445 40.4319 1.72663 40.4319 2.39424V3.27665L40.4262 3.28245ZM39.3712 2.59162V2.42327C39.3712 2.21427 39.1878 2.11559 38.8495 2.11559C38.5112 2.11559 38.3392 2.21427 38.3392 2.42327V2.59162H39.3712Z" fill="white"/>
<path d="M46.366 17.8305H38.9068L35.4725 16.7333H44.9326L46.366 17.8305Z" fill="#FABA20"/>
<path d="M38.9068 17.8305H19.0177L21.1161 16.7333H35.4725L38.9068 17.8305Z" fill="#0084C7"/>
<path d="M19.0693 17.8305H0.33252V16.7333H21.1161L19.0693 17.8305Z" fill="#891E81"/>
<path d="M56.967 17.8305H46.366L44.9326 16.7333H60.6823L56.967 17.8305Z" fill="#E63346"/>
<path d="M102.502 17.8305H95.9484L97.0492 16.7333H106.658L102.502 17.8305Z" fill="#E63346"/>
<path d="M112.65 17.8305H102.502L106.658 16.7333H112.656L112.65 17.8305Z" fill="#BBCE00"/>
<path d="M95.9484 17.8305H76.1797L87.0043 16.7333H97.0492L95.9484 17.8305Z" fill="#ED7225"/>
<path d="M76.1797 17.8305H66.9431L60.6823 16.7333H87.0043L76.1797 17.8305Z" fill="#00A7E5"/>
<path d="M66.9431 17.8305H56.967L60.6823 16.7333L66.9431 17.8305Z" fill="#FABA20"/>
</svg>
