<svg width="74" height="39" viewBox="0 0 74 39" fill="none" xmlns="http://www.w3.org/2000/svg">
<path d="M1.47847 28.7343H0V27.569H4.27169V28.7343H2.79322V33.1076H1.47847V28.7343Z" fill="white"/>
<path d="M6.78099 29.2247V30.5392C6.70681 30.5342 6.60961 30.5317 6.49195 30.5317C6.30266 30.5317 6.13896 30.5696 6.00339 30.6429C5.86782 30.7187 5.76806 30.8198 5.70411 30.9488C5.63761 31.0777 5.60691 31.2268 5.60691 31.3937V33.1076H4.37401V29.293H5.60691V29.8036H5.62226C5.71946 29.6772 5.82945 29.5711 5.94711 29.4851C6.06478 29.3992 6.19267 29.3334 6.32568 29.2879C6.45869 29.2424 6.59682 29.2222 6.7375 29.2222C6.75797 29.2222 6.77331 29.2222 6.78099 29.2247Z" fill="white"/>
<path d="M11.091 29.2955V33.1101H9.91953V32.698H9.90418C9.65607 33.0191 9.29796 33.1809 8.83242 33.1809C8.57152 33.1809 8.32596 33.1328 8.10086 33.0368C7.87577 32.9407 7.68137 32.8067 7.52278 32.6374C7.36419 32.468 7.23885 32.2582 7.14933 32.013C7.0598 31.7678 7.01376 31.4973 7.01376 31.2066C7.01376 30.9159 7.0598 30.653 7.14933 30.4053C7.23885 30.1575 7.36163 29.9477 7.52022 29.7758C7.67881 29.6039 7.86298 29.4674 8.0804 29.3714C8.29782 29.2753 8.52803 29.2247 8.77615 29.2247C9.21099 29.2247 9.56398 29.384 9.84024 29.7H9.85558V29.2955H11.091ZM9.66886 31.8588C9.82489 31.6919 9.90418 31.4771 9.90418 31.2091C9.90418 31.0372 9.86837 30.8805 9.79931 30.744C9.73025 30.6075 9.63049 30.4988 9.50771 30.4204C9.38493 30.3421 9.24424 30.3041 9.09333 30.3041C8.85544 30.3041 8.65593 30.3876 8.4999 30.5544C8.34387 30.7212 8.26457 30.9412 8.26457 31.2091C8.26457 31.4771 8.34131 31.6919 8.49478 31.8588C8.64825 32.0256 8.84777 32.109 9.08821 32.109C9.32866 32.109 9.51282 32.0256 9.66886 31.8588Z" fill="white"/>
<path d="M14.8409 29.3031C15.0021 29.3587 15.1479 29.4447 15.2732 29.5685C15.3985 29.6924 15.4983 29.8567 15.5648 30.0665C15.6313 30.2763 15.6646 30.5291 15.6646 30.8198V33.1076H14.4317V31.1206C14.4317 30.9159 14.4086 30.7516 14.36 30.6302C14.3114 30.5089 14.2449 30.4255 14.1605 30.38C14.0736 30.332 13.9585 30.3092 13.8152 30.3092C13.672 30.3092 13.5517 30.3395 13.4443 30.4053C13.3394 30.4685 13.255 30.567 13.1962 30.701C13.1348 30.835 13.1067 30.9993 13.1067 31.1914V33.105H11.8738V29.2905H13.1067V29.7505H13.1143C13.2653 29.5786 13.4418 29.4447 13.6413 29.3537C13.8408 29.2627 14.0557 29.2172 14.2807 29.2172C14.4905 29.2172 14.6772 29.245 14.8384 29.2981L14.8409 29.3031Z" fill="white"/>
<path d="M16.1327 32.6171L16.7184 31.7981C17.0279 32.0863 17.3681 32.2329 17.7314 32.2329C17.8055 32.2329 17.8695 32.2253 17.9206 32.2076C17.9718 32.1899 18.0102 32.1672 18.0383 32.1343C18.0664 32.1015 18.0792 32.0635 18.0792 32.018C18.0792 31.9675 18.0383 31.9195 17.9539 31.8714C17.8695 31.8234 17.7134 31.7653 17.4858 31.6945C17.3886 31.6641 17.2991 31.6338 17.2172 31.6009C17.1354 31.5681 17.051 31.5302 16.9665 31.4872C16.8821 31.4442 16.808 31.3962 16.7414 31.3482C16.6749 31.3001 16.6136 31.2445 16.5547 31.1788C16.4959 31.1131 16.4473 31.0448 16.4064 30.9715C16.3654 30.8982 16.3347 30.8148 16.3143 30.7212C16.2938 30.6277 16.281 30.5291 16.281 30.423C16.281 30.1828 16.345 29.9705 16.4729 29.7859C16.6008 29.6014 16.7747 29.4624 16.9921 29.3663C17.2095 29.2702 17.4551 29.2222 17.7288 29.2222C17.9181 29.2222 18.0971 29.2399 18.2608 29.2753C18.4245 29.3107 18.5806 29.3638 18.7315 29.432C18.8798 29.5028 19.0308 29.5938 19.1817 29.705L18.5959 30.5772C18.4655 30.4482 18.3222 30.3496 18.1636 30.2814C18.005 30.2131 17.8618 30.1777 17.7237 30.1777C17.6546 30.1777 17.5907 30.1929 17.5344 30.2233C17.4781 30.2536 17.45 30.3041 17.45 30.3724C17.45 30.4204 17.4884 30.471 17.5676 30.5215C17.6469 30.5721 17.7748 30.6302 17.9539 30.6934C18.0511 30.7288 18.1329 30.7592 18.1994 30.7819C18.266 30.8072 18.3376 30.835 18.4169 30.8679C18.4962 30.9007 18.5627 30.9311 18.6164 30.9563C18.6701 30.9816 18.7264 31.0145 18.7852 31.0499C18.8466 31.0853 18.8952 31.1206 18.9336 31.1535C18.9719 31.1864 19.0129 31.2243 19.0538 31.2698C19.0947 31.3153 19.128 31.3583 19.151 31.4063C19.174 31.4518 19.197 31.5024 19.2175 31.5605C19.238 31.6186 19.2533 31.6793 19.261 31.7425C19.2687 31.8057 19.2738 31.879 19.2738 31.9548C19.2738 32.1343 19.2405 32.2986 19.1766 32.4478C19.1126 32.5969 19.018 32.7258 18.8926 32.8371C18.7673 32.9483 18.6036 33.0342 18.4041 33.0949C18.2046 33.1556 17.9769 33.1884 17.7211 33.1884C17.0996 33.1884 16.5701 32.9989 16.1327 32.6222V32.6171Z" fill="white"/>
<path d="M19.9542 27.569H23.745V28.7343H21.2536V29.978H23.3101V31.1358H21.2536V33.1076H19.9542V27.569Z" fill="white"/>
<path d="M25.7913 32.9736C25.4306 32.832 25.1262 32.6374 24.8756 32.3896C24.6249 32.1419 24.4305 31.8411 24.2872 31.4872C24.1466 31.1333 24.0749 30.7516 24.0749 30.3421C24.0749 29.9325 24.1466 29.5483 24.2872 29.1969C24.4279 28.843 24.6249 28.5422 24.8756 28.292C25.1262 28.0417 25.4306 27.8471 25.7913 27.7055C26.152 27.5639 26.5408 27.4932 26.9628 27.4932C27.3849 27.4932 27.7609 27.5614 28.1164 27.7004C28.472 27.8395 28.7764 28.0316 29.027 28.2793C29.2777 28.5271 29.4772 28.8279 29.6205 29.1818C29.7637 29.5357 29.8353 29.9224 29.8353 30.3421C29.8353 30.7617 29.7637 31.1434 29.6205 31.4973C29.4772 31.8512 29.2803 32.152 29.027 32.3997C28.7764 32.6475 28.472 32.8396 28.1164 32.9786C27.7609 33.1177 27.3772 33.1859 26.9628 33.1859C26.5484 33.1859 26.152 33.1151 25.7913 32.9736ZM27.7353 31.7526C27.9655 31.6111 28.1446 31.4164 28.2699 31.1687C28.3952 30.9209 28.4617 30.6454 28.4617 30.3395C28.4617 30.0337 28.3978 29.7581 28.2699 29.5104C28.142 29.2627 27.9629 29.0655 27.7353 28.9239C27.5076 28.7824 27.2467 28.7116 26.9628 28.7116C26.6789 28.7116 26.4129 28.7849 26.1801 28.929C25.9499 29.0731 25.7708 29.2702 25.6429 29.518C25.515 29.7657 25.4511 30.0412 25.4511 30.3421C25.4511 30.6429 25.515 30.9159 25.6429 31.1636C25.7708 31.4114 25.9499 31.606 26.1801 31.7526C26.4103 31.8967 26.6712 31.97 26.9628 31.97C27.2544 31.97 27.5051 31.8992 27.7353 31.7577V31.7526Z" fill="white"/>
<path d="M33.511 33.1101L32.3625 31.3254H31.8996V33.1101H30.6001V27.5715H32.7846C33.1222 27.5715 33.4189 27.6195 33.6773 27.7131C33.9356 27.8091 34.1454 27.9431 34.304 28.115C34.4626 28.2869 34.5828 28.4891 34.6646 28.7192C34.7465 28.9492 34.7849 29.202 34.7849 29.4826C34.7849 29.8946 34.6953 30.2384 34.5163 30.519C34.3372 30.7971 34.0789 31.0069 33.7464 31.1434V31.1611L35.0611 33.1101H33.5085H33.511ZM31.9021 30.1803H32.5109C32.7923 30.1803 33.0174 30.1146 33.1785 29.9831C33.3396 29.8517 33.4241 29.6747 33.4241 29.4472C33.4241 29.2197 33.3473 29.0554 33.1913 28.9214C33.0353 28.7874 32.8178 28.7192 32.5339 28.7192H31.9021V30.1803Z" fill="white"/>
<path d="M41.4226 27.569V33.1076H40.113V30.0539H40.0976L38.9619 32.0913H38.1178L36.9821 30.0589H36.9667V33.1076H35.6571V27.569H36.9872L38.5347 30.5038H38.5578L40.0951 27.569H41.4252H41.4226Z" fill="white"/>
<path d="M45.6176 32.1192H43.648L43.3231 33.1101H41.9444L43.9984 27.5715H45.262L47.3237 33.1101H45.945L45.6176 32.1192ZM45.2569 31.0145L44.6404 29.1464H44.6251L44.0138 31.0145H45.2595H45.2569Z" fill="white"/>
<path d="M50.7538 33.1101L49.6053 31.3254H49.1423V33.1101H47.8429V27.5715H50.0274C50.365 27.5715 50.6617 27.6195 50.9201 27.7131C51.1784 27.8091 51.3882 27.9431 51.5468 28.115C51.7054 28.2869 51.8256 28.4891 51.9074 28.7192C51.9893 28.9492 52.0277 29.202 52.0277 29.4826C52.0277 29.8946 51.9381 30.2384 51.7591 30.519C51.58 30.7971 51.3217 31.0069 50.9892 31.1434V31.1611L52.3039 33.1101H50.7513H50.7538ZM49.1449 30.1803H49.7537C50.0351 30.1803 50.2601 30.1146 50.4213 29.9831C50.5824 29.8517 50.6669 29.6747 50.6669 29.4472C50.6669 29.2197 50.5901 29.0554 50.4341 28.9214C50.2781 28.7874 50.0606 28.7192 49.7767 28.7192H49.1449V30.1803Z" fill="white"/>
<path d="M57.4709 31.5529C57.4632 31.6186 57.4606 31.6742 57.4606 31.7198C57.4606 31.831 57.4785 31.9119 57.5169 31.9599C57.5553 32.0079 57.6167 32.0332 57.7036 32.0332C57.8111 32.0332 57.9108 31.9902 58.0029 31.9068C58.095 31.8209 58.1692 31.7147 58.2229 31.5858C58.2766 31.4569 58.3175 31.3279 58.3482 31.1965C58.3789 31.065 58.3917 30.9462 58.3917 30.8401C58.3917 30.5443 58.3431 30.2637 58.2433 30.0033C58.1436 29.743 58.0055 29.5104 57.8239 29.3132C57.6422 29.1135 57.412 28.9568 57.1281 28.838C56.8442 28.7192 56.5321 28.6636 56.1894 28.6636C55.9182 28.6636 55.6599 28.6914 55.422 28.7495C55.1815 28.8076 54.9718 28.886 54.7927 28.9846C54.6137 29.0832 54.45 29.202 54.3016 29.3385C54.1533 29.475 54.0305 29.6191 53.9307 29.7733C53.831 29.925 53.7491 30.0867 53.6801 30.2561C53.611 30.4255 53.5624 30.5923 53.5343 30.7541C53.5036 30.9159 53.4908 31.0777 53.4908 31.2344C53.4908 31.5605 53.5496 31.8664 53.6673 32.1545C53.7849 32.4427 53.941 32.6905 54.1379 32.8977C54.3349 33.105 54.5702 33.2668 54.8388 33.3856C55.1074 33.5044 55.3887 33.5651 55.6829 33.5651C56.2098 33.5651 56.7367 33.421 57.2662 33.1303L57.6243 33.6864C57.0258 34.0909 56.3786 34.2931 55.6829 34.2931C55.2634 34.2931 54.872 34.2173 54.5037 34.0631C54.1354 33.9089 53.8207 33.6991 53.5598 33.4311C53.2989 33.1632 53.0917 32.8396 52.9408 32.4579C52.7899 32.0762 52.7132 31.6692 52.7132 31.2319C52.7132 31.0372 52.7336 30.8375 52.772 30.6353C52.8104 30.4331 52.8718 30.2233 52.9587 30.0059C53.0457 29.791 53.1506 29.5837 53.2759 29.384C53.4012 29.1868 53.5598 28.9998 53.7491 28.8228C53.9384 28.6459 54.1507 28.4942 54.3809 28.3653C54.6111 28.2363 54.8823 28.1352 55.1943 28.0594C55.5038 27.9836 55.8364 27.9456 56.1919 27.9456C56.5475 27.9456 56.8979 27.9937 57.2151 28.0897C57.5323 28.1858 57.8085 28.3223 58.0438 28.4967C58.2792 28.6711 58.4812 28.8784 58.6501 29.1186C58.8189 29.3587 58.9468 29.6241 59.0312 29.9174C59.1156 30.2081 59.1591 30.5165 59.1591 30.8375C59.1591 30.9487 59.1514 31.0625 59.1386 31.1737C59.1233 31.2875 59.0977 31.4088 59.0593 31.5403C59.021 31.6717 58.9724 31.7956 58.9135 31.9144C58.8547 32.0307 58.7754 32.1444 58.6782 32.2557C58.581 32.3669 58.471 32.4604 58.3482 32.5413C58.2254 32.6222 58.0771 32.6854 57.9006 32.7334C57.7267 32.7815 57.5348 32.8067 57.3276 32.8067C57.036 32.8067 56.793 32.7486 56.5986 32.6323C56.4912 32.5565 56.4119 32.4427 56.3607 32.2936H56.3377C56.2405 32.42 56.1075 32.5236 55.9438 32.607C55.7775 32.6879 55.6138 32.7284 55.4476 32.7284C55.0588 32.7284 54.7493 32.5944 54.5165 32.3239C54.2837 32.0534 54.1686 31.697 54.1686 31.2572C54.1686 31.1763 54.1737 31.0903 54.1865 30.9968C54.1993 30.9032 54.2172 30.8047 54.2428 30.701C54.2684 30.5974 54.3016 30.4937 54.3426 30.3926C54.3835 30.2915 54.4321 30.1904 54.4858 30.0943C54.5421 29.9957 54.606 29.9073 54.6853 29.8238C54.762 29.7404 54.8465 29.6696 54.936 29.6065C55.0255 29.5433 55.1304 29.4952 55.2455 29.4598C55.3632 29.4244 55.4859 29.4067 55.6164 29.4067C55.9668 29.4067 56.2405 29.5433 56.44 29.8188H56.4605L56.504 29.475H57.6934L57.4785 31.558L57.4709 31.5529ZM56.2405 31.5024C56.371 31.3608 56.4349 31.1838 56.4349 30.969C56.4349 30.8021 56.3889 30.6656 56.2993 30.5645C56.2098 30.4634 56.0998 30.4128 55.9719 30.4128C55.8671 30.4128 55.7647 30.4432 55.6675 30.5064C55.5703 30.5696 55.4885 30.658 55.4245 30.7718C55.3606 30.8881 55.3273 31.017 55.3273 31.1586C55.3273 31.2698 55.3478 31.3684 55.3938 31.4543C55.4399 31.5403 55.4936 31.6035 55.5652 31.649C55.6368 31.6945 55.7136 31.7147 55.798 31.7147C55.9617 31.7147 56.1101 31.6439 56.238 31.5024H56.2405Z" fill="white"/>
<path d="M61.6786 33.062C61.3947 32.9837 61.1312 32.8674 60.8882 32.7107C60.6478 32.5539 60.438 32.3644 60.259 32.1444C60.0799 31.922 59.9392 31.6591 59.8395 31.3532C59.7372 31.0473 59.6886 30.7162 59.6886 30.3572C59.6886 30.0412 59.7295 29.7379 59.8088 29.4523C59.8881 29.1666 60.0109 28.9037 60.172 28.6661C60.3332 28.4285 60.5301 28.2237 60.7578 28.0468C60.9854 27.8723 61.2565 27.7358 61.5635 27.6398C61.873 27.5437 62.2081 27.4957 62.5713 27.4957C62.8348 27.4957 63.0982 27.5311 63.3566 27.6044C63.6149 27.6777 63.8758 27.794 64.1367 27.9583C64.3977 28.1226 64.6279 28.3248 64.8274 28.565L63.8605 29.3789C63.707 29.1995 63.5177 29.0478 63.2926 28.9239C63.0675 28.8001 62.8271 28.7394 62.5713 28.7394C62.4357 28.7394 62.3027 28.7571 62.1748 28.7899C62.0469 28.8228 61.9267 28.8708 61.8167 28.934C61.7067 28.9972 61.6044 29.0731 61.5123 29.1691C61.4203 29.2627 61.341 29.3688 61.2745 29.4876C61.208 29.6065 61.1594 29.7379 61.1235 29.887C61.0877 30.0362 61.0698 30.1929 61.0698 30.3623C61.0698 30.6555 61.1312 30.9184 61.2514 31.1586C61.3742 31.3962 61.5507 31.5858 61.7809 31.7273C62.0111 31.8689 62.2746 31.9397 62.5713 31.9397C62.8169 31.9397 63.0573 31.8815 63.285 31.7678C63.5152 31.6515 63.707 31.4998 63.8605 31.3077L64.8274 32.1267C64.5716 32.4427 64.2493 32.7006 63.8605 32.8927C63.4717 33.0873 63.042 33.1834 62.5688 33.1834C62.2592 33.1834 61.96 33.1455 61.676 33.0671L61.6786 33.062Z" fill="white"/>
<path d="M68.4391 29.3688C68.6566 29.4674 68.8433 29.6014 68.9993 29.7733C69.1553 29.9452 69.2781 30.155 69.3702 30.4027C69.4597 30.6505 69.5058 30.9184 69.5058 31.2041C69.5058 31.7905 69.3344 32.2658 68.9942 32.6323C68.654 32.9989 68.2192 33.1809 67.6871 33.1809C67.2088 33.1809 66.843 33.0191 66.5847 32.698H66.5642V33.1101H65.3927V27.3693H66.6281V29.7H66.6486C66.93 29.384 67.2958 29.2247 67.7434 29.2247C67.9889 29.2247 68.2217 29.2728 68.4391 29.3714V29.3688ZM68.0248 31.8588C68.1782 31.6919 68.255 31.4771 68.255 31.2091C68.255 30.9412 68.1757 30.7212 68.0196 30.5544C67.8636 30.3876 67.6641 30.3041 67.4262 30.3041C67.1883 30.3041 66.976 30.3901 66.8174 30.5595C66.6588 30.7288 66.5795 30.9462 66.5795 31.2117C66.5795 31.3456 66.6026 31.4695 66.646 31.5807C66.6895 31.6919 66.7484 31.788 66.8251 31.8638C66.9018 31.9422 66.9914 32.0003 67.0937 32.0433C67.1986 32.0863 67.3111 32.109 67.4313 32.109C67.6718 32.109 67.8713 32.0256 68.0248 31.8588Z" fill="white"/>
<path d="M74 29.2955V33.1101H72.8285V32.698H72.8131C72.565 33.0191 72.2069 33.1809 71.7414 33.1809C71.4805 33.1809 71.2349 33.1328 71.0098 33.0368C70.7847 32.9407 70.5903 32.8067 70.4317 32.6374C70.2732 32.468 70.1478 32.2582 70.0583 32.013C69.9688 31.7678 69.9227 31.4973 69.9227 31.2066C69.9227 30.9159 69.9688 30.653 70.0583 30.4053C70.1478 30.1575 70.2706 29.9477 70.4292 29.7758C70.5878 29.6039 70.7719 29.4674 70.9894 29.3714C71.2068 29.2753 71.437 29.2247 71.6851 29.2247C72.12 29.2247 72.4729 29.384 72.7492 29.7H72.7645V29.2955H74ZM72.5778 31.8588C72.7338 31.6919 72.8131 31.4771 72.8131 31.2091C72.8131 31.0372 72.7773 30.8805 72.7083 30.744C72.6392 30.6075 72.5394 30.4988 72.4167 30.4204C72.2939 30.3421 72.1532 30.3041 72.0023 30.3041C71.7644 30.3041 71.5649 30.3876 71.4089 30.5544C71.2528 30.7212 71.1735 30.9412 71.1735 31.2091C71.1735 31.4771 71.2503 31.6919 71.4037 31.8588C71.5572 32.0256 71.7567 32.109 71.9972 32.109C72.2376 32.109 72.4218 32.0256 72.5778 31.8588Z" fill="white"/>
<path d="M1.05897 35.7568H1.458V38.9722H1.05897V35.7568Z" fill="white"/>
<path d="M2.7523 35.7568H3.14622L4.98279 38.315H4.9879V35.7568H5.38693V38.9722H4.98023L3.16156 36.4418H3.15133V38.9722H2.7523V35.7568Z" fill="white"/>
<path d="M6.67612 35.7568H7.07003L8.9066 38.315H8.91172V35.7568H9.31075V38.9722H8.90405L7.08538 36.4418H7.07515V38.9722H6.67612V35.7568Z" fill="white"/>
<path d="M10.4362 37.3645C10.4362 36.409 11.1243 35.7239 12.0707 35.7239C13.0171 35.7239 13.6924 36.3811 13.6924 37.3645C13.6924 38.3478 12.9813 39 12.0707 39C11.1601 39 10.4362 38.32 10.4362 37.3645ZM13.2781 37.3645C13.2781 36.6162 12.746 36.0955 12.0733 36.0955C11.4006 36.0955 10.8557 36.6339 10.8557 37.3645C10.8557 38.095 11.3699 38.6284 12.0733 38.6284C12.7767 38.6284 13.2781 38.1077 13.2781 37.3645Z" fill="white"/>
<path d="M14.3754 35.7568H14.8051L15.7822 38.4009H15.7873L16.7645 35.7568H17.1916L15.9638 38.9722H15.6057L14.3779 35.7568H14.3754Z" fill="white"/>
<path d="M18.8236 35.7568H19.2226L20.4606 38.9722H20.0437L19.7495 38.1886H18.2966L18.0076 38.9722H17.5907L18.8236 35.7568ZM19.6268 37.8448L19.0256 36.232H19.0154L18.4245 37.8448H19.6268Z" fill="white"/>
<path d="M21.425 35.7568H21.8189L23.6554 38.315H23.6606V35.7568H24.0596V38.9722H23.6529L21.8342 36.4418H21.824V38.9722H21.425V35.7568Z" fill="white"/>
<path d="M25.3488 35.7568H26.3208C27.3516 35.7568 28.0115 36.4191 28.0115 37.3695C28.0115 38.32 27.3746 38.9722 26.3336 38.9722H25.3488V35.7568ZM26.3105 38.6133C27.1035 38.6133 27.5972 38.0925 27.5972 37.367C27.5972 36.6415 27.083 36.1132 26.3233 36.1132H25.7452V38.6133H26.3105Z" fill="white"/>
<path d="M28.9784 37.3645C28.9784 36.409 29.6665 35.7239 30.6129 35.7239C31.5594 35.7239 32.2346 36.3811 32.2346 37.3645C32.2346 38.3478 31.5235 39 30.6129 39C29.7023 39 28.9784 38.32 28.9784 37.3645ZM31.8177 37.3645C31.8177 36.6162 31.2857 36.0955 30.6129 36.0955C29.9402 36.0955 29.3954 36.6339 29.3954 37.3645C29.3954 38.095 29.9095 38.6284 30.6129 38.6284C31.3164 38.6284 31.8177 38.1077 31.8177 37.3645Z" fill="white"/>
<path d="M35.0611 35.7568H37.0537V36.1157H35.4601V37.1926H36.7672V37.5516H35.4601V38.6158H37.1509V38.9747H35.0611V35.7568Z" fill="white"/>
<path d="M38.1664 35.7568H38.5603L40.3969 38.315H40.402V35.7568H40.801V38.9722H40.3943L38.5757 36.4418H38.5654V38.9722H38.1664V35.7568Z" fill="white"/>
<path d="M43.7682 35.7568H45.7608V36.1157H44.1672V37.1926H45.4743V37.5516H44.1672V38.6158H45.858V38.9747H43.7682V35.7568Z" fill="white"/>
<path d="M46.876 35.7568H47.848C48.8789 35.7568 49.5388 36.4191 49.5388 37.3695C49.5388 38.32 48.9019 38.9722 47.8608 38.9722H46.876V35.7568ZM47.8378 38.6133C48.6308 38.6133 49.1244 38.0925 49.1244 37.367C49.1244 36.6415 48.6103 36.1132 47.8506 36.1132H47.2725V38.6133H47.8378Z" fill="white"/>
<path d="M50.6208 37.6628V35.7568H51.0198V37.635C51.0198 38.229 51.3549 38.6259 51.8819 38.6259C52.4088 38.6259 52.749 38.2543 52.749 37.635V35.7568H53.148V37.6628C53.148 38.4869 52.6569 38.9975 51.8844 38.9975C51.1119 38.9975 50.6234 38.5096 50.6234 37.6628H50.6208Z" fill="white"/>
<path d="M54.2274 37.3746C54.2274 36.4646 54.8055 35.7264 55.844 35.7264C56.3121 35.7264 56.77 35.9261 57.1128 36.3432L56.816 36.5884C56.5449 36.2573 56.2098 36.1031 55.844 36.1031C55.1074 36.1031 54.6444 36.6365 54.6444 37.3746C54.6444 38.1127 55.1611 38.6234 55.8492 38.6234C56.2712 38.6234 56.5909 38.4237 56.8212 38.138L57.1179 38.3857C56.8339 38.7346 56.4221 38.9924 55.8492 38.9924C54.9692 38.9924 54.2274 38.4211 54.2274 37.3721V37.3746Z" fill="white"/>
<path d="M59.1028 35.7568H59.5018L60.7399 38.9722H60.3229L60.0288 38.1886H58.5759L58.2868 38.9722H57.8699L59.1028 35.7568ZM59.906 37.8448L59.3049 36.232H59.2946L58.7038 37.8448H59.906Z" fill="white"/>
<path d="M61.4254 37.3746C61.4254 36.4646 62.0035 35.7264 63.042 35.7264C63.5101 35.7264 63.9679 35.9261 64.3107 36.3432L64.014 36.5884C63.7428 36.2573 63.4077 36.1031 63.042 36.1031C62.3053 36.1031 61.8423 36.6365 61.8423 37.3746C61.8423 38.1127 62.359 38.6234 63.0471 38.6234C63.4691 38.6234 63.7889 38.4237 64.0191 38.138L64.3158 38.3857C64.0319 38.7346 63.6201 38.9924 63.0471 38.9924C62.1672 38.9924 61.4254 38.4211 61.4254 37.3721V37.3746Z" fill="white"/>
<path d="M65.3415 35.7568H65.7405V38.9722H65.3415V35.7568Z" fill="white"/>
<path d="M66.8788 37.3645C66.8788 36.409 67.5669 35.7239 68.5133 35.7239C69.4597 35.7239 70.135 36.3811 70.135 37.3645C70.135 38.3478 69.4239 39 68.5133 39C67.6027 39 66.8788 38.32 66.8788 37.3645ZM69.7181 37.3645C69.7181 36.6162 69.186 36.0955 68.5133 36.0955C67.8406 36.0955 67.2957 36.6339 67.2957 37.3645C67.2957 38.095 67.8099 38.6284 68.5133 38.6284C69.2167 38.6284 69.7181 38.1077 69.7181 37.3645ZM68.787 34.8467H69.2142L68.654 35.4307H68.2729L68.787 34.8467Z" fill="white"/>
<path d="M71.2631 35.7568H71.657L73.4935 38.315H73.4987V35.7568H73.8977V38.9722H73.491L71.6723 36.4418H71.6621V38.9722H71.2631V35.7568Z" fill="white"/>
<path d="M37.133 9.68682C38.1511 9.67418 39.0054 10.521 39.0361 11.5726C39.0617 12.4953 38.1204 13.4028 37.1381 13.4028C36.1559 13.4028 35.2632 12.5155 35.2683 11.5448C35.2734 10.564 36.1431 9.69694 37.133 9.68682Z" fill="white"/>
<path d="M27.4897 9.68682C28.5078 9.67418 29.3621 10.521 29.3928 11.5726C29.4184 12.4953 28.4771 13.4028 27.4949 13.4028C26.5126 13.4028 25.6199 12.5155 25.625 11.5448C25.6301 10.564 26.4998 9.69694 27.4897 9.68682Z" fill="white"/>
<path d="M47.0858 9.68682C48.1038 9.67418 48.9582 10.521 48.9889 11.5726C49.0145 12.4953 48.0731 13.4028 47.0909 13.4028C46.1087 13.4028 45.216 12.5155 45.2211 11.5448C45.2262 10.564 46.0959 9.69694 47.0858 9.68682Z" fill="white"/>
<path d="M39.187 1.84284C39.1998 2.84893 38.3429 3.69324 37.2788 3.72358C36.3452 3.74886 35.4269 2.8186 35.4269 1.8479C35.4269 0.877193 36.3247 -0.00503412 37.307 2.16242e-05C38.2994 0.00507737 39.1768 0.864554 39.187 1.84284Z" fill="white"/>
<path d="M39.187 21.2114C39.1998 22.2175 38.3429 23.0618 37.2788 23.0921C36.3452 23.1174 35.4269 22.1871 35.4269 21.2164C35.4269 20.2457 36.3247 19.3635 37.307 19.3686C38.2994 19.3736 39.1768 20.2331 39.187 21.2114Z" fill="white"/>
<path d="M39.6832 16.0849C37.7878 16.4388 35.982 15.8548 33.7131 14.3432C33.2859 14.06 32.8025 13.8856 32.3114 13.8123C31.9635 13.7618 31.6105 13.7618 31.2703 13.8123C30.6232 13.9109 30.0297 14.194 29.6102 14.6566C28.5385 15.8321 28.4975 17.68 29.5181 18.8529C30.4774 19.9525 32.227 20.2002 33.5929 19.2548C35.2351 18.1173 36.8951 17.1264 38.9747 17.1087C39.1742 17.1036 39.3712 17.1087 39.5656 17.1264C39.5528 16.78 39.5912 16.4287 39.6858 16.0874L39.6832 16.0849Z" fill="white"/>
<path d="M45.106 15.2178C43.9549 13.5949 42.9522 11.9543 42.9343 9.89917C42.9292 9.70199 42.9343 9.50987 42.9497 9.31776C42.5992 9.32787 42.2411 9.27731 41.8907 9.16356C42.2616 11.0493 41.6733 12.8416 40.1334 15.0965C39.9262 15.4023 39.7753 15.7385 39.6807 16.0849C39.586 16.4261 39.5477 16.7775 39.5605 17.1238C39.5912 17.9075 39.8904 18.6557 40.448 19.1512C41.6375 20.2104 43.5073 20.2508 44.6942 19.2422C45.8068 18.2942 46.0575 16.5652 45.1009 15.2153L45.106 15.2178Z" fill="white"/>
<path d="M35.0125 5.58156C34.9051 4.91168 34.5751 4.29487 34.0533 3.84997C32.869 2.84135 30.9992 2.8818 29.8072 3.94097C28.7533 4.87881 28.6101 6.70646 29.49 7.99568C30.9966 10.205 31.5926 11.9695 31.2677 13.8123C31.6079 13.7592 31.9584 13.7618 32.3088 13.8123C32.2909 13.6101 32.2832 13.4053 32.2884 13.193C32.3063 11.1378 33.309 9.49723 34.46 7.87434C34.7414 7.47746 34.9179 7.0452 34.9972 6.6104C35.0611 6.26409 35.0637 5.91524 35.01 5.58156H35.0125Z" fill="white"/>
<path d="M45.0011 4.13562C44.0521 3.09414 42.2028 2.95258 40.8982 3.82216C38.6652 5.31108 36.8772 5.90007 35.0125 5.57903C35.0662 5.91524 35.0637 6.26156 34.9997 6.60788C35.2095 6.59018 35.4218 6.58007 35.6392 6.58513C37.7188 6.60282 39.3788 7.59375 41.021 8.73129C41.2998 8.92341 41.5914 9.06497 41.8933 9.16103C42.2437 9.27478 42.6018 9.32534 42.9522 9.31523C43.7759 9.29248 44.5612 8.94363 45.0958 8.32936C46.1164 7.15895 46.0754 5.31108 45.0037 4.13309L45.0011 4.13562Z" fill="white"/>
</svg>
