<?xml version="1.0" encoding="UTF-8"?>
<svg id="Capa_1" xmlns="http://www.w3.org/2000/svg" version="1.1" viewBox="0 0 609.3 160.71">
  <!-- Generator: Adobe Illustrator 29.1.0, SVG Export Plug-In . SVG Version: 2.1.0 Build 142)  -->
  <defs>
    <style>
      .st0 {
        fill: #0b4680;
      }

      .st1 {
        fill: #e3464c;
      }
    </style>
  </defs>
  <g>
    <path class="st0" d="M194.96,47.54c-3.78,0-6.96-.72-9.53-2.16-2.57-1.44-4.52-3.58-5.83-6.43-1.32-2.85-1.97-6.37-1.97-10.59,0-6.34,1.53-11.12,4.59-14.34s7.35-4.84,12.86-4.84c3.28,0,6.13.51,8.56,1.51,2.43,1.01,4.31,2.52,5.64,4.54,1.33,2.02,2,4.55,2,7.62h-2.92c0-2.6-.53-4.7-1.59-6.32-1.06-1.62-2.59-2.82-4.59-3.59-2-.78-4.4-1.16-7.21-1.16s-5.24.54-7.4,1.62c-2.16,1.08-3.85,2.81-5.05,5.18-1.21,2.38-1.81,5.55-1.81,9.51v1.13c0,3.78.6,6.83,1.81,9.13,1.21,2.31,2.89,3.98,5.05,5.03,2.16,1.04,4.65,1.56,7.45,1.56s5.16-.39,7.16-1.16c2-.77,3.54-1.97,4.62-3.59,1.08-1.62,1.62-3.73,1.62-6.32h2.86c0,3.13-.7,5.71-2.11,7.72-1.41,2.02-3.33,3.51-5.78,4.48-2.45.97-5.26,1.46-8.43,1.46Z"/>
    <path class="st0" d="M242.34,47.54c-3.03,0-5.62-.49-7.78-1.46-2.16-.97-3.83-2.57-5-4.78-1.17-2.21-1.76-5.14-1.76-8.78V9.83h2.97v24.1c0,3.68,1.02,6.42,3.05,8.24,2.03,1.82,4.87,2.73,8.51,2.73s6.68-.91,8.81-2.73c2.12-1.82,3.19-4.56,3.19-8.24V9.83h2.86v22.69c0,3.64-.59,6.56-1.78,8.78-1.19,2.21-2.89,3.81-5.1,4.78-2.22.97-4.87,1.46-7.97,1.46Z"/>
    <path class="st0" d="M276.05,46.89V9.83h19.45c2.3,0,4.21.45,5.73,1.35,1.51.9,2.65,2.11,3.4,3.62.76,1.51,1.13,3.22,1.13,5.13,0,2.7-.63,4.96-1.89,6.78-1.26,1.82-2.85,3.05-4.75,3.7l7.94,16.48h-3.24l-7.67-15.94h-17.18v15.94h-2.92ZM278.96,28.37h16.1c2.41,0,4.31-.76,5.7-2.27,1.39-1.51,2.08-3.59,2.08-6.22,0-1.55-.29-2.87-.86-3.97-.58-1.1-1.44-1.95-2.59-2.57-1.15-.61-2.59-.92-4.32-.92h-16.1v15.94Z"/>
    <path class="st0" d="M324.24,46.89V9.83h19.45c2.3,0,4.21.45,5.73,1.35,1.51.9,2.65,2.11,3.4,3.62s1.13,3.22,1.13,5.13c0,2.7-.63,4.96-1.89,6.78-1.26,1.82-2.85,3.05-4.75,3.7l7.94,16.48h-3.24l-7.67-15.94h-17.18v15.94h-2.92ZM327.15,28.37h16.1c2.41,0,4.31-.76,5.7-2.27,1.39-1.51,2.08-3.59,2.08-6.22,0-1.55-.29-2.87-.86-3.97-.58-1.1-1.44-1.95-2.59-2.57-1.15-.61-2.59-.92-4.32-.92h-16.1v15.94Z"/>
    <path class="st0" d="M372.43,46.89V9.83h2.92v37.06h-2.92ZM372.64,7.13l5.02-7.13h3.78l.05.16-6.1,6.97h-2.76Z"/>
    <path class="st0" d="M409.43,47.54c-3.78,0-6.96-.72-9.53-2.16-2.57-1.44-4.52-3.58-5.83-6.43-1.32-2.85-1.97-6.37-1.97-10.59,0-6.34,1.53-11.12,4.59-14.34,3.06-3.22,7.35-4.84,12.86-4.84,3.28,0,6.13.51,8.56,1.51s4.31,2.52,5.64,4.54c1.33,2.02,2,4.55,2,7.62h-2.92c0-2.6-.53-4.7-1.59-6.32-1.06-1.62-2.59-2.82-4.59-3.59-2-.78-4.4-1.16-7.21-1.16s-5.24.54-7.4,1.62c-2.16,1.08-3.85,2.81-5.05,5.18-1.21,2.38-1.81,5.55-1.81,9.51v1.13c0,3.78.6,6.83,1.81,9.13,1.21,2.31,2.89,3.98,5.05,5.03,2.16,1.04,4.65,1.56,7.45,1.56s5.16-.39,7.16-1.16c2-.77,3.54-1.97,4.62-3.59,1.08-1.62,1.62-3.73,1.62-6.32h2.86c0,3.13-.7,5.71-2.11,7.72-1.41,2.02-3.33,3.51-5.78,4.48-2.45.97-5.26,1.46-8.43,1.46Z"/>
    <path class="st0" d="M456.81,47.54c-3.03,0-5.62-.49-7.78-1.46-2.16-.97-3.83-2.57-5-4.78-1.17-2.21-1.76-5.14-1.76-8.78V9.83h2.97v24.1c0,3.68,1.02,6.42,3.05,8.24,2.03,1.82,4.87,2.73,8.51,2.73s6.68-.91,8.81-2.73c2.12-1.82,3.19-4.56,3.19-8.24V9.83h2.86v22.69c0,3.64-.59,6.56-1.78,8.78-1.19,2.21-2.89,3.81-5.1,4.78-2.22.97-4.87,1.46-7.97,1.46Z"/>
    <path class="st0" d="M490.52,46.89V9.83h2.92v34.47h18.26v2.59h-21.18Z"/>
    <path class="st0" d="M538.23,47.54c-3.03,0-5.62-.49-7.78-1.46-2.16-.97-3.83-2.57-5-4.78-1.17-2.21-1.76-5.14-1.76-8.78V9.83h2.97v24.1c0,3.68,1.02,6.42,3.05,8.24,2.03,1.82,4.87,2.73,8.51,2.73s6.68-.91,8.81-2.73c2.12-1.82,3.19-4.56,3.19-8.24V9.83h2.86v22.69c0,3.64-.59,6.56-1.78,8.78-1.19,2.21-2.89,3.81-5.1,4.78-2.22.97-4.87,1.46-7.97,1.46Z"/>
    <path class="st0" d="M571.94,46.89V9.83h4.27l11.51,28.09c.21.54.44,1.12.68,1.73.23.61.45,1.18.65,1.7.2.52.35.96.46,1.32h.27c.18-.5.39-1.06.62-1.67.23-.61.46-1.2.67-1.75.22-.56.38-1,.49-1.33l11.51-28.09h4.27v37.06h-2.92v-25.17c0-.51,0-1.21.03-2.11.02-.9.04-1.86.06-2.86.02-1.01.03-1.91.03-2.7h-.38c-.18.68-.37,1.32-.57,1.89-.2.58-.4,1.12-.59,1.62-.2.51-.41,1.01-.62,1.51l-11.72,27.82h-2l-11.72-27.82c-.22-.51-.42-1.01-.62-1.51-.2-.51-.4-1.05-.59-1.62-.2-.57-.39-1.21-.57-1.89h-.38c.03.65.05,1.44.05,2.38s0,1.87.03,2.81c.02.93.03,1.76.03,2.49v25.17h-2.92Z"/>
  </g>
  <path class="st0" d="M5.13,96.16h0c1.82.03,3.36,1.29,3.84,3.04,13.85,50.67,78.43,69.95,117.17,32,11.85-11.61,31.38-45.53,6-52.62-16.68-4.66-18.73,13.94-24.72,22.79-11.38,16.8-33.65,21.65-50.68,10.18-3.27-2.2-15.38-12.56-9.45-16.6,7.07-4.81,8.06,3.26,12.06,6.58,7.37,6.11,17.82,7.05,26.95,4.65,20.87-5.49,12.38-37.56,41.61-38.16,27.82-.57,30.97,28.26,21.06,48.99-21.45,44.89-81.97,57.51-121.01,27.03-11.92-9.3-26.49-27.75-26.93-43.85-.06-2.25,1.86-4.05,4.1-4.02Z"/>
  <path class="st1" d="M148.96,64.55h0c-1.82-.03-3.36-1.29-3.84-3.04C131.27,10.84,66.69-8.44,27.96,29.51c-11.85,11.61-31.38,45.53-6,52.62,16.68,4.66,18.73-13.94,24.72-22.79,11.38-16.8,33.65-21.65,50.68-10.18,3.27,2.2,15.38,12.56,9.45,16.6-7.07,4.81-8.06-3.26-12.06-6.58-7.37-6.11-17.82-7.05-26.95-4.65-20.87,5.49-12.38,37.56-41.61,38.16-27.82.57-30.97-28.26-21.06-48.99C26.58-1.17,87.1-13.8,126.14,16.68c11.92,9.3,26.49,27.75,26.93,43.85.06,2.25-1.86,4.05-4.1,4.02Z"/>
  <g>
    <path class="st0" d="M230.78,97.39c0,2.39-.91,4.5-2.72,6.34-1.82,1.83-3.92,2.75-6.3,2.75-1.36,0-3.81-1.24-7.37-3.74-3.56-2.49-6.91-3.74-10.06-3.74-4.44,0-8.2,1.55-11.3,4.65-3.1,3.11-4.65,6.88-4.65,11.32s1.55,8.22,4.65,11.32c3.1,3.1,6.86,4.65,11.3,4.65,3.11,0,6.45-1.23,10.01-3.69,3.56-2.45,6.01-3.68,7.37-3.68,2.38,0,4.48.91,6.3,2.72,1.81,1.82,2.72,3.92,2.72,6.3,0,2.02-.92,4.07-2.75,6.16-2.71,3.04-6.31,5.46-10.78,7.26-4.25,1.69-8.54,2.53-12.87,2.53-9.31,0-17.23-3.27-23.76-9.79-6.52-6.53-9.79-14.46-9.79-23.77s3.26-17.24,9.79-23.77c6.53-6.53,14.44-9.79,23.76-9.79,4.25,0,8.54.86,12.87,2.59,4.54,1.8,8.15,4.21,10.83,7.22,1.83,2.09,2.75,4.15,2.75,6.17Z"/>
    <path class="st0" d="M298.68,114.98c0,9.32-3.26,17.24-9.79,23.77-6.53,6.53-14.44,9.79-23.75,9.79s-17.23-3.26-23.76-9.79c-6.52-6.52-9.79-14.44-9.79-23.76,0-7.55,2.27-14.32,6.82-20.31,4.55-6,10.47-10,17.76-12.01-2.31-.15-4.25-1.13-5.83-2.94-1.58-1.81-2.36-3.89-2.36-6.24,0-3.41,1.65-5.94,4.95-7.58l16.5-8.25c1.39-.69,2.8-1.04,4.23-1.04,2.38,0,4.42.93,6.1,2.77,1.68,1.85,2.53,3.98,2.53,6.4,0,3.22-1.65,5.75-4.96,7.58-4.32,2.38-9.93,5.19-16.82,8.42,1.54-.25,3.08-.38,4.62-.38,9.31,0,17.23,3.27,23.76,9.79,6.53,6.53,9.79,14.45,9.79,23.77Z"/>
    <path class="st0" d="M345.86,96.68c0,2.38-.94,4.43-2.8,6.14-1.87,1.71-4.01,2.56-6.43,2.56-2.2,0-4.31-1.06-6.32-3.19-2.02-2.13-3.39-3.19-4.12-3.19-2.38,0-3.58,1.19-3.58,3.58v37.16c0,2.57-.83,4.68-2.47,6.33-1.65,1.65-3.76,2.48-6.32,2.48s-4.67-.82-6.32-2.47c-1.65-1.65-2.47-3.76-2.47-6.33v-49.52c0-2.57.82-4.68,2.47-6.33,1.65-1.65,3.76-2.47,6.32-2.47,1.87,0,3.52.47,4.95,1.43,2.38-.95,4.86-1.43,7.42-1.43,3.74,0,7.28.97,10.61,2.9,3.34,1.93,5.9,4.51,7.7,7.74.92,1.66,1.37,3.19,1.37,4.63Z"/>
    <path class="st0" d="M413.82,139.75c0,2.56-.83,4.67-2.47,6.32-1.65,1.65-3.76,2.47-6.32,2.47-3.7,0-6.32-1.52-7.86-4.56-5.2,3.04-10.83,4.56-16.88,4.56-9.31,0-17.23-3.27-23.75-9.79-6.52-6.53-9.79-14.46-9.79-23.77s3.26-17.24,9.79-23.77c6.52-6.53,14.44-9.79,23.75-9.79,5.68,0,11,1.36,15.95,4.07v-19.96c0-2.57.83-4.68,2.47-6.33,1.65-1.65,3.76-2.47,6.32-2.47s4.67.83,6.32,2.47c1.65,1.65,2.47,3.76,2.47,6.33v74.23Z"/>
    <path class="st0" d="M487.18,114.98c0,9.36-3.25,17.29-9.76,23.8-6.51,6.51-14.43,9.77-23.78,9.77s-17.28-3.26-23.78-9.77c-6.51-6.51-9.76-14.44-9.76-23.8s3.25-17.29,9.76-23.8c6.51-6.51,14.43-9.77,23.78-9.77s17.27,3.26,23.78,9.77c6.51,6.51,9.76,14.44,9.76,23.8Z"/>
    <path class="st0" d="M557.83,114.98c0,9.32-3.26,17.24-9.79,23.77-6.53,6.53-14.44,9.79-23.76,9.79s-17.23-3.25-23.75-9.76c-6.52-6.51-9.79-14.42-9.79-23.73v-49.54c0-2.57.82-4.68,2.47-6.33,1.65-1.65,3.76-2.47,6.32-2.47s4.67.83,6.32,2.47c1.65,1.65,2.47,3.76,2.47,6.33v19.96c4.95-2.71,10.26-4.07,15.95-4.07,9.31,0,17.23,3.27,23.76,9.79,6.52,6.53,9.79,14.45,9.79,23.77Z"/>
    <path class="st0" d="M609.3,139.74c0,2.57-.83,4.68-2.47,6.33-1.65,1.65-3.76,2.47-6.32,2.47-2.42,0-4.45-.73-6.1-2.2-2.82,1.47-6.29,2.2-10.39,2.2-7.11,0-13.01-1.94-17.71-5.83-5.06-4.17-7.59-9.75-7.59-16.71s2.53-12.54,7.59-16.72c4.69-3.88,10.59-5.83,17.71-5.83,2.86,0,5.42.37,7.7,1.1v-.55c0-2.14-.75-3.97-2.25-5.48-1.5-1.51-3.32-2.27-5.44-2.27-1.54,0-3.56.92-6.05,2.75-2.49,1.83-4.67,2.75-6.54,2.75-2.09,0-3.92-.66-5.5-1.99-1.69-1.4-2.53-3.11-2.53-5.13,0-1.91.92-3.84,2.75-5.79,4.66-4.96,10.61-7.44,17.87-7.44s12.97,2.47,17.9,7.4c4.93,4.94,7.4,10.9,7.4,17.91v33.02Z"/>
  </g>
</svg>