<?xml version="1.0" encoding="UTF-8"?>
<svg id="Capa_1" xmlns="http://www.w3.org/2000/svg" version="1.1" viewBox="0 0 121.9 39.7">
  <!-- Generator: Adobe Illustrator 29.2.1, SVG Export Plug-In . SVG Version: 2.1.0 Build 116)  -->
  <defs>
    <style>
      .st0 {
        fill: #bbce00;
      }

      .st1 {
        fill: #00a7e5;
      }

      .st2 {
        fill: #891e81;
      }

      .st3 {
        fill: #0084c7;
      }

      .st4 {
        fill: #fff;
      }

      .st5 {
        fill: #b53672;
      }

      .st6 {
        fill: #faba20;
      }

      .st7 {
        fill: #ed7225;
      }

      .st8 {
        fill: #13a438;
      }

      .st9 {
        fill: #e63346;
      }

      .st10 {
        display: none;
      }

      .st11 {
        fill: #86bc25;
      }
    </style>
  </defs>
  <g>
    <polygon class="st4" points="31.2 22.2 32.9 22.2 32.9 16.7 34.7 16.7 34.7 15.3 29.4 15.3 29.4 16.7 31.2 16.7 31.2 22.2"/>
    <path class="st4" d="M37.8,17.3h0c-.2,0-.4,0-.5,0-.2,0-.3.1-.5.2-.1.1-.3.2-.4.4h0v-.6h-1.5v4.7h1.5v-2.1c0-.2,0-.4.1-.5,0-.2.2-.3.4-.4.2,0,.4-.1.6-.1h.3v-1.6Z"/>
    <path class="st4" d="M43.1,22.2v-4.7h-1.5v.5h0c-.3-.4-.8-.6-1.3-.6s-.6,0-.9.2c-.3.1-.5.3-.7.5-.2.2-.3.5-.5.8-.1.3-.2.6-.2,1s0,.7.2,1c.1.3.3.6.5.8.2.2.4.4.7.5s.6.2.9.2c.6,0,1-.2,1.3-.6h0v.5h1.4ZM41.3,20.6h0c-.2.2-.4.3-.7.3s-.5-.1-.7-.3c-.2-.2-.3-.5-.3-.8s0-.6.3-.8c.2-.2.4-.3.7-.3s.4,0,.5.1c.2,0,.3.2.4.4,0,.2.1.4.1.6,0,.3,0,.6-.3.8Z"/>
    <path class="st4" d="M47.2,22.2h1.5v-2.8c0-.4,0-.7-.1-.9,0-.3-.2-.5-.4-.6-.2-.1-.3-.3-.5-.3-.2,0-.4-.1-.7-.1s-.5,0-.8.2c-.2.1-.5.3-.7.5v-.6h-1.5v4.7h1.5v-2.4c0-.2,0-.4.1-.6,0-.2.2-.3.3-.4.1,0,.3-.1.5-.1s.3,0,.4,0,.2.2.2.3c0,.2,0,.4,0,.6v2.5Z"/>
    <path class="st4" d="M52,22.1c.2,0,.5-.2.6-.3.1-.1.3-.3.3-.5,0-.2.1-.4.1-.6s0-.2,0-.3c0,0,0-.2,0-.2,0,0,0-.1,0-.2,0,0,0-.1-.1-.2,0,0-.1,0-.2-.1,0,0-.1,0-.2-.1,0,0-.2,0-.2-.1,0,0-.1,0-.2-.1,0,0-.2,0-.3-.1,0,0-.2,0-.3-.1-.2,0-.4-.2-.5-.2,0,0-.1-.1-.1-.2s0-.1.1-.2c0,0,.1,0,.2,0,.2,0,.3,0,.5.1.2,0,.4.2.5.4l.7-1.1c-.2-.1-.4-.2-.5-.3-.2,0-.4-.2-.6-.2-.2,0-.4,0-.6,0-.3,0-.6,0-.9.2s-.5.3-.6.5c-.2.2-.2.5-.2.8s0,.2,0,.4c0,.1,0,.2.1.3,0,0,.1.2.2.3s.2.2.2.2c0,0,.2.1.3.2.1,0,.2,0,.3.1,0,0,.2,0,.3.1.3,0,.5.2.6.2.1,0,.2.1.2.2s0,.1,0,.1c0,0,0,0-.1,0,0,0-.1,0-.2,0-.4,0-.9-.2-1.2-.5l-.7,1h0c.5.5,1.2.7,2,.7s.6,0,.8-.1Z"/>
    <polygon class="st4" points="58.1 18.3 55.5 18.3 55.5 16.7 58.6 16.7 58.6 15.3 53.9 15.3 53.9 22.2 55.5 22.2 55.5 19.7 58.1 19.7 58.1 18.3"/>
    <path class="st4" d="M65.8,20.2c.2-.4.3-.9.3-1.4s0-1-.3-1.4-.4-.8-.7-1.1-.7-.5-1.1-.7c-.4-.2-.9-.3-1.4-.3s-1,0-1.4.3-.8.4-1.1.7-.5.7-.7,1.1c-.2.4-.3.9-.3,1.4s0,1,.3,1.4c.2.4.4.8.7,1.1s.7.6,1.1.7h0c.4.2.9.3,1.4.3s1,0,1.4-.3c.4-.2.8-.4,1.1-.7s.5-.7.7-1.1ZM64.2,19.7c-.2.3-.4.5-.7.7-.3.2-.6.3-1,.3s-.7,0-1-.3c-.3-.2-.5-.4-.7-.7-.1-.3-.2-.7-.2-1s0-.7.2-1c.2-.3.4-.5.7-.7.3-.2.6-.3,1-.3s.7,0,1,.3c.3.2.5.4.7.7.1.3.2.6.2,1s0,.7-.2,1Z"/>
    <path class="st4" d="M72.5,22.2l-1.6-2.4h0c.4-.2.7-.4,1-.8.2-.3.3-.8.3-1.3s0-.7-.2-1-.2-.5-.4-.8c-.2-.2-.5-.4-.8-.5s-.7-.2-1.1-.2h-2.7v6.9h1.6v-2.2h.6l1.4,2.2h0s1.9,0,1.9,0ZM70.2,18.3c-.2.2-.5.2-.8.2h-.8s0-1.8,0-1.8h.8c.3,0,.6,0,.8.2.2.2.3.4.3.7s0,.5-.3.7Z"/>
    <polygon class="st4" points="76.8 18.9 76.7 18.9 74.8 15.3 73.2 15.3 73.2 22.2 74.8 22.2 74.8 18.4 74.8 18.4 76.2 20.9 77.3 20.9 78.7 18.4 78.7 18.4 78.7 22.2 80.3 22.2 80.3 15.3 78.7 15.3 76.8 18.9"/>
    <path class="st4" d="M85,15.3h-1.5l-2.5,6.9h1.7l.4-1.2h2.4l.4,1.2h1.7l-2.5-6.9ZM83.5,19.6l.8-2.3h0l.8,2.3h-1.5Z"/>
    <path class="st4" d="M91.8,22.2h1.9l-1.6-2.4h0c.4-.2.7-.4,1-.8.2-.3.3-.8.3-1.3s0-.7-.2-1c0-.3-.2-.5-.4-.8-.2-.2-.5-.4-.8-.5-.3-.1-.7-.2-1.1-.2h-2.7v6.9h1.6v-2.2h.6l1.4,2.2h0ZM91.4,18.3c-.2.2-.5.2-.8.2h-.8s0-1.8,0-1.8h.8c.4,0,.6,0,.8.2.2.2.3.4.3.7s-.1.5-.3.7Z"/>
    <path class="st4" d="M97.8,22.7c-.4,0-.7,0-1-.2-.3-.1-.6-.3-.9-.6-.2-.2-.4-.6-.6-.9-.1-.4-.2-.7-.2-1.1s0-.4,0-.6,0-.4.2-.6c0-.2.2-.4.3-.6s.3-.4.5-.5.4-.3.6-.4c.2-.1.5-.2.8-.3.3,0,.6-.1.9-.1s.8,0,1.2.2c.3.1.6.3.8.6.2.2.4.5.5.9s.2.7.2,1,0,.3,0,.4c0,.2,0,.3-.2.5,0,.2-.2.3-.3.4-.1.1-.2.2-.4.2s-.2,0-.2,0,0-.2,0-.3,0-.1,0-.2h0s.3-2.6.3-2.6h-1.5v.4h0c-.2-.3-.6-.5-1-.5s-.3,0-.5,0c-.1,0-.3,0-.4.2-.1,0-.2.2-.3.3,0,.1-.2.2-.2.3s-.1.2-.2.4c0,.1,0,.2-.1.4s0,.2,0,.4c0,.1,0,.2,0,.3,0,.5.2,1,.4,1.3.3.3.7.5,1.1.5s.4,0,.6-.2c.2,0,.4-.2.5-.4h0c0,.2.2.3.3.4.2.1.5.2.9.2s.5,0,.7,0c.2,0,.4-.2.6-.2.1,0,.3-.2.4-.4.1-.1.2-.3.3-.4s.1-.3.2-.5c0-.2,0-.3.1-.5,0-.1,0-.3,0-.4,0-.4,0-.8-.2-1.1-.1-.4-.3-.7-.5-1-.2-.3-.4-.5-.7-.8-.3-.2-.6-.4-1-.5-.4-.1-.8-.2-1.3-.2s-.8,0-1.2.1c-.4,0-.7.2-1,.4-.3.2-.5.4-.8.6-.2.2-.4.5-.6.7s-.3.5-.4.8c-.1.3-.2.5-.2.8s0,.5,0,.7c0,.5,0,1.1.3,1.5.2.5.4.9.8,1.2.3.3.7.6,1.2.8s.9.3,1.5.3c.8,0,1.6-.2,2.4-.8l-.4-.7c-.7.4-1.3.5-1.9.5ZM98.5,20.2h0c-.2.2-.3.3-.5.3s-.2,0-.3,0c0,0-.2-.1-.2-.2,0-.1,0-.2,0-.4s0-.3.1-.5c0-.1.2-.2.3-.3.1,0,.2-.1.4-.1s.3,0,.4.2c.1.1.2.3.2.5s0,.5-.2.7Z"/>
    <path class="st4" d="M104.7,17.6c0-.1.2-.3.3-.4s.2-.2.4-.3c.1,0,.3-.1.4-.2.2,0,.3,0,.5,0,.3,0,.6,0,.9.2.3.2.5.3.7.6l1.2-1c-.2-.3-.5-.6-.8-.8-.3-.2-.6-.4-1-.4-.3,0-.6-.1-1-.1s-.9,0-1.2.2-.7.3-1,.5c-.3.2-.5.5-.7.8-.2.3-.3.6-.5,1,0,.4-.1.7-.1,1.1s0,.9.2,1.2c.1.4.3.7.5,1,.2.3.5.5.8.7s.6.3,1,.4h0c.3,0,.7.1,1.1.1.6,0,1.1-.1,1.6-.4.5-.2.9-.6,1.2-1l-1.2-1c-.2.2-.4.4-.7.6-.3.2-.6.2-.9.2s-.7,0-1-.3c-.3-.2-.5-.4-.7-.7s-.2-.6-.2-1,0-.4,0-.6c0-.2.1-.4.2-.5Z"/>
    <path class="st4" d="M114.2,21.6c.4-.4.6-1,.6-1.8s0-.7-.2-1c-.1-.3-.3-.6-.4-.8-.2-.2-.4-.4-.7-.5h0c-.3-.1-.5-.2-.9-.2-.5,0-1,.2-1.3.6h0v-2.9h-1.5v7.1h1.4v-.5h0c.3.4.8.6,1.3.6s1.2-.2,1.6-.7ZM111.8,20.8c-.1,0-.2-.1-.3-.2,0,0-.2-.2-.2-.4s0-.3,0-.5c0-.3,0-.6.3-.8.2-.2.5-.3.8-.3s.5,0,.7.3c.2.2.3.5.3.8s0,.6-.3.8h0c-.2.2-.4.3-.7.3s-.3,0-.4,0Z"/>
    <path class="st4" d="M118.8,17.4v.5h0c-.3-.4-.8-.6-1.3-.6s-.6,0-.8.2c-.3.1-.5.3-.7.5-.2.2-.3.5-.5.8s-.2.6-.2,1,0,.7.2,1,.3.6.5.8c.2.2.4.4.7.5.3.1.6.2.9.2.6,0,1-.2,1.3-.6h0v.5h1.4v-4.7h-1.5ZM118.6,20.6h0c-.2.2-.4.3-.7.3s-.5-.1-.7-.3c-.2-.2-.3-.5-.3-.8s0-.6.3-.8c.2-.2.4-.3.7-.3s.4,0,.5.1c.2,0,.3.2.4.4,0,.2.1.4.1.6,0,.3-.1.6-.3.8Z"/>
    <rect class="st4" x="30.8" y="25.5" width=".5" height="4"/>
    <polygon class="st4" points="35.6 28.6 33.3 25.5 32.9 25.5 32.9 29.4 33.3 29.4 33.3 26.3 33.4 26.3 35.6 29.4 36.1 29.4 36.1 25.5 35.6 25.5 35.6 28.6"/>
    <polygon class="st4" points="40.4 28.6 38.1 25.5 37.7 25.5 37.7 29.4 38.2 29.4 38.2 26.3 38.2 26.3 40.4 29.4 40.9 29.4 40.9 25.5 40.4 25.5 40.4 28.6"/>
    <path class="st4" d="M44.3,25.4c-1.2,0-2,.8-2,2s.9,2,2,2,2-.8,2-2-.8-2-2-2ZM44.3,29c-.9,0-1.5-.7-1.5-1.6s.7-1.6,1.5-1.6,1.5.6,1.5,1.6-.6,1.6-1.5,1.6Z"/>
    <polygon class="st4" points="48.8 28.7 47.6 25.5 47.1 25.5 48.6 29.4 49.1 29.4 50.6 25.5 50 25.5 48.8 28.7"/>
    <path class="st4" d="M52.6,25.5l-1.5,4h.5l.3-1h1.8l.4,1h.5l-1.5-4h-.5ZM52.1,28l.7-2h0l.7,2h-1.5Z"/>
    <polygon class="st4" points="58.5 28.6 56.2 25.5 55.8 25.5 55.8 29.4 56.3 29.4 56.3 26.3 56.3 26.3 58.5 29.4 59 29.4 59 25.5 58.5 25.5 58.5 28.6"/>
    <path class="st4" d="M61.8,25.5h-1.2v4h1.2c1.3,0,2.1-.8,2.1-2s-.8-2-2.1-2ZM61.8,29h0s-.7,0-.7,0v-3.1h.7c.9,0,1.6.7,1.6,1.6s-.6,1.5-1.6,1.5Z"/>
    <path class="st4" d="M67,25.4c-1.2,0-2,.8-2,2s.9,2,2,2,2-.8,2-2-.8-2-2-2ZM67,29c-.9,0-1.5-.7-1.5-1.6s.7-1.6,1.5-1.6,1.5.6,1.5,1.6-.6,1.6-1.5,1.6Z"/>
    <polygon class="st4" points="73 27.7 74.6 27.7 74.6 27.2 73 27.2 73 25.9 74.9 25.9 74.9 25.5 72.5 25.5 72.5 29.4 75.1 29.4 75.1 29 73 29 73 27.7"/>
    <polygon class="st4" points="79 28.6 76.8 25.5 76.3 25.5 76.3 29.4 76.8 29.4 76.8 26.3 76.8 26.3 79 29.4 79.5 29.4 79.5 25.5 79 25.5 79 28.6"/>
    <polygon class="st4" points="83.7 27.7 85.3 27.7 85.3 27.2 83.7 27.2 83.7 25.9 85.6 25.9 85.6 25.5 83.2 25.5 83.2 29.4 85.7 29.4 85.7 29 83.7 29 83.7 27.7"/>
    <path class="st4" d="M88.2,25.5h-1.2v4h1.2c1.3,0,2.1-.8,2.1-2s-.8-2-2.1-2ZM88.2,29h0s-.7,0-.7,0v-3.1h.7c.9,0,1.6.7,1.6,1.6s-.6,1.5-1.6,1.5Z"/>
    <path class="st4" d="M94.2,27.8c0,.8-.4,1.2-1.1,1.2s-1.1-.5-1.1-1.2v-2.3h-.5v2.4c0,1.1.6,1.7,1.5,1.7s1.5-.6,1.5-1.7v-2.4h-.5v2.3Z"/>
    <path class="st4" d="M98,29c-.8,0-1.5-.6-1.5-1.5s.6-1.6,1.5-1.6.9.2,1.2.6l.4-.3c-.4-.5-1-.8-1.6-.8-1.3,0-2,.9-2,2,0,1.3.9,2,2,2s1.2-.3,1.6-.8l-.4-.3c-.3.3-.7.6-1.2.6Z"/>
    <polygon class="st4" points="96 27.5 96 27.5 96 27.5 96 27.5"/>
    <path class="st4" d="M102,25.5l-1.5,4h.5l.4-1h1.8l.4,1h.5l-1.5-4h-.5ZM101.5,28l.7-2h0l.7,2h-1.5Z"/>
    <path class="st4" d="M106.8,29c-.8,0-1.5-.6-1.5-1.5s.6-1.6,1.5-1.6.9.2,1.2.6l.4-.3c-.4-.5-1-.8-1.6-.8-1.3,0-2,.9-2,2,0,1.3.9,2,2,2s1.2-.3,1.6-.8l-.4-.3c-.3.3-.7.6-1.2.6Z"/>
    <polygon class="st4" points="104.8 27.5 104.8 27.5 104.8 27.5 104.8 27.5"/>
    <rect class="st4" x="109.6" y="25.5" width=".5" height="4"/>
    <path class="st4" d="M113.5,25.4c-1.2,0-2,.8-2,2s.9,2,2,2,2-.8,2-2-.8-2-2-2ZM113.5,29c-.9,0-1.5-.7-1.5-1.6s.7-1.6,1.5-1.6,1.5.6,1.5,1.6-.6,1.6-1.5,1.6Z"/>
    <polygon class="st4" points="113.2 25.1 113.7 25.1 114.4 24.3 113.9 24.3 113.2 25.1"/>
    <polygon class="st4" points="119.7 28.6 117.4 25.5 116.9 25.5 116.9 29.4 117.4 29.4 117.4 26.3 117.4 26.3 119.6 29.4 120.1 29.4 120.1 25.5 119.7 25.5 119.7 28.6"/>
    <path class="st4" d="M12.5,19.8c0,1.1,1,2.2,2.1,2.2s2.2-1.1,2.2-2.1c0-1.2-1-2.2-2.2-2.2-1.1,0-2.1,1-2.1,2.2Z"/>
    <path class="st4" d="M5.8,19.8c0-1.2-1-2.2-2.2-2.2-1.1,0-2.1,1-2.1,2.2s1,2.2,2.2,2.2,2.2-1.1,2.2-2.1Z"/>
    <path class="st4" d="M26.1,17.6c-1.1,0-2.1,1-2.1,2.2s1,2.2,2.1,2.2,2.2-1.1,2.2-2.1c0-1.2-1-2.2-2.2-2.2Z"/>
    <path class="st4" d="M14.8,10.7c1.2,0,2.2-1,2.2-2.2,0-1.1-1-2.1-2.2-2.1s-2.2,1-2.2,2.2,1.1,2.2,2.1,2.2Z"/>
    <path class="st4" d="M14.9,28.9c-1.1,0-2.2,1-2.2,2.1s1.1,2.2,2.1,2.2c1.2,0,2.2-1,2.2-2.2,0-1.1-1-2.1-2.2-2.1Z"/>
    <path class="st4" d="M10.7,23c-.5-.3-1-.5-1.6-.6,0-.2,0-.5,0-.7,0-2.4,1.2-4.3,2.5-6.2.3-.5.5-1,.6-1.5,0,0,0,0,0,0,.2,0,.5,0,.7,0,2.4,0,4.3,1.2,6.2,2.5.3.2.7.4,1,.5.4.1.8.2,1.2.2,1,0,1.9-.4,2.5-1.2,1.2-1.4,1.1-3.5-.1-4.9h0c-1.1-1.2-3.2-1.4-4.7-.3-2.6,1.7-4.6,2.4-6.7,2,0,0,0,0,0,0h0c-.1-.8-.5-1.5-1.1-2-1.4-1.2-3.5-1.1-4.9.1-1.2,1.1-1.4,3.2-.4,4.7,1.7,2.6,2.4,4.6,2,6.7,0,0,0,0,0,0-.7.1-1.4.5-1.9,1-1.2,1.4-1.3,3.5-.1,4.9,1.1,1.3,3.1,1.6,4.7.5,1.9-1.3,3.8-2.5,6.2-2.5.2,0,.5,0,.7,0,0-.4,0-.8.1-1.2-2.2.4-4.2-.3-6.8-2Z"/>
    <polygon class="st4" points="17.6 25 17.6 25 17.6 25 17.6 25"/>
    <path class="st4" d="M23.8,24c-1.3-1.9-2.5-3.8-2.5-6.2,0-.2,0-.5,0-.7-.4,0-.8,0-1.2-.2.4,2.2-.2,4.3-2,6.9-.2.3-.4.8-.5,1.2-.1.4-.2.8-.1,1.2,0,.9.4,1.8,1,2.4,1.4,1.2,3.5,1.3,4.9.1,1.3-1.1,1.6-3.1.5-4.7h0Z"/>
  </g>
  <g class="st10">
    <path class="st4" d="M44.2,14.9c-.6,0-1-.1-1.4-.3-.4-.2-.7-.5-.9-1-.2-.4-.3-1-.3-1.6,0-1,.2-1.7.7-2.2.5-.5,1.1-.7,1.9-.7s.9,0,1.3.2c.4.1.6.4.8.7.2.3.3.7.3,1.2h-.4c0-.4,0-.7-.2-1-.2-.2-.4-.4-.7-.5-.3-.1-.7-.2-1.1-.2s-.8,0-1.1.2c-.3.2-.6.4-.8.8-.2.4-.3.8-.3,1.4v.2c0,.6,0,1,.3,1.4s.4.6.8.8c.3.2.7.2,1.1.2s.8,0,1.1-.2c.3-.1.5-.3.7-.5.2-.2.2-.6.2-1h.4c0,.5-.1.9-.3,1.2-.2.3-.5.5-.9.7-.4.2-.8.2-1.3.2h0Z"/>
    <path class="st4" d="M51.4,14.9c-.5,0-.9,0-1.2-.2-.3-.2-.6-.4-.8-.7-.2-.3-.3-.8-.3-1.3v-3.4h.5v3.6c0,.6.1,1,.5,1.2.3.3.7.4,1.3.4s1-.1,1.3-.4.5-.7.5-1.2v-3.6h.4v3.4c0,.5,0,1-.3,1.3-.2.3-.4.6-.8.7-.3.2-.7.2-1.2.2h0Z"/>
    <path class="st4" d="M56.5,14.8v-5.6h2.9c.4,0,.6,0,.9.2.2.1.4.3.5.5s.2.5.2.8-.1.8-.3,1c-.2.3-.4.5-.7.6l1.2,2.5h-.5l-1.2-2.4h-2.6v2.4h-.4,0ZM56.9,12h2.4c.4,0,.7-.1.9-.3.2-.2.3-.5.3-.9s0-.4-.1-.6c0-.2-.2-.3-.4-.4-.2,0-.4-.1-.7-.1h-2.4v2.4Z"/>
    <path class="st4" d="M63.8,14.8v-5.6h2.9c.3,0,.6,0,.9.2.2.1.4.3.5.5.1.2.2.5.2.8s0,.8-.3,1c-.2.3-.4.5-.7.6l1.2,2.5h-.5l-1.2-2.4h-2.6v2.4h-.4,0ZM64.2,12h2.4c.4,0,.6-.1.9-.3.2-.2.3-.5.3-.9s0-.4-.1-.6c0-.2-.2-.3-.4-.4-.2,0-.4-.1-.6-.1h-2.4v2.4Z"/>
    <path class="st4" d="M71.1,9.2h.4v5.6h-.4v-5.6ZM71.1,8.8l.8-1.1h.6s-.9,1.1-.9,1.1h-.4Z"/>
    <path class="st4" d="M76.6,14.9c-.6,0-1.1-.1-1.4-.3-.4-.2-.7-.5-.9-1-.2-.4-.3-1-.3-1.6,0-1,.2-1.7.7-2.2.5-.5,1.1-.7,1.9-.7s.9,0,1.3.2.6.4.9.7c.2.3.3.7.3,1.2h-.4c0-.4,0-.7-.2-1-.2-.2-.4-.4-.7-.5-.3-.1-.7-.2-1.1-.2s-.8,0-1.1.2c-.3.2-.6.4-.8.8-.2.4-.3.8-.3,1.4v.2c0,.6,0,1,.3,1.4.2.3.4.6.8.8.3.2.7.2,1.1.2s.8,0,1.1-.2c.3-.1.5-.3.7-.5.2-.2.2-.6.2-1h.4c0,.5-.1.9-.3,1.2-.2.3-.5.5-.9.7-.4.2-.8.2-1.3.2h0Z"/>
    <path class="st4" d="M83.8,14.9c-.5,0-.9,0-1.2-.2-.3-.2-.6-.4-.8-.7-.2-.3-.3-.8-.3-1.3v-3.4h.5v3.6c0,.6.1,1,.5,1.2.3.3.7.4,1.3.4s1-.1,1.3-.4.5-.7.5-1.2v-3.6h.4v3.4c0,.5,0,1-.3,1.3-.2.3-.4.6-.8.7-.3.2-.7.2-1.2.2h0Z"/>
    <path class="st4" d="M88.9,9.2h.4v5.2h2.8v.4h-3.2v-5.6Z"/>
    <path class="st4" d="M96.1,14.9c-.5,0-.8,0-1.2-.2s-.6-.4-.8-.7c-.2-.3-.3-.8-.3-1.3v-3.4h.4v3.6c0,.6.2,1,.5,1.2.3.3.7.4,1.3.4s1-.1,1.3-.4.5-.7.5-1.2v-3.6h.4v3.4c0,.5,0,1-.3,1.3-.2.3-.4.6-.8.7-.3.2-.7.2-1.2.2h0Z"/>
    <path class="st4" d="M101.2,14.8v-5.6h.6l1.7,4.2c0,0,0,.2,0,.3,0,0,0,.2,0,.3s0,.2,0,.2h0c0,0,0-.2,0-.2,0,0,0-.2,0-.3,0,0,0-.1,0-.2l1.7-4.2h.6v5.6h-.4v-5h0c0,0,0,.2,0,.3,0,0,0,.2,0,.2,0,0,0,.1,0,.2l-1.8,4.2h-.3l-1.8-4.2c0,0,0-.2,0-.2,0,0,0-.2,0-.2,0,0,0-.2,0-.3h0v5h-.4,0Z"/>
    <path class="st4" d="M15.6,22.2c.3,0,.5.2.6.5,2.1,7.6,11.8,10.6,17.7,4.8,1.8-1.8,4.7-6.9.9-7.9-2.5-.7-2.8,2.1-3.7,3.4-1.7,2.5-5.1,3.3-7.7,1.5-.5-.3-2.3-1.9-1.4-2.5,1.1-.7,1.2.5,1.8,1,1.1.9,2.7,1.1,4.1.7,3.1-.8,1.9-5.7,6.3-5.8,4.2,0,4.7,4.3,3.2,7.4-3.2,6.8-12.4,8.7-18.3,4.1-1.8-1.4-4-4.2-4.1-6.6,0-.3.3-.6.6-.6h0Z"/>
    <path class="st4" d="M37.3,17.5c-.3,0-.5-.2-.6-.5-2.1-7.6-11.8-10.6-17.7-4.8-1.8,1.8-4.7,6.9-.9,7.9,2.5.7,2.8-2.1,3.7-3.4,1.7-2.5,5.1-3.3,7.7-1.5.5.3,2.3,1.9,1.4,2.5-1.1.7-1.2-.5-1.8-1-1.1-.9-2.7-1.1-4.1-.7-3.1.8-1.9,5.7-6.3,5.8-4.2,0-4.7-4.3-3.2-7.4,3.2-6.8,12.4-8.7,18.3-4.1,1.8,1.4,4,4.2,4.1,6.6,0,.3-.3.6-.6.6Z"/>
    <path class="st4" d="M50,22.4c0,.4-.1.7-.4,1-.3.3-.6.4-1,.4s-.6-.2-1.1-.6-1-.6-1.5-.6-1.2.2-1.7.7c-.5.5-.7,1-.7,1.7s.2,1.2.7,1.7c.5.5,1,.7,1.7.7s1-.2,1.5-.6c.5-.4.9-.6,1.1-.6.4,0,.7.1,1,.4s.4.6.4,1-.1.6-.4.9c-.4.5-1,.8-1.6,1.1-.6.2-1.3.4-1.9.4-1.4,0-2.6-.5-3.6-1.5-1-1-1.5-2.2-1.5-3.6s.5-2.6,1.5-3.6c1-1,2.2-1.5,3.6-1.5s1.3.1,1.9.4c.7.3,1.2.6,1.6,1.1.3.3.4.6.4.9h0Z"/>
    <path class="st4" d="M60.2,25.1c0,1.4-.5,2.6-1.5,3.6-1,1-2.2,1.5-3.6,1.5s-2.6-.5-3.6-1.5c-1-1-1.5-2.2-1.5-3.6s.3-2.2,1-3.1c.7-.9,1.6-1.5,2.7-1.8-.4,0-.6-.2-.9-.4-.2-.3-.4-.6-.4-.9,0-.5.2-.9.8-1.1l2.5-1.2c.2,0,.4-.2.6-.2.4,0,.7.1.9.4.2.3.4.6.4,1s-.2.9-.8,1.1c-.7.4-1.5.8-2.5,1.3.2,0,.5,0,.7,0,1.4,0,2.6.5,3.6,1.5,1,1,1.5,2.2,1.5,3.6h0Z"/>
    <path class="st4" d="M67.4,22.3c0,.4-.1.7-.4.9-.3.3-.6.4-1,.4s-.7-.2-1-.5c-.3-.3-.5-.5-.6-.5-.4,0-.5.2-.5.5v5.6c0,.4-.1.7-.4.9s-.6.4-1,.4-.7-.1-1-.4c-.2-.2-.4-.6-.4-1v-7.5c0-.4.1-.7.4-1s.6-.4,1-.4.5,0,.8.2c.4-.1.7-.2,1.1-.2.6,0,1.1.1,1.6.4s.9.7,1.2,1.2c.1.2.2.5.2.7h0Z"/>
    <path class="st4" d="M77.6,28.8c0,.4-.1.7-.4.9s-.6.4-1,.4c-.6,0-1-.2-1.2-.7-.8.5-1.6.7-2.5.7-1.4,0-2.6-.5-3.6-1.5-1-1-1.5-2.2-1.5-3.6s.5-2.6,1.5-3.6c1-1,2.2-1.5,3.6-1.5s1.7.2,2.4.6v-3c0-.4.1-.7.4-1,.2-.2.6-.4,1-.4s.7.1,1,.4c.2.2.4.6.4,1v11.2h0Z"/>
    <path class="st4" d="M88.7,25.1c0,1.4-.5,2.6-1.5,3.6-1,1-2.2,1.5-3.6,1.5s-2.6-.5-3.6-1.5c-1-1-1.5-2.2-1.5-3.6s.5-2.6,1.5-3.6c1-1,2.2-1.5,3.6-1.5s2.6.5,3.6,1.5c1,1,1.5,2.2,1.5,3.6Z"/>
    <path class="st4" d="M99.3,25.1c0,1.4-.5,2.6-1.5,3.6-1,1-2.2,1.5-3.6,1.5s-2.6-.5-3.6-1.5c-1-1-1.5-2.2-1.5-3.6v-7.5c0-.4.1-.7.4-.9.2-.2.6-.4,1-.4s.7.1.9.4c.2.2.4.6.4.9v3c.8-.4,1.5-.6,2.4-.6,1.4,0,2.6.5,3.6,1.5,1,1,1.5,2.2,1.5,3.6h0Z"/>
    <path class="st4" d="M107.1,28.8c0,.4-.1.7-.4,1s-.6.4-.9.4-.7-.1-.9-.3c-.4.2-1,.3-1.6.3-1.1,0-2-.3-2.7-.9-.8-.6-1.1-1.5-1.1-2.5s.4-1.9,1.1-2.5c.7-.6,1.6-.9,2.7-.9s.8,0,1.2.2h0c0-.4-.1-.7-.3-.9-.2-.2-.5-.3-.8-.3s-.5.1-.9.4c-.4.3-.7.4-1,.4s-.6-.1-.8-.3c-.2-.2-.4-.5-.4-.8s.1-.6.4-.9c.7-.8,1.6-1.1,2.7-1.1s2,.4,2.7,1.1c.7.7,1.1,1.7,1.1,2.7v5h0Z"/>
  </g>
  <g class="st10">
    <path class="st4" d="M9.7,19.8h-3.1v1.4h2.9v1.5h-2.9v1.6h3.3v1.6h-5.2v-7.7h5.1v1.6Z"/>
    <path class="st4" d="M17.3,20.2v3.6c0,1-.8,2.1-3.2,2.1h-3.3v-7.7h3.3c2.4,0,3.2,1,3.2,2.1ZM15.3,23.5v-2.9c0-.6-.5-.8-1.2-.8h-1.3v4.5h1.3c.7,0,1.2-.2,1.2-.8Z"/>
    <path class="st4" d="M20.3,18.2v5.4c0,.6.5.8,1.3.8s1.3-.2,1.3-.8v-5.4h2v5.7c0,1-.9,2.1-3.3,2.1s-3.3-1-3.3-2.1v-5.7h2Z"/>
    <path class="st4" d="M32.1,23.1v.8c0,1-.8,2.1-3.1,2.1s-3.1-1-3.1-2.1v-3.8c0-1,.8-2.1,3.1-2.1s3.1,1,3.1,2.1v.7h-1.9v-.3c0-.6-.5-.8-1.2-.8s-1.2.2-1.2.8v3.1c0,.6.5.8,1.2.8s1.2-.2,1.2-.8v-.5h1.9Z"/>
    <path class="st4" d="M37,24.5h-2.4l-.4,1.4h-1.9l2.5-7.7h2.2l2.5,7.7h-2l-.4-1.4ZM36.5,23l-.8-2.6-.8,2.6h1.5,0Z"/>
    <path class="st4" d="M45.9,23.1v.8c0,1-.8,2.1-3.1,2.1s-3.1-1-3.1-2.1v-3.8c0-1,.8-2.1,3.1-2.1s3.1,1,3.1,2.1v.7h-1.9v-.3c0-.6-.5-.8-1.2-.8s-1.2.2-1.2.8v3.1c0,.6.5.8,1.2.8s1.2-.2,1.2-.8v-.5h1.9Z"/>
    <path class="st4" d="M48.7,18.2v7.7h-2v-7.7h2Z"/>
    <path class="st4" d="M49.8,20.1c0-1,.8-2.1,3.2-2.1s3.3,1,3.3,2.1v3.8c0,1-.9,2.1-3.3,2.1s-3.2-1-3.2-2.1v-3.8ZM54.4,20.5c0-.6-.5-.8-1.3-.8s-1.3.2-1.3.8v3.1c0,.6.5.8,1.3.8s1.3-.2,1.3-.8v-3.1ZM55.1,15.9l-1.4,1.7h-1.6l.8-1.7h2.2,0Z"/>
    <path class="st4" d="M62.2,25.9l-2.9-4.1v4.1h-1.9v-7.7h1.7l2.9,4.1v-4.1h1.9v7.7h-1.7,0Z"/>
    <path class="st4" d="M5.7,13.2v2.3h-1.1v-4.5h1.2l1.1,2.5,1.1-2.5h1.2v4.5h-1.1v-2.3l-.7,1.6h-.9l-.8-1.7h0Z"/>
    <path class="st4" d="M11.2,11.9h-1.1v-.9h1.1v.9ZM11.2,15.6h-1.1v-3.3h1.1v3.3Z"/>
    <path class="st4" d="M14.2,12.2c.7,0,1.1.4,1.1,1v2.4h-1.1v-2.1c0-.2,0-.3-.3-.3s-.6.2-.8.3v2.1h-1.1v-3.3h1v.3c.3-.2.7-.4,1.2-.4h0Z"/>
    <path class="st4" d="M17.1,11.9h-1.1v-.9h1.1v.9ZM17.1,15.6h-1.1v-3.3h1.1v3.3Z"/>
    <path class="st4" d="M19.7,13.3v-.2c0-.2-.2-.2-.5-.2s-.4,0-.4.2h0c0,.2,0,.2.2.2l1,.3c.5.1.8.4.8.7v.3c0,.5-.4.9-1.6.9s-1.6-.5-1.6-.9v-.2h1v.2c0,.2.2.2.5.2s.5,0,.5-.2h0c0-.2,0-.2-.3-.3l-1-.3c-.4-.1-.8-.4-.8-.8v-.2c0-.5.3-1,1.5-1s1.5.5,1.5,1v.2h-1.1Z"/>
    <path class="st4" d="M23.7,12.3v.8h-.9v1.2c0,.3.2.3.4.3h.5v.9h-.7c-1,0-1.4-.3-1.4-1.1v-1.4h-.5v-.8h.5v-.8h1.1v.8h.9Z"/>
    <path class="st4" d="M27.3,14.2h-2.1v.4c0,.2.2.3.5.3s.5,0,.5-.3h0c0,0,1,0,1,0h0c0,.8-.4,1.2-1.5,1.2s-1.6-.4-1.6-1.1v-1.3c0-.7.5-1.1,1.6-1.1s1.6.4,1.6,1.1v.9h0ZM26.3,13.5v-.2c0-.2-.2-.3-.5-.3s-.5,0-.5.3v.2h1Z"/>
    <path class="st4" d="M30.3,12.2v1h0c-.5,0-.9.2-1.2.3v2h-1.1v-3.3h1v.4c.3-.2.6-.4,1.2-.4h0,0Z"/>
    <path class="st4" d="M31.9,11.9h-1.1v-.9h1.1v.9ZM31.9,15.6h-1.1v-3.3h1.1v3.3Z"/>
    <path class="st4" d="M32.6,13.3c0-.7.6-1.1,1.7-1.1s1.7.4,1.7,1.1v1.3c0,.7-.6,1.1-1.7,1.1s-1.7-.4-1.7-1.1v-1.3ZM34.8,13.4c0-.2-.2-.3-.6-.3s-.6,0-.6.3v1.1c0,.2.2.3.6.3s.6,0,.6-.3v-1.1Z"/>
    <path class="st4" d="M40.2,15.6v-.3c-.3.2-.7.4-1.2.4s-1.1-.4-1.1-1.1v-1.3c0-.6.4-1.1,1.1-1.1s.9.2,1.2.4v-1.6h1.1v4.6h-1,0ZM38.9,14.4c0,.2,0,.3.3.3s.6-.2.8-.3v-1c-.2,0-.5-.3-.8-.3s-.3.1-.3.3v1Z"/>
    <path class="st4" d="M45,14.2h-2.1v.4c0,.2.2.3.5.3s.5,0,.5-.3h0c0,0,1,0,1,0h0c0,.8-.4,1.2-1.5,1.2s-1.6-.4-1.6-1.1v-1.3c0-.7.5-1.1,1.6-1.1s1.6.4,1.6,1.1v.9h0ZM44,13.5v-.2c0-.2-.2-.3-.5-.3s-.5,0-.5.3v.2h1Z"/>
    <path class="st6" d="M51,28.7h-7.5l-3.4-1.1h9.5l1.4,1.1Z"/>
    <path class="st3" d="M43.5,28.7h-19.9l2.1-1.1h14.4l3.4,1.1Z"/>
    <path class="st2" d="M23.7,28.7H4.9v-1.1h20.8l-2,1.1Z"/>
    <path class="st9" d="M61.6,28.7h-10.6l-1.4-1.1h15.7l-3.7,1.1Z"/>
    <path class="st9" d="M107.1,28.7h-6.6l1.1-1.1h9.6l-4.2,1.1Z"/>
    <path class="st0" d="M117.3,28.7h-10.1l4.2-1.1h6v1.1Z"/>
    <path class="st7" d="M100.6,28.7h-19.8l10.8-1.1h10l-1.1,1.1Z"/>
    <path class="st1" d="M80.8,28.7h-9.2l-6.3-1.1h26.3l-10.8,1.1Z"/>
    <path class="st6" d="M71.6,28.7h-10l3.7-1.1,6.3,1.1Z"/>
  </g>
  <g class="st10">
    <path class="st4" d="M37.2,16.4h.9v.6c0,.3-.2.6-.9.6s-.9-.3-.9-.6v-1.1c0-.3.2-.6.9-.6s.9.3.9.6v.2h-.6c0-.2-.1-.3-.3-.3s-.3,0-.3.2v.9c0,.2.1.2.3.2s.3,0,.3-.2h0c0-.1-.4-.1-.4-.1v-.4Z"/>
    <path class="st4" d="M38.5,16c0-.3.2-.6.9-.6s.9.3.9.6v1.1c0,.3-.2.6-.9.6s-.9-.3-.9-.6v-1.1ZM39.8,16.1c0-.2-.2-.2-.4-.2s-.4,0-.4.2v.9c0,.2.2.2.4.2s.4,0,.4-.2v-.9Z"/>
    <path class="st4" d="M40.7,17.6v-2.2h.9c.6,0,.8.2.8.5v.2c0,.2,0,.3-.3.4.2,0,.4.2.4.4v.2c0,.3-.2.5-.8.5h-1ZM41.3,15.9v.4h.3c.2,0,.3,0,.3-.2h0c0-.2-.1-.2-.3-.2h-.3ZM41.3,17.2h.4c.2,0,.3,0,.3-.2h0c0-.2-.1-.3-.3-.3h-.4v.5Z"/>
    <path class="st4" d="M43.5,15.4v2.2h-.6v-2.2h.6Z"/>
    <path class="st4" d="M45.3,15.9h-.9v.4h.8v.4h-.8v.5h.9v.5h-1.5v-2.2h1.5v.5Z"/>
    <path class="st4" d="M45.7,17.6v-2.2h1c.6,0,.8.3.8.6v.3c0,.2-.1.4-.4.5l.4.9h-.6l-.4-.8h-.3v.8h-.6ZM46.3,15.9v.5h.4c.2,0,.3,0,.3-.2h0c0-.2-.1-.3-.3-.3h-.4Z"/>
    <path class="st4" d="M49.2,17.6l-.8-1.2v1.2h-.5v-2.2h.5l.8,1.2v-1.2h.5v2.2h-.5Z"/>
    <path class="st4" d="M50.1,16c0-.3.2-.6.9-.6s.9.3.9.6v1.1c0,.3-.2.6-.9.6s-.9-.3-.9-.6v-1.1ZM51.4,16.1c0-.2-.2-.2-.4-.2s-.4,0-.4.2v.9c0,.2.2.2.4.2s.4,0,.4-.2v-.9Z"/>
    <path class="st4" d="M54.8,16v1c0,.3-.2.6-.9.6h-.9v-2.2h.9c.7,0,.9.3.9.6ZM54.3,16.9v-.8c0-.2-.1-.2-.3-.2h-.4v1.3h.4c.2,0,.3,0,.3-.2Z"/>
    <path class="st4" d="M56.7,15.9h-.9v.4h.8v.4h-.8v.5h.9v.5h-1.5v-2.2h1.5v.5Z"/>
    <path class="st4" d="M58.2,15.4v1.7h.9v.5h-1.4v-2.2h.6Z"/>
    <path class="st4" d="M59.8,17.2v.4h-.7l.7-2.2h.6l.7,2.2h-.6v-.4h-.8ZM60.4,16.8l-.2-.7-.2.7h.4Z"/>
    <path class="st4" d="M62.6,16.9v.7h-.6v-2.2h1c.6,0,.8.3.8.6v.3c0,.3-.2.6-.8.6h-.4ZM62.6,15.9v.5h.4c.2,0,.3,0,.3-.2h0c0-.3-.1-.3-.3-.3h-.4Z"/>
    <path class="st4" d="M64.1,17.6v-2.2h1c.6,0,.8.3.8.6v.3c0,.2-.1.4-.4.5l.4.9h-.6l-.4-.8h-.3v.8h-.6ZM64.7,15.9v.5h.4c.2,0,.3,0,.3-.2h0c0-.2-.1-.3-.3-.3h-.4Z"/>
    <path class="st4" d="M66.2,16c0-.3.2-.6.9-.6s.9.3.9.6v1.1c0,.3-.2.6-.9.6s-.9-.3-.9-.6v-1.1ZM67.5,16.1c0-.2-.2-.2-.4-.2s-.4,0-.4.2v.9c0,.2.2.2.4.2s.4,0,.4-.2v-.9Z"/>
    <path class="st4" d="M69.3,16.9l.4-1.5h.6l-.7,2.2h-.7l-.7-2.2h.6l.4,1.5Z"/>
    <path class="st4" d="M71.1,15.4v2.2h-.6v-2.2h.6Z"/>
    <path class="st4" d="M72.8,17.6l-.8-1.2v1.2h-.5v-2.2h.5l.8,1.2v-1.2h.5v2.2h-.5Z"/>
    <path class="st4" d="M75.5,16.8v.2c0,.3-.2.6-.9.6s-.9-.3-.9-.6v-1.1c0-.3.2-.6.9-.6s.9.3.9.6v.2h-.6c0-.3-.1-.3-.3-.3s-.3,0-.3.2v.9c0,.2.1.2.3.2s.3,0,.3-.2h0c0-.1.6-.1.6-.1Z"/>
    <path class="st4" d="M76.4,15.4v2.2h-.6v-2.2h.6Z"/>
    <path class="st4" d="M77.3,17.2v.4h-.7l.7-2.2h.6l.7,2.2h-.6v-.4h-.8ZM77.8,16.8l-.2-.7-.2.7h.4Z"/>
    <path class="st4" d="M81.3,16v1c0,.3-.2.6-.9.6h-.9v-2.2h.9c.7,0,.9.3.9.6ZM80.8,16.9v-.8c0-.2-.1-.2-.3-.2h-.4v1.3h.4c.2,0,.3,0,.3-.2Z"/>
    <path class="st4" d="M83.2,15.9h-.9v.4h.8v.4h-.8v.5h.9v.5h-1.5v-2.2h1.5v.5Z"/>
    <path class="st4" d="M41.4,35.3v-.2c0-.2-.1-.3-.5-.3s-.5,0-.5.3h0c0,.2,0,.2.2.3l.9.3c.5.1.7.4.7.8v.3c0,.5-.5.9-1.6.9s-1.5-.5-1.4-.9v-.4h.9v.3c0,.2.1.3.5.3s.6,0,.6-.3h0c0-.3-.1-.3-.4-.4l-.9-.3c-.3-.1-.6-.4-.6-.7v-.3c0-.5.4-.9,1.5-.9s1.4.5,1.4.9v.2h-.9Z"/>
    <path class="st4" d="M43.3,36.6v.3c0,.2,0,.2.4.2s.4,0,.4-.2h0c0,0,.8,0,.8,0h0c0,.6-.4.9-1.3.9s-1.3-.4-1.2-.9v-1c.2-.5.6-.9,1.4-.9s1.2.4,1.2.9v.7h-1.7ZM43.4,36.1h.8c0-.3-.1-.4-.4-.4s-.4,0-.4.2h0c0,.1,0,.1,0,.1Z"/>
    <path class="st4" d="M45.3,36.9v-1c.2-.5.5-.8,1-.8s.8.2,1,.3v-.3h.9l-.3,2.8c0,.5-.5.8-1.3.8h-1.1v-.7h1.2c.2,0,.4,0,.4-.3v-.3c-.1.1-.4.3-.9.3s-.9-.3-.8-.8h0ZM46.2,36.8c0,.1,0,.2.3.2s.5-.1.7-.2v-.8c0,0-.3-.2-.5-.2s-.3.1-.3.2v.7c0,0,0,0,0,0Z"/>
    <path class="st4" d="M51.2,35.1l-.3,2.6h-.8v-.2c-.2.1-.5.3-.9.3s-.9-.3-.8-.8l.2-1.9h.9l-.2,1.7c0,.2,0,.2.3.2s.5-.1.6-.2l.2-1.7h.9Z"/>
    <path class="st4" d="M52.2,37.7h-.9l.3-2.6h.9l-.3,2.6ZM52.6,34.8h-.9v-.7h1v.7Z"/>
    <path class="st4" d="M53,35.1h.8v.2c.2-.1.5-.3.9-.3s.6.1.8.4c.2-.1.5-.4,1-.4s.9.3.8.8l-.2,1.9h-.9l.2-1.7c0-.2,0-.2-.3-.2s-.5.1-.6.2l-.2,1.7h-.9l.2-1.7c0-.2,0-.2-.3-.2s-.5.1-.6.2l-.2,1.7h-.9l.3-2.6h0Z"/>
    <path class="st4" d="M57.6,35.9c0-.5.5-.9,1.4-.9s1.3.4,1.3.9v1c-.2.5-.6.9-1.5.9s-1.3-.4-1.3-.9v-1ZM59.4,36c0-.2-.2-.2-.4-.2s-.5,0-.5.2v.8c-.1.2,0,.3.3.3s.5,0,.5-.3v-.9Z"/>
    <path class="st4" d="M62.2,36h0c0-.3-.1-.3-.4-.3s-.3,0-.4.2h0c0,.1,0,.2.1.2l.8.2c.4.1.6.3.6.6v.3c0,.4-.4.7-1.3.7s-1.2-.4-1.2-.7v-.2h.8,0c0,.3.1.3.4.3s.4,0,.4-.2h0c0-.1,0-.2-.2-.2l-.8-.2c-.3,0-.5-.3-.5-.6v-.2c0-.4.3-.7,1.2-.7s1.2.4,1.1.8h0c0,.1-.8.1-.8.1h0Z"/>
    <path class="st4" d="M65.4,34.1l-.2,1.3c.2-.1.5-.3.9-.3.6,0,.9.4.8.8l-.2,1.9h-.9l.2-1.7c0-.2,0-.2-.3-.2s-.5.1-.6.2l-.2,1.7h-.9l.4-3.6h.9Z"/>
    <path class="st4" d="M68.9,37.7v-.3c-.2.1-.5.3-.9.3s-.9-.4-.8-.8v-1c.2-.5.5-.8,1.1-.8s.8.2.9.3v-.2h.9l-.3,2.6h-.8,0ZM68.1,36.8c0,.1,0,.2.3.2s.5-.1.7-.2v-.8c0,0-.3-.2-.5-.2s-.3.1-.3.2v.7c0,0,0,0,0,0Z"/>
    <path class="st4" d="M72.9,35.9v.2h-.9,0c0-.3-.1-.3-.4-.3s-.4,0-.4.2v.9c-.1.2,0,.3.3.3s.4,0,.4-.2h0c0-.1.8-.1.8-.1v.2c0,.5-.5.8-1.3.8s-1.3-.4-1.2-.9v-1c.2-.5.6-.9,1.5-.9s1.2.4,1.2.8Z"/>
    <path class="st4" d="M73.9,37.7h-.9l.3-2.6h.9l-.3,2.6ZM74.3,34.8h-.9v-.7h1v.7Z"/>
    <path class="st4" d="M75.3,36.6v.3c0,.2,0,.2.4.2s.4,0,.4-.2h0c0,0,.8,0,.8,0h0c0,.6-.4.9-1.3.9s-1.3-.4-1.2-.9v-1c.2-.5.6-.9,1.4-.9s1.2.4,1.2.9v.7h-1.7ZM75.3,36.1h.8c0-.3-.1-.4-.4-.4s-.4,0-.4.2h0Z"/>
    <path class="st4" d="M79.3,35.1c.6,0,.9.4.8.8l-.2,1.9h-.9l.2-1.7c0-.2,0-.2-.3-.2s-.5.1-.7.2l-.2,1.7h-.9l.3-2.6h.8v.2c.2-.1.5-.3.9-.3Z"/>
    <path class="st4" d="M82.1,37.7v-.3c-.2.1-.5.3-.9.3s-.9-.4-.8-.8v-1c.2-.5.5-.8,1.1-.8s.8.2.9.3l.2-1.3h.9l-.4,3.6h-.8,0ZM81.2,36.8c0,.1,0,.2.3.2s.5-.1.7-.2v-.8c0,0-.3-.2-.5-.2s-.3.1-.3.2v.7c0,0,0,0,0,0Z"/>
    <path class="st4" d="M83.5,35.9c0-.5.5-.9,1.4-.9s1.3.4,1.3.9v1c-.2.5-.6.9-1.5.9s-1.3-.4-1.3-.9v-1ZM85.3,36c0-.2-.2-.2-.4-.2s-.5,0-.5.2v.8c-.1.2,0,.3.3.3s.5,0,.5-.3v-.9Z"/>
    <path class="st7" d="M89.5,17h0s0,0,0,0h0Z"/>
    <path class="st0" d="M89.1,21.4l-.4.8.3,10.5h0l8.6-8.8-8.5-2.5Z"/>
    <path class="st11" d="M97.3,29.1h1.1c0,0-.8-5.2-.8-5.2l-8.6,8.8h8.4s0,0,0,0v-3.5Z"/>
    <path class="st9" d="M90.7,10.2l5.2-6.3-6.7-3v.9c.1,0-1,1.4-1,1.4l-1,.4-2,5.7.2,4.9,5.4-4Z"/>
    <path class="st6" d="M90.7,10.2l6.4,12.7.4.9v.2c0,0,.1,0,.1,0l.4-.3,6.4-4.7-13.8-8.6Z"/>
    <path class="st11" d="M104.5,18.8l-6.4,4.7-.4.3h0s.2.1.2.1l4.2,1.5,3.5-5.2-1-1.5Z"/>
    <path class="st1" d="M103.4,5h-1.4l-.7-.6v-1.3c0,0-1.1-1.5-1.1-1.5l-4.3,2.3,7.6,8.7,1.1-5.2-1.3-2.5Z"/>
    <path class="st7" d="M89.1,21.4l8.5,2.5-6.9-13.7-5.4,4,1.7.9.7.4.4,1.4,1.3.3h0s-.4,4.4-.4,4.4Z"/>
    <path class="st5" d="M104.2,16.8l-.9-1.1-.2-2.7.5-.4-7.6-8.7-5.2,6.3,13.8,8.6-.3-2Z"/>
    <path class="st8" d="M97.8,24h-.2c0,0,.8,5,.8,5h.2s1,0,1,0l2.3-3.4-4.2-1.5Z"/>
    <path class="st6" d="M45.2,32.6h-4.6l-2.1-1.2h5.9l.9,1.2Z"/>
    <path class="st3" d="M40.6,32.6h-12.4l1.3-1.2h8.9l2.1,1.2Z"/>
    <path class="st2" d="M28.2,32.6h-11.7v-1.2h13l-1.3,1.2Z"/>
    <path class="st9" d="M51.8,32.6h-6.6l-.9-1.2h9.8l-2.3,1.2Z"/>
    <path class="st9" d="M80.2,32.6h-4.1l.7-1.2h6l-2.6,1.2Z"/>
    <path class="st0" d="M86.5,32.6h-6.3l2.6-1.2h3.7v1.2Z"/>
    <path class="st7" d="M76.1,32.6h-12.3l6.7-1.2h6.3l-.7,1.2Z"/>
    <path class="st1" d="M63.8,32.6h-5.8l-3.9-1.2h16.4l-6.7,1.2Z"/>
    <path class="st6" d="M58,32.6h-6.2l2.3-1.2,3.9,1.2Z"/>
    <path class="st4" d="M25.3,25.7v1.2c0,1.5-1.1,3-4.5,3s-4.5-1.5-4.5-3v-5.5c0-1.5,1.1-3,4.5-3s4.5,1.5,4.5,3v1h-2.7v-.5c0-.8-.7-1.1-1.7-1.1s-1.7.3-1.7,1.2v4.5c0,.9.7,1.2,1.7,1.2s1.7-.3,1.7-1.1v-.7h2.7Z"/>
    <path class="st4" d="M26.1,21.4c0-1.5,1.2-3,4.6-3s4.7,1.5,4.7,3v5.5c0,1.5-1.2,3-4.7,3s-4.6-1.5-4.6-3v-5.5ZM32.5,21.9c0-.9-.8-1.2-1.8-1.2s-1.8.3-1.8,1.2v4.5c0,.9.8,1.2,1.8,1.2s1.8-.3,1.8-1.2v-4.5ZM33.6,15.4l-1.9,2.5h-2.3l1.2-2.5h3.1,0Z"/>
    <path class="st4" d="M36.5,29.6v-11h4.9c3.1,0,4.2,1.4,4.2,2.9v1.3c0,1-.5,2-1.8,2.5l2,4.4h-3.1l-1.8-4h-1.6v4h-2.8ZM39.3,20.9v2.5h2c.8,0,1.5-.3,1.5-1v-.5c0-.7-.6-1-1.5-1h-2Z"/>
    <path class="st4" d="M55.8,26.7c0,1.5-1.2,3-4.6,3h-4.7v-11h4.7c3.4,0,4.6,1.5,4.6,3v5.1ZM53,26.2v-4.1c0-.9-.7-1.2-1.7-1.2h-1.9v6.4h1.9c1,0,1.7-.3,1.7-1.2h0Z"/>
    <path class="st4" d="M56.8,21.4c0-1.5,1.2-3,4.6-3s4.7,1.5,4.7,3v5.5c0,1.5-1.2,3-4.7,3s-4.6-1.5-4.6-3v-5.5ZM63.3,21.9c0-.9-.8-1.2-1.8-1.2s-1.8.3-1.8,1.2v4.5c0,.9.8,1.2,1.8,1.2s1.8-.3,1.8-1.2v-4.5Z"/>
    <path class="st4" d="M67.2,18.6h4.4c3.1,0,4.2,1.2,4.2,2.5v.8c0,.8-.4,1.5-1.3,1.9,1.2.4,1.8,1.1,1.8,2v1.1c0,1.4-1.1,2.7-4.2,2.7h-5v-11.1ZM70.1,23h1.5c.8,0,1.5-.3,1.5-1v-.4c0-.7-.7-.8-1.5-.8h-1.5v2.2ZM70.1,25.1v2.4h2.1c.8,0,1.5-.3,1.5-1v-.5c0-.6-.7-.9-1.5-.9h-2.1Z"/>
    <path class="st4" d="M82.8,27.6h-3.4l-.6,2h-2.7l3.5-11h3.2l3.5,11h-2.9l-.6-2ZM82.2,25.5l-1.1-3.7-1.1,3.7h2.2,0Z"/>
  </g>
</svg>