<?xml version="1.0" encoding="UTF-8"?>
<svg id="Capa_1" data-name="Capa 1" xmlns="http://www.w3.org/2000/svg" viewBox="0 0 539.04 539">
  <defs>
    <style>
      .cls-1 {
        fill: #094681;
      }
    </style>
  </defs>
  <path class="cls-1" d="M322.7,538.49c-6.32.93-11.78-.57-16.29-4.43-4.53-3.88-6.79-9.24-6.79-16.08,0-5,1.57-9.35,4.75-12.99,3.15-3.67,7.22-5.94,12.21-6.84,14.49-3.2,28.64-7.63,42.48-13.35,13.79-5.69,27.03-12.86,39.74-21.53,4.07-2.73,8.6-3.88,13.57-3.42,4.99.44,9.07,2.52,12.24,6.15,4.53,5.01,6.57,10.48,6.11,16.41-.46,5.91-3.18,10.69-8.17,14.36-15.39,10.48-31.35,19.15-47.88,25.98-16.53,6.84-33.85,12.06-51.98,15.73M465.39,424.27c-3.64-3.17-5.67-7.28-6.13-12.31-.43-5.01.68-9.57,3.39-13.68,8.14-12.31,15.06-25.3,20.74-38.98,5.65-13.68,10.31-28.28,13.92-43.79.9-5.01,3.39-9.08,7.46-12.28,4.07-3.2,8.6-4.79,13.6-4.79,6.32,0,11.54,2.27,15.61,6.81,4.07,4.57,5.43,10.06,4.07,16.44-3.61,18.68-9.04,36.46-16.29,53.33-7.25,16.88-15.85,32.6-25.81,47.21-3.64,4.98-8.39,7.74-14.28,8.18-5.89.46-11.32-1.59-16.29-6.15M518.37,240.99c-4.99,0-9.53-1.59-13.6-4.79-4.07-3.2-6.57-7.3-7.46-12.31-3.61-15.04-8.28-29.4-13.92-43.08-5.67-13.68-12.59-26.91-20.74-39.69-2.71-4.1-3.72-8.64-3.07-13.68.68-5.01,2.85-9.33,6.46-12.99,4.99-4.57,10.31-6.48,15.96-5.8,5.67.66,10.31,3.53,13.95,8.53,10.4,15.97,19.03,32.06,25.81,48.22,6.79,16.19,12.21,33.61,16.29,52.32,1.36,6.37.11,11.84-3.72,16.41-3.85,4.57-9.17,6.84-15.96,6.84M218.77,538.49c-63.41-12.74-115.71-44.12-156.94-94.03C20.63,394.54,0,336.28,0,269.71s20.63-124.8,61.83-174.75C103.06,45.05,155.37,13.7,218.77.93c6.35-1.37,11.78,0,16.31,4.1,4.51,4.1,6.79,9.35,6.79,15.75,0,5-1.6,9.46-4.75,13.32-3.18,3.88-7.25,6.26-12.24,7.17-53.42,11.41-97.5,38.54-132.13,81.4-34.63,42.86-51.98,91.87-51.98,147.04s17.34,104.21,51.98,147.04c34.63,42.86,78.71,69.99,132.13,81.4,4.99.9,9.07,3.31,12.24,7.19,3.15,3.86,4.75,8.31,4.75,13.32,0,6.4-2.28,11.62-6.79,15.73-4.53,4.1-9.96,5.47-16.31,4.1M399.46,76.86c-13.11-8.2-26.49-15.18-40.06-20.84-13.6-5.72-27.39-10.39-41.45-14.03-4.97-.9-9.04-3.42-12.24-7.52-3.15-4.1-4.75-8.67-4.75-13.68,0-6.4,2.17-11.52,6.46-15.43,4.32-3.86,9.64-5.11,15.96-3.72,17.21,3.64,34.2,8.75,50.97,15.37,16.75,6.62,32.82,15.15,48.21,25.65,4.99,3.64,7.84,8.42,8.52,14.36.68,5.91-1.25,11.41-5.78,16.41-3.18,3.64-7.25,5.69-12.24,6.15-4.97.44-9.53-.46-13.6-2.74M271.08,403.78c-3.61,0-7.14-.71-10.5-2.08-3.42-1.37-6.46-3.2-9.2-5.47-31.7-29.18-55.37-56.32-70.98-81.4-15.63-25.08-23.45-48.55-23.45-70.43,0-33.72,10.88-61.76,32.63-84.13,21.71-22.32,48.91-33.51,81.51-33.51s59.79,11.19,81.54,33.51c21.74,22.37,32.6,50.41,32.6,84.13,0,21.88-7.82,45.35-23.45,70.43-15.61,25.08-39.28,52.21-70.98,81.4-2.71,2.27-5.78,4.1-9.17,5.47-3.39,1.37-6.89,2.08-10.53,2.08M271.08,270.39c8.6,0,15.85-3.06,21.74-9.24,5.89-6.13,8.82-13.54,8.82-22.21s-2.93-15.97-8.82-21.88c-5.89-5.94-13.14-8.89-21.74-8.89s-15.85,2.95-21.71,8.89c-5.89,5.91-8.85,13.21-8.85,21.88s2.96,16.08,8.85,22.21c5.86,6.18,13.11,9.24,21.71,9.24"/>
</svg>