<?xml version="1.0" encoding="UTF-8"?>
<svg id="Capa_1" data-name="Capa 1" xmlns="http://www.w3.org/2000/svg" viewBox="0 0 539.04 539">
  <defs>
    <style>
      .cls-1 {
        fill: #094681;
      }
    </style>
  </defs>
  <path class="cls-1" d="M269.29,539c-37.27,0-72.26-7.08-105.02-21.23-32.79-14.11-61.29-33.3-85.5-57.54-24.24-24.24-43.43-52.74-57.57-85.5C7.06,341.97,0,306.96,0,269.69s7.06-72.25,21.2-105.01,33.33-61.26,57.57-85.5c24.21-24.24,52.71-43.43,85.5-57.54C197.04,7.5,232.02.42,269.29.42s72.26,7.08,105.02,21.22c32.76,14.11,61.26,33.3,85.5,57.54,24.24,24.24,43.43,52.74,57.57,85.5s21.2,67.77,21.2,105.01-7.06,72.28-21.2,105.04c-14.14,32.76-33.33,61.26-57.57,85.5-24.24,24.24-52.74,43.43-85.5,57.54-32.76,14.14-67.75,21.23-105.02,21.23M269.29,498.58c63.9,0,118.02-22.17,162.4-66.53,44.33-44.32,66.5-98.44,66.5-162.36s-22.18-118.01-66.5-162.34c-44.38-44.38-98.5-66.55-162.4-66.55s-118.05,22.18-162.4,66.55c-44.33,44.32-66.5,98.44-66.5,162.34s22.18,118.04,66.5,162.36c44.35,44.35,98.5,66.53,162.4,66.53"/>
  <path class="cls-1" d="M171.98,200.18c3.94,0,7.25-1.33,9.91-3.99,2.66-2.66,3.99-5.97,3.99-9.91s-1.33-7.25-3.99-9.91c-2.66-2.66-5.97-3.99-9.91-3.99s-7.22,1.33-9.91,3.99c-2.66,2.66-3.99,5.97-3.99,9.91s1.33,7.25,3.99,9.91c2.69,2.66,5.97,3.99,9.91,3.99M366.63,394.82c-9.04,0-17.16-2.61-24.32-7.82-7.19-5.21-12.19-11.89-14.96-19.98h-71.96c-15.28,0-28.36-5.46-39.28-16.34-10.88-10.88-16.31-23.99-16.31-39.28s5.43-28.39,16.31-39.27c10.91-10.88,23.99-16.34,39.28-16.34h27.82c7.65,0,14.2-2.71,19.63-8.17,5.46-5.43,8.17-12,8.17-19.62s-2.71-14.19-8.17-19.65c-5.43-5.43-11.97-8.17-19.63-8.17h-71.96c-3.01,8.12-8.03,14.77-15.12,20-7.06,5.21-15.12,7.82-24.16,7.82-11.59,0-21.42-4.07-29.53-12.19-8.12-8.09-12.16-17.94-12.16-29.53s4.04-21.44,12.16-29.53c8.12-8.11,17.94-12.19,29.53-12.19,9.04,0,17.1,2.63,24.16,7.84,7.08,5.21,12.11,11.86,15.12,19.98h71.96c15.28,0,28.39,5.46,39.28,16.34s16.34,23.97,16.34,39.27-5.46,28.36-16.34,39.28c-10.88,10.88-23.99,16.31-39.28,16.31h-27.82c-7.63,0-14.17,2.74-19.62,8.17-5.46,5.46-8.17,12-8.17,19.65s2.71,14.2,8.17,19.62c5.46,5.46,12,8.17,19.62,8.17h71.96c3.01-8.12,8.06-14.77,15.12-19.98,7.06-5.21,15.12-7.82,24.16-7.82,11.59,0,21.44,4.04,29.53,12.16,8.12,8.12,12.19,17.97,12.19,29.53s-4.07,21.44-12.19,29.56c-8.09,8.12-17.94,12.16-29.53,12.16"/>
</svg>