<?xml version="1.0" encoding="UTF-8"?>
<svg id="Capa_1" data-name="Capa 1" xmlns="http://www.w3.org/2000/svg" viewBox="0 0 538.58 538.58">
  <defs>
    <style>
      .cls-1 {
        fill: #094681;
      }
    </style>
  </defs>
  <path class="cls-1" d="M269.29,323.16c-14.82,0-27.5-5.27-38.03-15.82-10.56-10.56-15.82-23.23-15.82-38.03s5.27-27.5,15.82-38.05c10.53-10.53,23.21-15.82,38.03-15.82s27.5,5.29,38.03,15.82c10.56,10.56,15.82,23.23,15.82,38.05s-5.27,27.47-15.82,38.03c-10.53,10.56-23.21,15.82-38.03,15.82M269.29,390.47c33.66,0,62.27-11.78,85.83-35.34,23.56-23.56,35.37-52.17,35.37-85.82s-11.81-62.29-35.37-85.85c-23.56-23.56-52.17-35.34-85.83-35.34s-62.27,11.78-85.83,35.34c-23.59,23.56-35.37,52.2-35.37,85.85s11.78,62.26,35.37,85.82c23.56,23.56,52.17,35.34,85.83,35.34M269.29,430.86c-44.9,0-83.03-15.69-114.46-47.12-31.41-31.4-47.12-69.57-47.12-114.43s15.72-83.03,47.12-114.46c31.43-31.4,69.57-47.12,114.46-47.12s83.03,15.71,114.46,47.12c31.41,31.43,47.12,69.57,47.12,114.46s-15.72,83.03-47.12,114.43c-31.43,31.43-69.57,47.12-114.46,47.12M269.29,498.2c63.9,0,118.02-22.18,162.37-66.53,44.35-44.35,66.53-98.47,66.53-162.36s-22.18-118.04-66.53-162.39c-44.35-44.32-98.48-66.5-162.37-66.5s-118.02,22.17-162.37,66.5c-44.35,44.35-66.53,98.47-66.53,162.39s22.18,118.01,66.53,162.36c44.35,44.35,98.48,66.53,162.37,66.53M269.29,538.58c-37.24,0-72.26-7.06-105.02-21.2-32.76-14.14-61.26-33.33-85.5-57.57-24.24-24.24-43.43-52.74-57.57-85.5C7.06,341.56,0,306.54,0,269.31s7.06-72.25,21.2-105.04c14.14-32.76,33.33-61.26,57.57-85.5,24.24-24.21,52.74-43.4,85.5-57.54C197.04,7.08,232.05,0,269.29,0s72.26,7.08,105.02,21.22c32.76,14.14,61.26,33.33,85.5,57.54,24.24,24.24,43.43,52.74,57.57,85.5,14.14,32.79,21.2,67.77,21.2,105.04s-7.06,72.25-21.2,105.01c-14.14,32.76-33.33,61.26-57.57,85.5s-52.74,43.43-85.5,57.57-67.78,21.2-105.02,21.2"/>
</svg>