<svg width="26" height="26" viewBox="0 0 26 26" fill="none" xmlns="http://www.w3.org/2000/svg">
<path d="M-1.1365e-06 13C-1.76417e-06 5.8203 5.8203 1.76417e-06 13 1.1365e-06C20.1797 5.08827e-07 26 5.8203 26 13C26 20.1797 20.1797 26 13 26C5.8203 26 -5.08827e-07 20.1797 -1.1365e-06 13Z" fill="#EFEFEF"/>
<path d="M10.4909 19.5815C9.87809 18.9844 9.83287 17.9682 10.3899 17.3116L10.3908 17.3104L14.4703 12.5001L10.3908 7.68973C9.83309 7.03288 9.87786 6.01615 10.4907 5.4186C11.1038 4.82104 12.0527 4.86901 12.6104 5.52562L17.62 11.4286C17.8674 11.7222 18.0029 12.1045 18 12.4998C17.9984 12.8944 17.8634 13.275 17.62 13.571L12.6104 19.474C12.0532 20.1306 11.1047 20.1791 10.4918 19.5822C10.4914 19.582 10.4914 19.5818 10.4909 19.5815Z" fill="#004582"/>
</svg>
