<svg width="26" height="26" viewBox="0 0 26 26" fill="none" xmlns="http://www.w3.org/2000/svg">
<path d="M26 13C26 20.1797 20.1797 26 13 26C5.8203 26 0 20.1797 0 13C0 5.8203 5.8203 0 13 0C20.1797 0 26 5.8203 26 13Z" fill="#EFEFEF"/>
<path d="M15.5091 6.41848C16.1219 7.01556 16.1671 8.03181 15.6101 8.68842L15.6092 8.68962L11.5297 13.4999L15.6092 18.3103C16.1669 18.9671 16.1221 19.9839 15.5093 20.5814C14.8962 21.179 13.9473 21.131 13.3896 20.4744L8.38003 14.5714C8.13256 14.2778 7.99712 13.8955 8.00005 13.5002C8.00162 13.1056 8.13661 12.725 8.38003 12.429L13.3896 6.52599C13.9468 5.86938 14.8953 5.82093 15.5082 6.41776C15.5086 6.418 15.5086 6.41824 15.5091 6.41848Z" fill="#004582"/>
</svg>
