<?xml version="1.0" encoding="UTF-8"?>
<svg id="Capa_1" xmlns="http://www.w3.org/2000/svg" version="1.1" viewBox="0 0 638 55">
  <!-- Generator: Adobe Illustrator 29.5.0, SVG Export Plug-In . SVG Version: 2.1.0 Build 137)  -->
  <defs>
    <style>
      .st0 {
        fill: #fff;
      }

      .st1 {
        fill: #d9d9d9;
      }
    </style>
  </defs>
  <path class="st0" d="M591.7,45.8l.5-.2c1.2-.6,2.2-1.1,3-1.7.7-.5,1.2-1.2,1.6-2,.4-.8.6-1.9.6-3.2V15.3h10.7v22.9c0,4.4-1.1,7.7-3.3,10-2.1,2.3-5.1,4.1-8.9,5.3h-.4c0,.1-3.7-7.8-3.7-7.8ZM401.9,15.3h9.6l.3,1.9c.9-.9,1.9-1.6,2.9-2,1.4-.6,2.8-.9,4.1-.9,3.4,0,6,1.3,7.7,3.9,1.7,2.5,2.6,6.1,2.6,10.6s-.5,5.3-1.4,7.5c-.9,2.2-2.2,4-3.8,5.3-1.7,1.3-3.6,1.9-5.7,1.9s-4.1-.6-5.6-1.9v11l-10.7,1.1V15.3ZM412.6,34.1c.4.5.7.9,1.1,1.2.4.2.8.3,1.3.3,2.1,0,3.2-2.2,3.2-6.6s-.1-3.4-.4-4.4c-.3-1.1-.6-1.6-.9-1.8-.4-.3-.8-.4-1.4-.4-1.2,0-2.1.7-2.9,2.1v9.7ZM88.3,53.6c-3.5,0-6.3-.4-8.3-1.1-2-.8-3.5-1.8-4.3-3.2-.8-1.4-1.2-3-1.2-4.9v-.5h9.7v.5c0,.6,0,1,.3,1.3.2.3.6.5,1.1.6.6.2,1.6.2,3,.2,2.1,0,2.9-.3,3.2-.5.5-.3.7-.7.7-1.2s-.2-.7-.5-1c-.3-.3-1-.4-1.8-.4h-3.6c-3.1,0-5.4-.5-6.9-1.5-1.6-1.1-2.4-2.5-2.4-4.2s.3-2.2,1-3.2c.5-.8,1.1-1.4,1.9-2-1.5-.9-2.6-1.9-3.2-3-.8-1.3-1.2-2.9-1.2-4.7,0-3.3,1.2-5.8,3.5-7.6,2.3-1.8,5.4-2.7,9.3-2.7.3,0,.6,0,.9,0,2.1,0,3.9-.3,5.6-.9,1.9-.7,3.9-1.8,5.8-3l.6-.4,2.4,7.8-.4.2c-1.4.6-3.3,1-5.7,1.2,1,.6,1.7,1.2,2.3,1.9.9,1.1,1.3,2.6,1.3,4.5s-.5,3.3-1.5,4.7c-1,1.4-2.4,2.5-4.3,3.3-1.8.7-3.9,1.1-6.3,1.1s-2.1,0-2.7-.1c-.1,0-.2.2-.2.4s0,.3.3.5c.1,0,.5.3,1.8.3h3.8c2.2,0,4.2.3,5.8,1,1.7.7,3,1.7,3.9,3,.9,1.2,1.4,2.7,1.4,4.3,0,3-1.3,5.3-4,7-2.5,1.7-6.3,2.5-11,2.5ZM88.8,21.6c-.7,0-1.3.2-1.8.7-.5.5-.7,1.2-.7,2.2s.2,1.8.7,2.4c.5.5,1,.7,1.8.7,1.1,0,2.5-.3,2.5-3.2s-.2-1.7-.6-2.1c-.4-.4-1-.6-1.9-.6ZM624.6,43.5c-4.8,0-8.4-1.3-10.9-4-2.5-2.7-3.7-6.2-3.7-10.5s.5-5.1,1.5-7.3c1-2.2,2.6-4,4.6-5.3,2-1.3,4.5-2,7.4-2s5,.6,7,1.7c2,1.1,3.6,2.8,4.7,4.9,1.1,2.1,1.7,4.7,1.7,7.6s0,1.9-.2,3.1v.4h-15.8c.3,1.3.7,2.2,1.3,2.7.7.5,1.9.8,3.3.8s1.7-.2,2.6-.5c.9-.4,1.9-.9,3-1.7l.4-.3,4.5,6.1-.4.3c-3.2,2.6-7,4-11.1,4ZM626.3,25.7c0-1.4-.3-2.4-.7-3.2-.3-.7-1-1-1.9-1s-1.6.3-2,.9c-.4.6-.7,1.7-.9,3.3h5.5ZM578.7,43.5c-2.7,0-4.9-.8-6.6-2.4-1.1-1.1-1.9-2.5-2.2-4l-.6,5.5h-22.5v-7.5l10.3-11.7h-9.3v-8.1h22.1v7.4l-10.1,11.6h10c0-2.9,1.2-5.2,3.4-6.8,2.2-1.6,5.5-2.4,9.7-2.4h1.4c0-1.3-.2-2.1-.6-2.4-.3-.3-1-.6-2.7-.6s-1.7.1-2.9.4c-1.2.2-2.4.5-3.7,1l-.5.2-2.4-7.1.4-.2c1.6-.7,3.4-1.2,5.3-1.5,1.9-.4,3.7-.5,5.2-.5,4.2,0,7.3.8,9.3,2.5,2,1.7,3,4.2,3,7.6v9c0,.8,0,1.4.3,1.8.2.3.5.6,1,.7l.4.2-2.2,7h-.4c-1.8-.2-3.3-.5-4.5-1.1-1-.5-1.9-1.2-2.6-2.2-1.8,2.3-4.4,3.4-7.9,3.4ZM583.5,31.2c-1.3,0-2.2.2-2.7.6-.5.4-.8,1-.8,1.9s.2,1.1.5,1.5c.3.3.7.5,1.2.5s.9-.1,1.4-.4c.4-.2.8-.5,1-.9v-3.2h-.5ZM514.7,43.5c-3.5,0-6.1-1.3-7.9-4-1.7-2.6-2.6-6.2-2.6-10.7s.5-5.2,1.4-7.4c.9-2.2,2.3-3.9,4-5.2,1.7-1.3,3.8-1.9,6-1.9s3.7.5,5.2,1.5V4l10.7,1.1v37.4h-9.6l-.3-2c-1.9,2-4.2,3-7,3ZM518.4,22.3c-1,0-1.7.5-2.3,1.5-.6,1-1,2.8-1,5.1,0,3.5.4,4.9.8,5.5.5.8,1.2,1.2,2,1.2s2.1-.6,2.9-1.9v-10.1c-.4-.4-.7-.7-1.1-.8-.4-.2-.8-.3-1.3-.3ZM463.3,43.5c-4.8,0-8.4-1.3-10.9-4-2.5-2.7-3.7-6.2-3.7-10.5s.1-2.4.3-3.6h-.4c-.8-.4-1.6-.5-2.3-.5-1.3,0-2.2.4-2.8,1.2-.6.9-1.2,2.2-1.6,4v12.4h-10.7V15.3h9.4l.6,3.6c.5-1.1,1.3-2,2.1-2.7,1.3-1.1,2.7-1.7,4.3-1.7s1.8.2,2.8.5h.4c0,.1-1.3,8.4-1.3,8.4.2-.6.4-1.1.7-1.7,1-2.2,2.6-4,4.6-5.3,2-1.3,4.5-2,7.4-2s5,.6,7,1.7c2,1.1,3.6,2.8,4.7,4.9,1.1,2.1,1.7,4.7,1.7,7.6s0,1.9-.2,3.1v.4h-15.8c.3,1.3.7,2.2,1.3,2.7.7.5,1.9.8,3.3.8s1.7-.2,2.6-.5c.9-.4,1.9-.9,3-1.7l.4-.3,4.5,6.1-.4.3c-3.2,2.6-7,4-11.1,4ZM465,25.7c0-1.4-.3-2.4-.7-3.2-.3-.7-1-1-1.9-1s-1.6.3-2,.9c-.4.6-.7,1.7-.9,3.3h5.5ZM382.8,43.5c-2.7,0-4.9-.8-6.6-2.4-1.7-1.7-2.5-3.8-2.5-6.4s1.2-5.4,3.4-7.1c2.2-1.6,5.5-2.4,9.7-2.4h1.4c0-1.3-.2-2.1-.6-2.4-.3-.3-1-.6-2.7-.6s-1.7.1-2.9.4c-1.2.2-2.4.5-3.7,1l-.5.2-2.4-7.1.4-.2c1.6-.7,3.4-1.2,5.3-1.5,1.9-.4,3.7-.5,5.2-.5,4.2,0,7.3.8,9.3,2.5,2,1.7,3,4.2,3,7.6v9c0,.8,0,1.4.3,1.8.2.3.5.6,1,.7l.4.2-2.2,7h-.4c-1.8-.2-3.3-.5-4.5-1.1-1-.5-1.9-1.2-2.6-2.2-1.8,2.3-4.4,3.4-7.9,3.4ZM387.6,31.2c-1.3,0-2.2.2-2.7.6-.5.4-.8,1-.8,1.9s.2,1.1.5,1.5c.3.3.7.5,1.2.5s.9-.1,1.4-.4c.4-.2.8-.5,1-.9v-3.2h-.5ZM350.3,43.5c-4.8,0-8.4-1.3-10.9-4-2.5-2.7-3.7-6.2-3.7-10.5s.5-5.1,1.5-7.3c1-2.2,2.6-4,4.6-5.3,2-1.3,4.5-2,7.4-2s5,.6,7,1.7c2,1.1,3.6,2.8,4.7,4.9,1.1,2.1,1.7,4.7,1.7,7.6s0,1.9-.2,3.1v.4h-15.8c.3,1.3.7,2.2,1.3,2.7.7.5,1.9.8,3.3.8s1.7-.2,2.6-.5c.9-.4,1.9-.9,3-1.7l.4-.3,4.5,6.1-.4.3c-3.2,2.6-7,4-11.1,4ZM352,25.7c0-1.4-.3-2.4-.7-3.2-.3-.7-1-1-1.9-1s-1.6.3-2,.9c-.4.6-.7,1.7-.9,3.3h5.5ZM316.9,43.5c-3.5,0-6.1-1.3-7.9-4-1.7-2.6-2.6-6.2-2.6-10.7s.5-5.2,1.4-7.4c.9-2.2,2.3-3.9,4-5.2,1.7-1.3,3.8-1.9,6-1.9s3.7.5,5.2,1.5V4l10.7,1.1v37.4h-9.6l-.3-2c-1.9,2-4.2,3-7,3ZM320.7,22.3c-1,0-1.7.5-2.3,1.5-.6,1-1,2.8-1,5.1,0,3.5.4,4.9.8,5.5.5.8,1.2,1.2,2,1.2s2.1-.6,2.9-1.9v-10.1c-.4-.4-.7-.7-1.1-.8-.4-.2-.8-.3-1.3-.3ZM282.3,43.5c-2.3,0-4.6-.4-6.6-1.1-2.1-.8-3.8-1.8-5.2-3.2l-.4-.3,5.2-5.8.4.3c.9.8,2,1.4,3.1,1.8,1.1.4,2.2.6,3.3.6s1.4-.1,1.8-.3c.3-.2.5-.4.5-.8s0-.5-.2-.7c-.1-.1-.3-.4-1.1-.6-.7-.3-1.8-.6-3.4-1.1-5.3-1.6-8-4.6-8-9s.5-3.2,1.4-4.6c1-1.3,2.4-2.4,4.1-3.2,1.8-.8,3.9-1.2,6.4-1.2s3.9.3,5.7,1c1.8.6,3.4,1.5,4.7,2.5l.3.3-3.9,6-.4-.3c-.9-.6-1.9-1-2.9-1.3-1-.3-2.1-.5-3-.5s-1.7.2-1.7.7,0,.4.2.5c0,0,.3.2,1.2.7.7.3,1.9.7,3.5,1.2,2.7.8,4.7,1.9,6,3.3,1.4,1.3,2.1,3.2,2.1,5.6s-.6,3.6-1.7,5c-1.1,1.4-2.6,2.6-4.6,3.3-1.9.8-4.1,1.2-6.6,1.2ZM258.7,43.5c-4.8,0-8.4-1.3-10.9-4-2.5-2.7-3.7-6.2-3.7-10.5s.5-5.1,1.5-7.3c1.1-2.2,2.6-4,4.6-5.3,2-1.3,4.5-2,7.4-2s5,.6,7,1.7c2,1.1,3.6,2.8,4.7,4.9,1.1,2.1,1.7,4.7,1.7,7.6s0,1.9-.2,3.1v.4h-15.8c.3,1.3.7,2.2,1.3,2.7.7.5,1.9.8,3.3.8s1.7-.2,2.6-.5c.9-.4,1.9-.9,3-1.7l.4-.3,4.5,6.1-.4.3c-3.2,2.6-7,4-11.1,4ZM260.4,25.7c0-1.4-.3-2.4-.7-3.2-.3-.7-1-1-1.9-1s-1.6.3-2,.9c-.4.6-.7,1.7-.9,3.3h5.5ZM201.4,43.5c-4.3,0-7.8-1.3-10.3-3.8-2.5-2.5-3.7-6.2-3.7-10.8s.6-5.4,1.7-7.6c1.2-2.2,2.8-3.9,4.9-5.1,2.1-1.2,4.6-1.8,7.4-1.8,4.3,0,7.7,1.3,10.2,3.8,2.5,2.5,3.8,6.2,3.8,10.8s-.6,5.4-1.7,7.6c-1.1,2.2-2.7,3.9-4.9,5.1-2.1,1.2-4.6,1.8-7.4,1.8ZM201.4,22.3c-1,0-1.8.5-2.2,1.4-.5,1-.8,2.8-.8,5.2s.3,4.3.8,5.3c.5.9,1.2,1.3,2.2,1.3s1.8-.4,2.2-1.4c.5-1,.8-2.8.8-5.2s-.3-4.3-.8-5.3c-.5-.9-1.2-1.4-2.3-1.4ZM160.3,43.5c-2.3,0-4.6-.4-6.6-1.1-2.1-.8-3.8-1.8-5.2-3.2l-.4-.3,5.2-5.8.4.3c.9.8,2,1.4,3.1,1.8,1.1.4,2.2.6,3.3.6s1.4-.1,1.8-.3c.3-.2.5-.4.5-.8s0-.5-.2-.7c-.1-.1-.3-.4-1.1-.6-.7-.3-1.8-.6-3.4-1.1-5.3-1.6-8-4.6-8-9s.5-3.2,1.4-4.6c1-1.3,2.4-2.4,4.1-3.2,1.8-.8,3.9-1.2,6.4-1.2s3.9.3,5.7,1c1.8.6,3.4,1.5,4.7,2.5l.3.3-3.9,6-.4-.3c-.9-.6-1.9-1-2.9-1.3-1-.3-2.1-.5-3-.5s-1.7.2-1.7.7,0,.4.2.5c0,0,.3.2,1.2.7.7.3,1.9.7,3.5,1.2,2.7.8,4.7,1.9,6,3.3,1.4,1.3,2.1,3.2,2.1,5.6s-.6,3.6-1.7,5c-1.1,1.4-2.6,2.6-4.6,3.3-1.9.8-4.1,1.2-6.6,1.2ZM136.7,43.5c-4.8,0-8.4-1.3-10.9-4-2.5-2.7-3.7-6.2-3.7-10.5s.1-2.4.3-3.6h-.4c-.8-.4-1.6-.5-2.3-.5-1.3,0-2.2.4-2.8,1.2-.6.9-1.2,2.2-1.6,4v12.4h-10.7V15.3h9.4l.6,3.6c.5-1.1,1.3-2,2.1-2.7,1.3-1.1,2.7-1.7,4.3-1.7s1.8.2,2.8.5h.4c0,.1-1.3,8.4-1.3,8.4.2-.6.4-1.1.7-1.7,1.1-2.2,2.6-4,4.6-5.3,2-1.3,4.5-2,7.4-2s5,.6,7,1.7c2,1.1,3.6,2.8,4.7,4.9,1.1,2.1,1.7,4.7,1.7,7.6s0,1.9-.2,3.1v.4h-15.8c.3,1.3.7,2.2,1.3,2.7.7.5,1.9.8,3.3.8s1.7-.2,2.6-.5c.9-.4,1.9-1,3-1.7l.4-.3,4.5,6.1-.4.3c-3.2,2.6-7,4-11.1,4ZM138.4,25.7c0-1.4-.3-2.4-.7-3.2-.3-.7-1-1-1.9-1s-1.6.3-2,.9c-.4.6-.7,1.7-.9,3.3h5.5ZM60.9,43.5c-4.3,0-7.8-1.3-10.3-3.8-2.5-2.5-3.7-6.2-3.7-10.8s.1-2.4.3-3.5h-.3c-.8-.3-1.6-.5-2.3-.5-1.3,0-2.2.4-2.8,1.2-.6.9-1.2,2.2-1.6,4v12.4h-10.7V15.3h9.4l.6,3.6c.5-1.1,1.3-2,2.1-2.7,1.3-1.1,2.7-1.7,4.3-1.7s1.8.2,2.8.5h.4c0,.1-1.3,8.1-1.3,8.1.2-.6.5-1.2.8-1.8,1.2-2.2,2.8-3.9,4.9-5.1,2.1-1.2,4.6-1.8,7.4-1.8,4.3,0,7.7,1.3,10.2,3.8,2.5,2.5,3.8,6.2,3.8,10.8s-.6,5.4-1.7,7.6c-1.1,2.2-2.7,3.9-4.9,5.1-2.1,1.2-4.6,1.8-7.4,1.8ZM60.9,22.3c-1,0-1.8.5-2.2,1.4-.5,1-.8,2.8-.8,5.2s.3,4.3.8,5.3c.5.9,1.2,1.3,2.2,1.3s1.8-.5,2.2-1.4c.5-1,.8-2.8.8-5.2s-.3-4.3-.8-5.3c-.5-.9-1.2-1.4-2.3-1.4ZM534.6,42.5V15.3h10.7v27.2h-10.7ZM491.6,42.5v-18c0-1.1-.2-1.6-.3-1.7-.1-.2-.3-.3-.7-.3-.9,0-1.8.8-2.8,2.2v17.8h-10.7V15.3h9.4l.6,2.2c1-1,2.1-1.8,3.2-2.3,1.3-.6,2.8-.9,4.5-.9,2.3,0,4.2.7,5.5,2.2,1.4,1.5,2,3.5,2,6.1v19.8h-10.7ZM231.7,42.5v-18c0-1.1-.2-1.6-.3-1.7-.1-.2-.3-.3-.7-.3-.9,0-1.8.8-2.8,2.2v17.8h-10.7V15.3h9.4l.6,2.2c1-1,2.1-1.8,3.2-2.3,1.3-.6,2.8-.9,4.5-.9,2.3,0,4.2.7,5.5,2.2,1.4,1.5,2,3.5,2,6.1v19.8h-10.7ZM174.8,42.5V15.3h10.7v27.2h-10.7ZM.6,42.5V7.4h12.8c4.8,0,8.5,1,11.2,3,2.7,2,4.1,5,4.1,8.9s-1.3,7.2-3.9,9.3c-2.5,2.1-6,3.2-10.3,3.2h-2.8v10.6H.6ZM13.6,23.8c2.6,0,3.9-1.4,3.9-4.4s-1.3-4-4.2-4h-1.6v8.4h1.9ZM602.7,12.3c-1.7,0-3.1-.5-4.3-1.6-1.1-1.1-1.7-2.5-1.7-4.1s.6-3,1.7-4c1.1-1.1,2.6-1.7,4.3-1.7s3.1.6,4.2,1.7c1.1,1.1,1.7,2.4,1.7,4s-.6,3-1.7,4.1c-1.1,1.1-2.5,1.6-4.2,1.6ZM540,12.3c-1.7,0-3.1-.5-4.3-1.6-1.1-1.1-1.7-2.5-1.7-4.1s.6-3,1.7-4c1.1-1.1,2.6-1.7,4.3-1.7s3.1.6,4.2,1.7c1.1,1.1,1.7,2.4,1.7,4s-.6,3-1.7,4.1c-1.1,1.1-2.5,1.6-4.2,1.6ZM180.1,12.3c-1.7,0-3.1-.5-4.3-1.6-1.1-1.1-1.7-2.5-1.7-4.1s.6-3,1.7-4c1.1-1.1,2.6-1.7,4.3-1.7s3.1.6,4.2,1.7c1.1,1.1,1.7,2.4,1.7,4s-.6,3-1.7,4.1c-1.1,1.1-2.5,1.6-4.2,1.6Z"/>
  <path class="st1" d="M602.7,1.4c1.6,0,2.9.5,3.9,1.5,1,1,1.6,2.2,1.6,3.7s-.5,2.7-1.6,3.7c-1,1-2.3,1.5-3.9,1.5s-2.9-.5-3.9-1.5c-1-1-1.5-2.3-1.5-3.7s.5-2.7,1.5-3.7c1-1,2.4-1.5,3.9-1.5M540,1.4c1.6,0,2.9.5,3.9,1.5,1,1,1.6,2.2,1.6,3.7s-.5,2.7-1.6,3.7c-1,1-2.3,1.5-3.9,1.5s-2.9-.5-3.9-1.5c-1-1-1.5-2.3-1.5-3.7s.5-2.7,1.5-3.7c1-1,2.4-1.5,3.9-1.5M180.1,1.4c1.6,0,2.9.5,3.9,1.5,1,1,1.6,2.2,1.6,3.7s-.5,2.7-1.6,3.7c-1,1-2.3,1.5-3.9,1.5s-2.9-.5-3.9-1.5c-1-1-1.5-2.3-1.5-3.7s.5-2.7,1.5-3.7c1-1,2.4-1.5,3.9-1.5M521.3,4.6l9.7,1v36.5h-8.6l-.3-2.7c-1.9,2.4-4.3,3.7-7.4,3.7s-5.8-1.3-7.4-3.8c-1.7-2.5-2.5-6-2.5-10.4s.5-5.1,1.4-7.2c.9-2.1,2.2-3.8,3.8-4.9,1.7-1.2,3.6-1.8,5.7-1.8s4.1.7,5.7,2.1V4.6M518,36c1.4,0,2.5-.8,3.4-2.3v-10.5c-.5-.5-.9-.8-1.4-1.1-.5-.3-1-.4-1.5-.4-1.1,0-2.1.6-2.7,1.7-.7,1.1-1,2.9-1,5.4s.3,4.8.8,5.7c.6.9,1.4,1.4,2.5,1.4M323.6,4.6l9.7,1v36.5h-8.6l-.3-2.7c-1.9,2.4-4.3,3.7-7.4,3.7s-5.8-1.3-7.4-3.8c-1.7-2.5-2.5-6-2.5-10.4s.5-5.1,1.4-7.2c.9-2.1,2.2-3.8,3.8-4.9,1.7-1.2,3.6-1.8,5.7-1.8s4.1.7,5.7,2.1V4.6M320.2,36c1.4,0,2.5-.8,3.4-2.3v-10.5c-.5-.5-.9-.8-1.4-1.1-.5-.3-1-.4-1.5-.4-1.1,0-2.1.6-2.7,1.7-.7,1.1-1,2.9-1,5.4s.3,4.8.8,5.7c.6.9,1.4,1.4,2.5,1.4M13.4,7.9c4.7,0,8.3,1,10.9,2.9,2.6,1.9,3.9,4.8,3.9,8.5s-1.2,6.9-3.7,8.9c-2.5,2.1-5.8,3.1-9.9,3.1h-3.3v10.6H1.1V7.9h12.3M11.2,24.3h2.4c2.9,0,4.4-1.6,4.4-4.9s-1.6-4.5-4.7-4.5h-2.1v9.4M101.1,10.8l2.1,6.8c-1.7.8-4.2,1.2-7.4,1.2,1.8.8,3.1,1.6,3.9,2.7.8,1,1.2,2.4,1.2,4.2s-.5,3.1-1.4,4.5c-.9,1.3-2.3,2.3-4.1,3.1-1.7.7-3.8,1.1-6.1,1.1s-2.2,0-2.8-.1c-.4.2-.6.5-.6.9s.2.7.5.9c.3.2,1,.3,2.1.3h3.8c2.2,0,4,.3,5.6,1,1.6.7,2.8,1.6,3.7,2.8.9,1.2,1.3,2.5,1.3,4,0,2.8-1.3,5-3.8,6.6-2.5,1.6-6.1,2.5-10.7,2.5s-6.1-.4-8.1-1.1c-1.9-.7-3.3-1.7-4.1-3-.8-1.3-1.1-2.8-1.1-4.7h8.7c0,.7.1,1.2.4,1.6.3.4.7.6,1.4.8.7.2,1.7.2,3.1.2s2.9-.2,3.5-.6c.6-.4.9-.9.9-1.6s-.2-1-.7-1.4c-.4-.4-1.1-.5-2.1-.5h-3.6c-3,0-5.2-.5-6.7-1.4-1.4-1-2.2-2.3-2.2-3.8s.3-2,.9-2.9c.6-.9,1.4-1.7,2.4-2.3-1.8-.9-3-2-3.8-3.2-.8-1.2-1.1-2.7-1.1-4.4,0-3.1,1.1-5.5,3.3-7.3,2.2-1.7,5.2-2.6,9-2.6.3,0,.6,0,.9,0,2.1,0,4.1-.3,5.8-.9,2-.8,4-1.8,5.9-3.1M88.8,28.1c2,0,3-1.2,3-3.7s-.2-2-.7-2.5c-.5-.5-1.2-.8-2.3-.8s-1.6.3-2.2.9c-.6.6-.8,1.4-.8,2.5s.3,2.1.8,2.7c.6.6,1.3.9,2.2.9M623.5,14.9c2.6,0,4.8.5,6.8,1.6,1.9,1.1,3.4,2.6,4.5,4.7,1.1,2.1,1.6,4.5,1.6,7.4s0,1.8-.2,3.1h-15.9c.3,1.8.8,3,1.6,3.6.8.6,2.1.9,3.6.9s1.8-.2,2.8-.5c.9-.4,2-1,3.1-1.8l3.9,5.3c-3.2,2.6-6.8,3.9-10.8,3.9s-8.2-1.3-10.5-3.8c-2.4-2.6-3.6-6-3.6-10.2s.5-5,1.5-7.1c1-2.2,2.5-3.9,4.5-5.1,2-1.3,4.3-1.9,7.1-1.9M620.2,26.2h6.6v-.3c0-1.5-.3-2.7-.7-3.6-.4-.8-1.2-1.3-2.4-1.3s-1.9.4-2.5,1.1c-.5.8-.9,2.1-1,4.1M582.2,14.9c4.1,0,7.1.8,9,2.4,1.9,1.6,2.8,4,2.8,7.3v9c0,.9.1,1.6.3,2.1.2.4.6.8,1.2,1l-2,6.2c-1.8-.1-3.2-.5-4.3-1-1.1-.6-2-1.4-2.7-2.6-1.7,2.5-4.3,3.8-7.9,3.8s-4.7-.8-6.3-2.3c-1.6-1.6-2.4-3.6-2.4-6s1.1-5.1,3.2-6.7,5.3-2.3,9.4-2.3h1.9v-.6c0-1.3-.3-2.2-.8-2.6s-1.5-.7-3-.7-1.8.1-3,.4c-1.2.2-2.5.6-3.7,1l-2.1-6.2c1.6-.7,3.3-1.2,5.2-1.5,1.9-.4,3.6-.5,5.1-.5M581.6,36.2c.6,0,1.1-.1,1.6-.4.5-.3.9-.7,1.3-1.1v-3.9h-1c-1.4,0-2.4.2-3,.7s-1,1.2-1,2.3.2,1.4.6,1.8c.4.4.9.6,1.6.6M494.8,14.9c2.2,0,3.9.7,5.1,2.1,1.3,1.4,1.9,3.3,1.9,5.8v19.3h-9.7v-17.5c0-1-.1-1.6-.4-2-.2-.4-.6-.5-1.1-.5-1.1,0-2.2.9-3.3,2.6v17.5h-9.7V15.8h8.5l.7,2.7c1.2-1.3,2.4-2.2,3.7-2.8,1.3-.6,2.7-.9,4.3-.9M462.2,14.9c2.6,0,4.8.5,6.8,1.6,1.9,1.1,3.4,2.6,4.5,4.7,1.1,2.1,1.6,4.5,1.6,7.4s0,1.8-.2,3.1h-15.9c.3,1.8.8,3,1.6,3.6.9.6,2.1.9,3.6.9s1.8-.2,2.8-.5c.9-.4,2-1,3.1-1.8l3.9,5.3c-3.2,2.6-6.8,3.9-10.8,3.9s-8.1-1.3-10.5-3.8c-2.4-2.6-3.6-6-3.6-10.2s.5-5,1.5-7.1c1-2.2,2.5-3.9,4.5-5.1,2-1.3,4.3-1.9,7.1-1.9M458.9,26.2h6.6v-.3c0-1.5-.3-2.7-.7-3.6-.4-.8-1.2-1.3-2.4-1.3s-1.9.4-2.4,1.1c-.5.8-.9,2.1-1,4.1M418.9,14.9c3.2,0,5.7,1.2,7.3,3.7,1.7,2.4,2.5,5.9,2.5,10.3s-.4,5.1-1.3,7.3c-.8,2.1-2.1,3.8-3.7,5-1.6,1.2-3.4,1.8-5.4,1.8s-4.5-.9-6.1-2.6v11.8l-9.7,1V15.8h8.6l.4,2.5c1-1.2,2.2-2.1,3.5-2.7,1.3-.6,2.6-.8,3.9-.8M415,36.1c2.4,0,3.7-2.4,3.7-7.1s-.1-3.5-.4-4.6c-.3-1-.6-1.7-1.1-2.1-.4-.4-1-.5-1.7-.5-1.4,0-2.5.8-3.4,2.5v10c.4.7.9,1.1,1.3,1.4.5.3,1,.4,1.6.4M386.3,14.9c4.1,0,7.1.8,9,2.4,1.9,1.6,2.8,4,2.8,7.3v9c0,.9.1,1.6.3,2.1.2.4.6.8,1.2,1l-2,6.2c-1.8-.1-3.2-.5-4.3-1-1.1-.6-2-1.4-2.7-2.6-1.7,2.5-4.3,3.8-7.9,3.8s-4.7-.8-6.3-2.3c-1.6-1.6-2.4-3.6-2.4-6s1.1-5.1,3.2-6.7,5.3-2.3,9.4-2.3h1.9v-.6c0-1.3-.3-2.2-.8-2.6-.5-.5-1.5-.7-3-.7s-1.8.1-3,.4c-1.2.2-2.5.6-3.7,1l-2.1-6.2c1.6-.7,3.3-1.2,5.2-1.5,1.9-.4,3.6-.5,5.1-.5M385.7,36.2c.6,0,1.1-.1,1.6-.4.5-.3.9-.7,1.3-1.1v-3.9h-1c-1.4,0-2.4.2-3,.7-.7.5-1,1.2-1,2.3s.2,1.4.6,1.8c.4.4.9.6,1.6.6M349.2,14.9c2.6,0,4.8.5,6.8,1.6,1.9,1.1,3.4,2.6,4.5,4.7,1.1,2.1,1.6,4.5,1.6,7.4s0,1.8-.2,3.1h-15.9c.3,1.8.8,3,1.6,3.6.8.6,2.1.9,3.6.9s1.8-.2,2.8-.5c.9-.4,2-1,3.1-1.8l3.9,5.3c-3.2,2.6-6.8,3.9-10.8,3.9s-8.2-1.3-10.5-3.8c-2.4-2.6-3.6-6-3.6-10.2s.5-5,1.5-7.1c1-2.2,2.5-3.9,4.5-5.1,2-1.3,4.3-1.9,7.1-1.9M345.9,26.2h6.6v-.3c0-1.5-.3-2.7-.7-3.6-.4-.8-1.2-1.3-2.4-1.3s-1.9.4-2.4,1.1c-.5.8-.9,2.1-1,4.1M283.5,14.9c1.9,0,3.8.3,5.5.9,1.8.6,3.3,1.4,4.5,2.5l-3.4,5.2c-.9-.6-2-1-3-1.4-1.1-.4-2.1-.5-3.2-.5s-2.2.4-2.2,1.2,0,.6.3.8c.2.2.7.5,1.4.8.8.3,1.9.7,3.6,1.2,2.6.8,4.5,1.9,5.8,3.1,1.3,1.2,1.9,3,1.9,5.3s-.5,3.3-1.6,4.7c-1,1.4-2.5,2.4-4.4,3.2-1.9.8-4,1.1-6.4,1.1s-4.4-.4-6.5-1.1c-2-.8-3.7-1.8-5-3.1l4.6-5.1c1,.8,2,1.4,3.2,1.9,1.2.5,2.3.7,3.5.7s1.6-.1,2-.4c.5-.3.7-.7.7-1.2s-.1-.8-.3-1c-.2-.3-.6-.5-1.3-.7-.7-.3-1.8-.6-3.4-1.1-5.1-1.5-7.6-4.3-7.6-8.5s.4-3,1.3-4.3c.9-1.3,2.2-2.3,3.9-3,1.7-.8,3.8-1.1,6.2-1.1M257.6,14.9c2.6,0,4.8.5,6.8,1.6s3.4,2.6,4.5,4.7c1.1,2.1,1.6,4.5,1.6,7.4s0,1.8-.2,3.1h-15.9c.3,1.8.8,3,1.6,3.6.8.6,2.1.9,3.6.9s1.8-.2,2.8-.5c.9-.4,2-1,3.1-1.8l3.9,5.3c-3.2,2.6-6.8,3.9-10.8,3.9s-8.1-1.3-10.5-3.8c-2.4-2.6-3.6-6-3.6-10.2s.5-5,1.5-7.1c1-2.2,2.5-3.9,4.5-5.1,2-1.3,4.3-1.9,7.1-1.9M254.3,26.2h6.6v-.3c0-1.5-.3-2.7-.7-3.6-.4-.8-1.2-1.3-2.4-1.3s-1.9.4-2.5,1.1c-.5.8-.9,2.1-1,4.1M234.8,14.9c2.2,0,3.9.7,5.1,2.1,1.3,1.4,1.9,3.3,1.9,5.8v19.3h-9.7v-17.5c0-1-.1-1.6-.4-2-.2-.4-.6-.5-1.1-.5-1.1,0-2.2.9-3.3,2.6v17.5h-9.7V15.8h8.5l.7,2.7c1.2-1.3,2.4-2.2,3.7-2.8,1.3-.6,2.7-.9,4.3-.9M201.4,14.9c4.2,0,7.5,1.2,9.8,3.7,2.4,2.4,3.6,5.9,3.6,10.4s-.6,5.3-1.7,7.4c-1.1,2.1-2.6,3.8-4.7,4.9-2,1.1-4.4,1.7-7.2,1.7-4.2,0-7.5-1.2-9.9-3.7-2.4-2.4-3.6-5.9-3.6-10.4s.5-5.3,1.6-7.4c1.1-2.1,2.7-3.8,4.7-4.9,2-1.1,4.4-1.7,7.2-1.7M201.4,36c1.2,0,2.1-.6,2.7-1.7.6-1.1.8-2.9.8-5.4s-.3-4.4-.8-5.5c-.6-1.1-1.5-1.7-2.7-1.7s-2.1.6-2.7,1.7c-.6,1.1-.8,2.9-.8,5.4s.3,4.4.8,5.5c.6,1.1,1.5,1.6,2.7,1.6M161.6,14.9c1.9,0,3.8.3,5.5.9,1.8.6,3.3,1.4,4.5,2.5l-3.4,5.2c-.9-.6-2-1-3-1.4-1.1-.4-2.1-.5-3.2-.5s-2.2.4-2.2,1.2,0,.6.3.8c.2.2.7.5,1.4.8.8.3,1.9.7,3.6,1.2,2.6.8,4.5,1.9,5.8,3.1,1.3,1.2,1.9,3,1.9,5.3s-.5,3.3-1.6,4.7c-1,1.4-2.5,2.4-4.4,3.2-1.9.8-4,1.1-6.4,1.1s-4.4-.4-6.5-1.1c-2-.8-3.7-1.8-5-3.1l4.6-5.1c1,.8,2,1.4,3.2,1.9,1.2.5,2.3.7,3.5.7s1.6-.1,2-.4c.5-.3.7-.7.7-1.2s-.1-.8-.3-1c-.2-.3-.6-.5-1.3-.7-.7-.3-1.8-.6-3.4-1.1-5.1-1.5-7.6-4.3-7.6-8.5s.4-3,1.3-4.3c.9-1.3,2.2-2.3,3.9-3,1.7-.8,3.8-1.1,6.2-1.1M135.7,14.9c2.6,0,4.8.5,6.8,1.6,1.9,1.1,3.4,2.6,4.5,4.7,1.1,2.1,1.6,4.5,1.6,7.4s0,1.8-.2,3.1h-15.9c.3,1.8.8,3,1.6,3.6.8.6,2.1.9,3.6.9s1.8-.2,2.8-.5c.9-.4,2-1,3.1-1.8l3.9,5.3c-3.2,2.6-6.8,3.9-10.8,3.9s-8.2-1.3-10.5-3.8c-2.4-2.6-3.6-6-3.6-10.2s.5-5,1.5-7.1c1-2.2,2.5-3.9,4.5-5.1,2-1.3,4.3-1.9,7.1-1.9M132.4,26.2h6.6v-.3c0-1.5-.3-2.7-.7-3.6-.4-.8-1.2-1.3-2.4-1.3s-1.9.4-2.4,1.1c-.5.8-.9,2.1-1,4.1M60.9,14.9c4.2,0,7.5,1.2,9.8,3.7,2.4,2.4,3.6,5.9,3.6,10.4s-.6,5.3-1.7,7.4c-1.1,2.1-2.6,3.8-4.7,4.9-2,1.1-4.4,1.7-7.2,1.7-4.2,0-7.5-1.2-9.9-3.7-2.4-2.4-3.6-5.9-3.6-10.4s.5-5.3,1.6-7.4c1.1-2.1,2.7-3.8,4.7-4.9,2-1.1,4.4-1.7,7.2-1.7M60.9,36c1.2,0,2.1-.6,2.7-1.7.6-1.1.8-2.9.8-5.4s-.3-4.4-.8-5.5c-.6-1.1-1.5-1.7-2.7-1.7s-2.1.6-2.7,1.7c-.6,1.1-.8,2.9-.8,5.4s.3,4.4.8,5.5c.6,1.1,1.5,1.6,2.7,1.6M447.6,15c.8,0,1.7.1,2.6.4l-1.5,9.4c-.9-.3-1.7-.4-2.4-.4-1.4,0-2.5.5-3.2,1.4-.7.9-1.2,2.4-1.7,4.3v11.9h-9.7V15.8h8.5l.8,4.9c.6-1.7,1.4-3.1,2.6-4.2,1.2-1,2.5-1.6,4-1.6M121.1,15c.8,0,1.7.1,2.6.4l-1.5,9.4c-.9-.3-1.7-.4-2.4-.4-1.4,0-2.5.5-3.2,1.4-.7.9-1.2,2.4-1.7,4.3v11.9h-9.7V15.8h8.5l.8,4.9c.6-1.7,1.4-3.1,2.6-4.2s2.5-1.6,4-1.6M45.9,15c.8,0,1.7.1,2.6.4l-1.5,9.4c-.9-.3-1.7-.4-2.4-.4-1.4,0-2.5.5-3.2,1.4-.7.9-1.2,2.4-1.7,4.3v11.9h-9.7V15.8h8.5l.8,4.9c.6-1.7,1.4-3.1,2.6-4.2,1.2-1,2.5-1.6,4-1.6M607.6,15.8v22.4c0,4.2-1,7.5-3.1,9.7-2.1,2.3-5,4-8.7,5.2l-3.3-7.1c1.3-.6,2.3-1.2,3-1.7.8-.6,1.3-1.3,1.8-2.2.5-.9.7-2,.7-3.4V15.8h9.7M569.2,15.8v6.7l-10.7,12.3h11.1l-.8,7.2h-21.6v-6.8l10.9-12.3h-9.9v-7.1h21.1M544.8,15.8v26.2h-9.7V15.8h9.7M185,15.8v26.2h-9.7V15.8h9.7M569.5,34.8h0M602.7.4c-1.8,0-3.4.6-4.6,1.8-1.2,1.2-1.8,2.6-1.8,4.4s.6,3.2,1.8,4.4c1.3,1.2,2.8,1.8,4.6,1.8s3.4-.6,4.6-1.8c1.2-1.2,1.9-2.7,1.9-4.4s-.6-3.2-1.9-4.4c-1.2-1.2-2.7-1.8-4.6-1.8h0ZM540,.4c-1.8,0-3.4.6-4.6,1.8-1.2,1.2-1.8,2.6-1.8,4.4s.6,3.2,1.8,4.4c1.3,1.2,2.8,1.8,4.6,1.8s3.4-.6,4.6-1.8c1.2-1.2,1.9-2.7,1.9-4.4s-.6-3.2-1.9-4.4c-1.2-1.2-2.7-1.8-4.6-1.8h0ZM180.1.4c-1.8,0-3.4.6-4.6,1.8-1.2,1.2-1.8,2.6-1.8,4.4s.6,3.2,1.8,4.4c1.3,1.2,2.8,1.8,4.6,1.8s3.4-.6,4.6-1.8c1.2-1.2,1.9-2.7,1.9-4.4s-.6-3.2-1.9-4.4c-1.2-1.2-2.7-1.8-4.6-1.8h0ZM520.3,3.5v11.5c-1.4-.8-2.9-1.1-4.7-1.1s-4.5.7-6.3,2c-1.8,1.3-3.2,3.1-4.2,5.4-1,2.2-1.5,4.7-1.5,7.5,0,4.6.9,8.3,2.7,11,1.9,2.8,4.6,4.2,8.3,4.2s4.8-.8,6.7-2.4v.6c0,0,.2.9.2.9h10.5V4.6h-.9c0,0-9.7-1.1-9.7-1.1h-1.1ZM518,35c-.7,0-1.2-.3-1.6-.9-.2-.4-.7-1.7-.7-5.2s.3-3.9.9-4.9c.7-1.1,1.4-1.2,1.9-1.2s.7,0,1,.3h0s0,0,0,0c.3.1.5.3.8.6v9.8c-.7,1.1-1.4,1.6-2.4,1.6h0ZM322.6,3.5v11.5c-1.4-.8-2.9-1.1-4.7-1.1s-4.5.7-6.3,2c-1.8,1.3-3.2,3.1-4.2,5.4-1,2.2-1.5,4.7-1.5,7.5,0,4.6.9,8.3,2.7,11,1.9,2.8,4.6,4.2,8.3,4.2s4.8-.8,6.7-2.4v.6c0,0,.2.9.2.9h10.5V4.6h-.9c0,0-9.7-1.1-9.7-1.1h-1.1ZM320.2,35c-.7,0-1.2-.3-1.6-.9-.2-.4-.7-1.7-.7-5.2s.3-3.9.9-4.9c.7-1.1,1.4-1.2,1.9-1.2s.7,0,1,.3h0s0,0,0,0c.3.1.5.3.8.6v9.8c-.7,1.1-1.4,1.6-2.4,1.6h0ZM13.4,6.9H.1v36.1h12.1v-10.6h2.3c4.4,0,8-1.1,10.6-3.3,2.2-1.8,3.5-4.3,3.9-7.4v21.4h11.7v-12.8c.4-1.7.9-3,1.5-3.8.5-.7,1.3-1,2.4-1s1.3.1,2,.3c-.2,1-.2,2-.2,3.1,0,4.8,1.3,8.5,3.9,11.1,2.6,2.6,6.2,4,10.6,4s5.5-.6,7.6-1.8c2.2-1.2,3.9-3,5.1-5.3,1.2-2.2,1.8-4.9,1.8-7.9,0-4.8-1.3-8.5-3.9-11.1-2.6-2.6-6.1-4-10.6-4s-5.5.6-7.6,1.8c-1.8,1-3.3,2.4-4.4,4.1l.7-4.2v-.8c.1,0-.7-.3-.7-.3-1-.3-2-.5-3-.5-1.7,0-3.2.6-4.6,1.8-.6.5-1.1,1-1.5,1.7l-.3-1.8v-.8h-10.5v2.4c-.4-3-1.8-5.4-4.2-7.2-2.7-2.1-6.6-3.1-11.5-3.1h0ZM12.2,15.9h1.1c2.6,0,3.7,1,3.7,3.5,0,3.4-1.7,3.9-3.4,3.9h-1.4v-7.4h0ZM60.9,35c-.9,0-1.4-.3-1.8-1.1-.3-.7-.7-2.1-.7-5.1s.2-4,.7-4.9c.4-.8.9-1.1,1.8-1.1s1.4.3,1.8,1.1c.3.7.7,2,.7,5s-.4,4.3-.7,4.9c-.4.8-.9,1.1-1.8,1.1h0ZM101.6,9.3l-1.1.8c-1.9,1.3-3.8,2.3-5.7,3-1.6.6-3.4.9-5.4.9s-.6,0-.8,0h0c-4,0-7.2.9-9.6,2.8-2.5,1.9-3.7,4.6-3.7,8s.4,3.6,1.3,4.9c.6,1,1.6,2,2.8,2.8-.5.5-1,1-1.4,1.7-.7,1.1-1.1,2.3-1.1,3.5,0,1.9.9,3.5,2.6,4.6.8.5,1.7.9,2.8,1.2h-8.2v1c0,2,.4,3.7,1.3,5.2.9,1.5,2.4,2.6,4.6,3.4,2.1.8,4.9,1.1,8.4,1.1s8.6-.9,11.3-2.6c2.8-1.8,4.2-4.3,4.2-7.5s-.5-3.3-1.5-4.6c-.9-1.3-2.3-2.4-4.1-3.1-1.7-.7-3.7-1.1-6-1.1h-3.8c-.5,0-.8,0-1,0,.5,0,1.1,0,1.9,0,2.5,0,4.7-.4,6.5-1.2,1.9-.8,3.4-2,4.5-3.4,1.1-1.5,1.6-3.2,1.6-5s-.5-3.6-1.4-4.8c-.3-.4-.8-.8-1.2-1.2,1.8-.2,3.3-.6,4.4-1.1l.7-.3v24.8h11.7v-12.8c.4-1.7.9-3,1.5-3.8.5-.7,1.3-1,2.4-1s1.3.1,2,.3c-.2,1-.3,2.1-.3,3.2,0,4.5,1.3,8.1,3.8,10.9,2.6,2.8,6.4,4.1,11.3,4.1s8.1-1.4,11.4-4.1l.2-.2c1.4,1.3,3.2,2.3,5.2,3.1,2.1.8,4.4,1.1,6.8,1.1s4.8-.4,6.7-1.2c2.1-.8,3.7-2,4.8-3.5,1.2-1.5,1.8-3.3,1.8-5.3s-.7-4.6-2.2-6c-1.3-1.4-3.4-2.5-6.2-3.4-1.6-.5-2.8-.9-3.5-1.1-.7-.3-.9-.5-1-.5,0,0,0,0,0-.1,0,0,.4-.2,1.2-.2s1.9.2,2.9.5c1,.3,2,.7,2.8,1.3l.8.5.5-.8,3.4-5.2.5-.7-.7-.6c-1.3-1.1-2.9-2-4.9-2.6-1.8-.6-3.8-1-5.8-1s-4.7.4-6.6,1.2c-1.9.8-3.3,2-4.3,3.4-1,1.5-1.5,3.1-1.5,4.9,0,4.6,2.8,7.8,8.3,9.4,1.6.5,2.7.8,3.3,1.1.7.2.8.4.9.4h0c0,0,0,0,0,0,0,0,0,0,0,0,0,0,0,0,0,.3s0,.2-.2.4c-.2.1-.6.2-1.5.2s-2.1-.2-3.1-.6c-1-.4-2-1-2.9-1.8l-.7-.6-.6.7-4.6,5.1h0s-3.7-4.9-3.7-4.9l-.4-.6h5.2v-.9c.2-1.3.3-2.3.3-3.2,0-3-.6-5.7-1.7-7.9-1.1-2.2-2.8-3.9-4.9-5.1-2.1-1.2-4.5-1.7-7.3-1.7s-5.5.7-7.6,2.1c-1.6,1-2.9,2.3-4,3.9l.7-4.3v-.8c.1,0-.7-.3-.7-.3-1-.3-2-.5-3-.5-1.7,0-3.2.6-4.6,1.8-.6.5-1.1,1-1.5,1.7l-.3-1.8v-.8h-10.5v2.8-.4c-.1,0-2.2-6.8-2.2-6.8l-.4-1.3h0ZM133.5,25.2c.2-1.5.5-2.2.7-2.5.2-.3.6-.7,1.6-.7s1.3.4,1.5.7c.3.6.5,1.4.6,2.5h-4.4ZM88.8,27.1c-.6,0-1.1-.2-1.4-.6-.4-.4-.6-1.1-.6-2s.2-1.4.6-1.8c.4-.4.8-.6,1.4-.6s1.2.2,1.5.5c.3.3.5.9.5,1.8,0,2.4-1,2.7-2,2.7h0ZM133.6,32.7h9.9l-.5.3c-1.1.7-2.1,1.3-3,1.7-.8.3-1.6.5-2.4.5-1.4,0-2.4-.2-3.1-.7-.4-.3-.7-.9-1-1.8h0ZM88.6,46c-1.3,0-2.2,0-2.9-.2-.6-.1-.8-.3-.8-.4,0-.1-.2-.4-.2-1v-.6c.6,0,1.3,0,1.9,0h3.6c1,0,1.4.2,1.5.3.2.2.3.4.3.6s0,.5-.5.8h0s0,0,0,0c-.2.1-.8.4-2.9.4h0ZM623.5,13.9c-3,0-5.5.7-7.6,2.1-2.1,1.3-3.7,3.2-4.8,5.5-1,2.3-1.6,4.8-1.6,7.5,0,4.5,1.3,8.1,3.8,10.9,2.6,2.8,6.4,4.1,11.3,4.1s8.1-1.4,11.4-4.1l.7-.6-.6-.8-3.9-5.3-.4-.6h5.2v-.9c.2-1.3.3-2.3.3-3.2,0-3-.6-5.7-1.7-7.9-1.1-2.2-2.8-3.9-4.9-5.1-2.1-1.2-4.5-1.7-7.3-1.7h0ZM621.3,25.2c.2-1.5.5-2.2.7-2.5.2-.3.6-.7,1.6-.7s1.3.4,1.5.7c.3.6.5,1.4.6,2.5h-4.4ZM621.5,32.7h9.9l-.5.3c-1.1.7-2.1,1.3-3,1.7-.8.3-1.6.5-2.4.5-1.4,0-2.4-.2-3.1-.7-.4-.3-.7-.9-1-1.8h0ZM582.2,13.9c-1.6,0-3.4.2-5.3.6-1.9.4-3.7.9-5.4,1.6l-.9.4.3.9,2.1,6.2.3.9.9-.3c1.2-.4,2.4-.7,3.6-.9,1.2-.2,2.1-.4,2.9-.4,1.7,0,2.2.3,2.3.4.1.1.4.5.4,1.5h-.9c-4.3,0-7.7.8-10,2.5-2.2,1.6-3.4,3.8-3.6,6.7h-8.4l9.3-10.6.2-.3v-8.1h-23.1v9.1h8.7l-9.4,10.7-.2.3v8.1h23.5v-.9c.1,0,.4-3,.4-3,.4.8,1,1.6,1.6,2.2,1.8,1.7,4.1,2.6,7,2.6s6-1.1,7.9-3.1c.7.8,1.4,1.4,2.3,1.9,1.2.6,2.8.9,4.7,1.1h.8c0,0,.2-.7.2-.7l2-6.2.3-.9-.9-.3c-.4-.1-.6-.3-.7-.5,0-.1-.2-.6-.2-1.6v-9c0-3.6-1.1-6.3-3.1-8-2-1.7-5.3-2.6-9.6-2.6h0ZM581.6,35.2c-.5,0-.7-.2-.8-.3-.2-.2-.3-.6-.3-1.1,0-.9.3-1.3.6-1.5.3-.2,1-.5,2.4-.5h0v2.5c-.2.2-.5.4-.8.6-.4.2-.7.3-1.1.3h0ZM569.5,33.8h0,0ZM494.8,13.9c-1.7,0-3.3.3-4.7,1-.9.4-1.8,1-2.7,1.8l-.3-1-.2-.8h-10.3v28.2h11.7v-18.2c.8-1.2,1.6-1.9,2.3-1.9s.2,0,.2,0h0s0,0,0,0c0,0,.2.3.2,1.4v18.5h11.7v-20.3c0-2.7-.7-4.9-2.2-6.5-1.4-1.6-3.4-2.4-5.9-2.4h0ZM462.2,13.9c-3,0-5.5.7-7.6,2.1-1.6,1-2.9,2.3-4,3.9l.7-4.3v-.8c.1,0-.7-.3-.7-.3-1-.3-2-.5-3-.5-1.7,0-3.2.6-4.6,1.8-.6.5-1.1,1-1.5,1.7l-.3-1.8v-.8h-10.5v28.2h11.7v-12.8c.4-1.7.9-3,1.5-3.8.5-.7,1.3-1,2.4-1s1.3.1,2,.3c-.2,1-.3,2.1-.3,3.2,0,4.5,1.3,8.1,3.8,10.9,2.6,2.8,6.4,4.1,11.3,4.1s8.1-1.4,11.4-4.1l.7-.6-.6-.8-3.9-5.3-.4-.6h5.2v-.9c.2-1.3.3-2.3.3-3.2,0-3-.6-5.7-1.7-7.9-1.1-2.2-2.8-3.9-4.9-5.1-2.1-1.2-4.5-1.7-7.2-1.7h0ZM460,25.2c.2-1.5.5-2.2.7-2.5.2-.3.6-.7,1.6-.7s1.3.4,1.5.7c.3.6.5,1.4.6,2.5h-4.4ZM460.2,32.7h9.9l-.5.3c-1.1.7-2.1,1.3-3,1.7-.8.3-1.6.5-2.4.5-1.4,0-2.4-.2-3.1-.7-.4-.3-.7-.9-1-1.8h0ZM418.9,13.9c-1.4,0-2.9.3-4.3.9-.8.4-1.6.9-2.4,1.5v-.6c0,0-.2-.8-.2-.8h-10.5v39.4h1.1c0-.1,9.7-1.1,9.7-1.1h.9v-10.6c1.4.9,3.1,1.4,5.1,1.4s4.3-.7,6-2c1.7-1.3,3.1-3.2,4-5.5.9-2.3,1.4-4.8,1.4-7.7,0-4.6-.9-8.2-2.7-10.9-1.8-2.7-4.6-4.1-8.1-4.1h0ZM413.1,24.5c.7-1.2,1.5-1.7,2.4-1.7s.8,0,1,.3h0s0,0,0,0c0,0,.4.4.7,1.5.2,1,.4,2.4.4,4.3,0,4.1-.9,6.1-2.7,6.1s-.7,0-1-.2c-.3-.2-.6-.5-.8-.9v-9.4h0ZM386.3,13.9c-1.6,0-3.4.2-5.3.6-1.9.4-3.7.9-5.4,1.6l-.9.4.3.9,2.1,6.2.3.9.9-.3c1.2-.4,2.4-.7,3.6-.9,1.2-.2,2.1-.4,2.9-.4,1.7,0,2.2.3,2.3.4.1.1.4.5.4,1.5h-.9c-4.3,0-7.7.8-10,2.5-2.4,1.7-3.7,4.2-3.7,7.5s.9,5,2.6,6.7c1.8,1.7,4.1,2.6,7,2.6s6-1.1,7.9-3.1c.7.8,1.4,1.4,2.3,1.9,1.2.6,2.8.9,4.7,1.1h.8c0,0,.2-.7.2-.7l2-6.2.3-.9-.9-.3c-.4-.1-.6-.3-.7-.5,0-.2-.2-.6-.2-1.6v-9c0-3.6-1.1-6.3-3.1-8-2-1.7-5.3-2.6-9.6-2.6h0ZM385.7,35.2c-.5,0-.7-.2-.8-.3-.2-.2-.3-.6-.3-1.1,0-.9.3-1.3.6-1.5.3-.2,1-.5,2.4-.5h0v2.5c-.2.2-.5.4-.8.6-.4.2-.7.3-1.1.3h0ZM349.2,13.9c-3,0-5.5.7-7.7,2.1-2.1,1.3-3.7,3.2-4.8,5.5-1,2.3-1.6,4.8-1.6,7.5,0,4.5,1.3,8.1,3.8,10.9,2.6,2.8,6.4,4.1,11.3,4.1s8.1-1.4,11.4-4.1l.7-.6-.6-.8-3.9-5.3-.4-.6h5.2v-.9c.2-1.3.3-2.3.3-3.2,0-3-.6-5.7-1.7-7.9-1.1-2.2-2.8-3.9-4.9-5.1-2.1-1.2-4.5-1.7-7.3-1.7h0ZM347,25.2c.2-1.5.5-2.2.7-2.5.2-.3.6-.7,1.6-.7s1.3.4,1.5.7c.3.6.5,1.4.6,2.5h-4.4ZM347.2,32.7h9.9l-.5.3c-1.1.7-2.1,1.3-3,1.7-.8.3-1.6.5-2.4.5-1.4,0-2.4-.2-3.1-.7-.4-.3-.7-.9-1-1.8h0ZM283.5,13.9c-2.5,0-4.7.4-6.6,1.2-1.9.8-3.3,2-4.3,3.4-1,1.5-1.5,3.1-1.5,4.9,0,4.6,2.8,7.8,8.3,9.4,1.6.5,2.7.8,3.3,1.1.7.2.8.4.9.4h0c0,0,0,.1,0,.1,0,0,0,0,0,0,0,0,0,0,0,.3s0,.2-.2.4c-.2,0-.6.2-1.5.2s-2.1-.2-3.1-.6c-1-.4-2-1-2.9-1.8l-.7-.6-.6.7-4.6,5.1h0s-3.7-4.9-3.7-4.9l-.4-.6h5.2v-.9c.2-1.3.3-2.3.3-3.2,0-3-.6-5.7-1.7-7.9-1.1-2.2-2.8-3.9-4.9-5.1-2.1-1.2-4.5-1.7-7.3-1.7s-5.5.7-7.6,2.1c-2.1,1.3-3.7,3.2-4.8,5.5-1,2.3-1.6,4.8-1.6,7.5,0,4.5,1.3,8.1,3.8,10.9,2.6,2.8,6.4,4.1,11.3,4.1s8.1-1.4,11.4-4.1l.2-.2c1.4,1.3,3.2,2.3,5.2,3.1,2.1.8,4.4,1.1,6.8,1.1s4.8-.4,6.7-1.2c2.1-.8,3.7-2,4.8-3.5,1.2-1.5,1.8-3.3,1.8-5.3s-.7-4.6-2.2-6c-1.3-1.4-3.4-2.5-6.2-3.4-1.6-.5-2.8-.9-3.5-1.1-.7-.3-.9-.5-1-.5,0,0,0,0,0-.1,0,0,.4-.2,1.2-.2s1.9.2,2.9.5c1,.3,2,.7,2.8,1.3l.8.5.5-.8,3.4-5.2.5-.7-.7-.6c-1.3-1.1-2.9-2-4.9-2.6-1.8-.6-3.8-1-5.8-1h0ZM255.4,25.2c.2-1.5.5-2.2.7-2.5.2-.3.6-.7,1.6-.7s1.3.4,1.5.7c.3.6.5,1.4.6,2.5h-4.4ZM255.6,32.7h9.9l-.5.3c-1.1.7-2.1,1.3-3,1.7-.8.3-1.6.5-2.4.5-1.4,0-2.4-.2-3.1-.7-.4-.3-.7-.9-1-1.8h0ZM234.8,13.9c-1.7,0-3.3.3-4.7,1-.9.4-1.8,1-2.7,1.8l-.3-1-.2-.8h-10.3v28.2h11.7v-18.2c.8-1.2,1.6-1.9,2.3-1.9s.2,0,.2,0h0s0,0,0,0c0,0,.2.3.2,1.4v18.5h11.7v-20.3c0-2.7-.7-4.9-2.2-6.5-1.4-1.6-3.4-2.4-5.9-2.4h0ZM201.4,13.9c-2.9,0-5.5.6-7.6,1.8-2.2,1.2-3.9,3-5.1,5.3-1.2,2.3-1.7,4.9-1.7,7.9,0,4.8,1.3,8.5,3.9,11.1,2.6,2.6,6.2,4,10.6,4s5.5-.6,7.6-1.8c2.2-1.2,3.9-3,5.1-5.3,1.2-2.2,1.8-4.9,1.8-7.9,0-4.8-1.3-8.5-3.9-11.1-2.6-2.6-6.1-4-10.6-4h0ZM201.4,35c-.9,0-1.4-.3-1.8-1.1-.3-.7-.7-2.1-.7-5.1s.2-4,.7-4.9c.4-.8.9-1.1,1.8-1.1s1.4.3,1.8,1.1c.3.6.7,2,.7,5s-.4,4.3-.7,4.9c-.4.8-.9,1.1-1.8,1.1h0ZM608.6,14.8h-11.7v24c0,1.2-.2,2.2-.6,2.9-.4.8-.8,1.4-1.5,1.8-.7.5-1.7,1.1-2.9,1.6l-.9.4.4.9,3.3,7.1.4.8.8-.3c3.9-1.3,6.9-3.1,9.1-5.5,2.3-2.4,3.4-5.9,3.4-10.4V14.8h0ZM545.8,14.8h-11.7v28.2h11.7V14.8h0ZM186,14.8h-11.7v28.2h11.7V14.8h0Z"/>
</svg>