<?xml version="1.0" encoding="UTF-8"?>
<svg id="Capa_1" xmlns="http://www.w3.org/2000/svg" version="1.1" viewBox="0 0 486.51 378.75">
  <!-- Generator: Adobe Illustrator 29.1.0, SVG Export Plug-In . SVG Version: 2.1.0 Build 142)  -->
  <defs>
    <style>
      .st0 {
        fill: #0b4680;
      }

      .st1 {
        fill: #e3464c;
      }
    </style>
  </defs>
  <g>
    <path class="st0" d="M25.73,266.1c-4.2,0-7.72-.8-10.58-2.4s-5.02-3.97-6.47-7.13c-1.46-3.16-2.19-7.07-2.19-11.75,0-7.03,1.7-12.34,5.1-15.91,3.4-3.58,8.15-5.36,14.26-5.36,3.64,0,6.8.56,9.5,1.68,2.7,1.12,4.78,2.8,6.26,5.03s2.22,5.05,2.22,8.45h-3.24c0-2.88-.59-5.21-1.77-7.01-1.18-1.8-2.88-3.13-5.1-3.98-2.22-.86-4.88-1.29-8-1.29s-5.81.6-8.21,1.8c-2.4,1.2-4.27,3.12-5.6,5.75-1.34,2.64-2.01,6.16-2.01,10.55v1.26c0,4.2.67,7.58,2.01,10.13,1.34,2.56,3.21,4.42,5.6,5.58,2.4,1.15,5.15,1.73,8.27,1.73s5.72-.43,7.94-1.29c2.22-.86,3.93-2.19,5.13-3.99,1.2-1.8,1.8-4.13,1.8-7.01h3.17c0,3.47-.78,6.33-2.34,8.57-1.56,2.24-3.7,3.89-6.41,4.97-2.72,1.08-5.84,1.62-9.35,1.62Z"/>
    <path class="st0" d="M78.3,266.1c-3.36,0-6.23-.54-8.63-1.62-2.4-1.08-4.25-2.85-5.54-5.3-1.3-2.46-1.95-5.7-1.95-9.74v-25.18h3.3v26.73c0,4.08,1.13,7.12,3.39,9.14,2.26,2.02,5.4,3.03,9.44,3.03s7.41-1.01,9.77-3.03c2.36-2.02,3.54-5.06,3.54-9.14v-26.73h3.18v25.18c0,4.04-.66,7.28-1.98,9.74-1.32,2.46-3.21,4.22-5.66,5.3-2.46,1.08-5.4,1.62-8.84,1.62Z"/>
    <path class="st0" d="M115.7,265.38v-41.12h21.58c2.56,0,4.68.5,6.35,1.5,1.68,1,2.94,2.34,3.78,4.02.84,1.68,1.26,3.58,1.26,5.69,0,3-.7,5.51-2.1,7.52-1.4,2.02-3.16,3.38-5.27,4.11l8.81,18.28h-3.6l-8.51-17.68h-19.06v17.68h-3.24ZM118.93,244.82h17.86c2.68,0,4.78-.84,6.32-2.52,1.54-1.68,2.31-3.98,2.31-6.9,0-1.72-.32-3.18-.96-4.4-.64-1.22-1.6-2.17-2.88-2.85-1.28-.68-2.88-1.02-4.79-1.02h-17.86v17.68Z"/>
    <path class="st0" d="M169.16,265.38v-41.12h21.58c2.56,0,4.68.5,6.35,1.5,1.68,1,2.94,2.34,3.78,4.02.84,1.68,1.26,3.58,1.26,5.69,0,3-.7,5.51-2.1,7.52-1.4,2.02-3.16,3.38-5.27,4.11l8.81,18.28h-3.6l-8.51-17.68h-19.06v17.68h-3.24ZM172.4,244.82h17.86c2.68,0,4.78-.84,6.32-2.52,1.54-1.68,2.31-3.98,2.31-6.9,0-1.72-.32-3.18-.96-4.4-.64-1.22-1.6-2.17-2.88-2.85-1.28-.68-2.88-1.02-4.79-1.02h-17.86v17.68Z"/>
    <path class="st0" d="M222.62,265.38v-41.12h3.24v41.12h-3.24ZM222.87,221.26l5.57-7.91h4.2l.06.18-6.77,7.74h-3.06Z"/>
    <path class="st0" d="M263.68,266.1c-4.2,0-7.72-.8-10.58-2.4-2.86-1.6-5.02-3.97-6.47-7.13-1.46-3.16-2.19-7.07-2.19-11.75,0-7.03,1.7-12.34,5.1-15.91,3.4-3.58,8.15-5.36,14.26-5.36,3.64,0,6.8.56,9.5,1.68,2.7,1.12,4.78,2.8,6.26,5.03,1.48,2.24,2.22,5.05,2.22,8.45h-3.24c0-2.88-.59-5.21-1.77-7.01-1.18-1.8-2.88-3.13-5.1-3.98-2.22-.86-4.88-1.29-8-1.29s-5.81.6-8.21,1.8c-2.4,1.2-4.27,3.12-5.6,5.75-1.34,2.64-2.01,6.16-2.01,10.55v1.26c0,4.2.67,7.58,2.01,10.13,1.34,2.56,3.21,4.42,5.6,5.58,2.4,1.15,5.15,1.73,8.27,1.73s5.72-.43,7.94-1.29,3.93-2.19,5.13-3.99c1.2-1.8,1.8-4.13,1.8-7.01h3.17c0,3.47-.78,6.33-2.34,8.57-1.56,2.24-3.7,3.89-6.41,4.97-2.72,1.08-5.84,1.62-9.35,1.62Z"/>
    <path class="st0" d="M316.25,266.1c-3.36,0-6.23-.54-8.63-1.62-2.4-1.08-4.25-2.85-5.54-5.3-1.3-2.46-1.95-5.7-1.95-9.74v-25.18h3.3v26.73c0,4.08,1.13,7.12,3.39,9.14,2.26,2.02,5.4,3.03,9.44,3.03s7.41-1.01,9.77-3.03c2.36-2.02,3.54-5.06,3.54-9.14v-26.73h3.18v25.18c0,4.04-.66,7.28-1.98,9.74-1.32,2.46-3.21,4.22-5.66,5.3-2.46,1.08-5.4,1.62-8.84,1.62Z"/>
    <path class="st0" d="M353.65,265.38v-41.12h3.24v38.24h20.26v2.88h-23.5Z"/>
    <path class="st0" d="M406.57,266.1c-3.36,0-6.23-.54-8.63-1.62-2.4-1.08-4.25-2.85-5.54-5.3-1.3-2.46-1.95-5.7-1.95-9.74v-25.18h3.3v26.73c0,4.08,1.13,7.12,3.39,9.14,2.26,2.02,5.4,3.03,9.44,3.03s7.41-1.01,9.77-3.03c2.36-2.02,3.54-5.06,3.54-9.14v-26.73h3.18v25.18c0,4.04-.66,7.28-1.98,9.74-1.32,2.46-3.21,4.22-5.66,5.3-2.46,1.08-5.4,1.62-8.84,1.62Z"/>
    <path class="st0" d="M443.97,265.38v-41.12h4.74l12.77,31.17c.24.6.49,1.24.75,1.92.26.68.5,1.31.72,1.89.22.58.39,1.07.51,1.47h.3c.2-.56.43-1.18.69-1.86.26-.68.51-1.33.75-1.95.24-.62.42-1.11.54-1.47l12.77-31.17h4.74v41.12h-3.24v-27.93c0-.56,0-1.34.03-2.34.02-1,.04-2.06.06-3.18.02-1.12.03-2.12.03-3h-.42c-.2.76-.41,1.46-.63,2.1-.22.64-.44,1.24-.66,1.8-.22.56-.45,1.12-.69,1.68l-13.01,30.87h-2.22l-13.01-30.87c-.24-.56-.47-1.12-.69-1.68s-.44-1.16-.66-1.8c-.22-.64-.43-1.34-.63-2.1h-.42c.04.72.06,1.6.06,2.64s0,2.08.03,3.12c.02,1.04.03,1.96.03,2.76v27.93h-3.24Z"/>
  </g>
  <g>
    <path class="st0" d="M165.07,106.68h0c2.02.03,3.73,1.43,4.26,3.38,15.37,56.21,87.02,77.61,129.99,35.5,13.14-12.88,34.82-50.52,6.65-58.38-18.51-5.17-20.78,15.47-27.43,25.28-12.62,18.64-37.33,24.02-56.22,11.3-3.63-2.44-17.06-13.94-10.48-18.42,7.85-5.34,8.94,3.62,13.38,7.3,8.18,6.78,19.77,7.82,29.9,5.16,23.16-6.09,13.73-41.67,46.17-42.34,30.87-.64,34.36,31.35,23.37,54.35-23.8,49.8-90.94,63.81-134.26,29.99-13.22-10.32-29.39-30.78-29.88-48.65-.07-2.49,2.06-4.49,4.55-4.46Z"/>
    <path class="st1" d="M324.65,71.61h0c-2.02-.03-3.73-1.43-4.26-3.38-15.37-56.21-87.02-77.61-129.99-35.5-13.14,12.88-34.82,50.52-6.65,58.38,18.51,5.17,20.78-15.47,27.43-25.28,12.62-18.64,37.33-24.02,56.22-11.3,3.63,2.44,17.06,13.94,10.48,18.42-7.85,5.34-8.94-3.62-13.38-7.3-8.18-6.78-19.77-7.82-29.9-5.16-23.16,6.09-13.73,41.67-46.17,42.34-30.87.64-34.36-31.35-23.37-54.35C188.87-1.3,256.01-15.31,299.33,18.5c13.22,10.32,29.39,30.78,29.88,48.65.07,2.49-2.06,4.49-4.55,4.46Z"/>
  </g>
  <g>
    <path class="st0" d="M66.55,321.99c0,2.65-1.01,4.99-3.02,7.03-2.02,2.04-4.34,3.05-6.99,3.05-1.5,0-4.23-1.38-8.17-4.15-3.94-2.77-7.66-4.15-11.16-4.15-4.92,0-9.1,1.72-12.54,5.16-3.44,3.45-5.16,7.63-5.16,12.56s1.72,9.11,5.16,12.56c3.44,3.44,7.62,5.16,12.54,5.16,3.46,0,7.16-1.37,11.1-4.09,3.94-2.72,6.67-4.09,8.17-4.09,2.64,0,4.97,1.01,6.98,3.02,2.01,2.02,3.02,4.34,3.02,6.98,0,2.24-1.02,4.52-3.05,6.84-3.01,3.38-7,6.06-11.96,8.05-4.72,1.87-9.48,2.8-14.27,2.8-10.33,0-19.12-3.62-26.36-10.87-7.24-7.24-10.86-16.04-10.86-26.38s3.62-19.13,10.86-26.38c7.24-7.24,16.02-10.87,26.36-10.87,4.72,0,9.47.96,14.27,2.87,5.04,2,9.05,4.67,12.02,8.01,2.03,2.32,3.05,4.61,3.05,6.85Z"/>
    <path class="st0" d="M141.89,341.5c0,10.34-3.62,19.13-10.86,26.38-7.24,7.24-16.02,10.87-26.35,10.87s-19.12-3.62-26.36-10.86c-7.24-7.24-10.86-16.02-10.86-26.36,0-8.37,2.52-15.89,7.56-22.54,5.04-6.65,11.61-11.1,19.71-13.33-2.56-.16-4.72-1.25-6.47-3.27-1.75-2.01-2.62-4.32-2.62-6.93,0-3.78,1.83-6.59,5.49-8.41l18.3-9.15c1.54-.77,3.11-1.16,4.7-1.16,2.64,0,4.9,1.03,6.77,3.08,1.87,2.06,2.81,4.42,2.81,7.1,0,3.57-1.83,6.38-5.5,8.41-4.8,2.65-11.02,5.76-18.67,9.34,1.71-.28,3.42-.42,5.13-.42,10.33,0,19.12,3.62,26.36,10.87,7.24,7.25,10.86,16.03,10.86,26.38Z"/>
    <path class="st0" d="M194.23,321.2c0,2.65-1.04,4.92-3.11,6.82-2.08,1.9-4.45,2.84-7.14,2.84-2.44,0-4.78-1.18-7.01-3.54-2.24-2.36-3.76-3.54-4.57-3.54-2.65,0-3.97,1.33-3.97,3.97v41.22c0,2.85-.92,5.19-2.75,7.02s-4.17,2.75-7.01,2.75-5.19-.91-7.02-2.75c-1.83-1.83-2.74-4.18-2.74-7.02v-54.95c0-2.85.91-5.19,2.74-7.02,1.83-1.83,4.17-2.75,7.02-2.75,2.07,0,3.9.53,5.49,1.58,2.64-1.06,5.39-1.58,8.24-1.58,4.15,0,8.07,1.07,11.77,3.21,3.7,2.14,6.55,5,8.54,8.59,1.02,1.84,1.52,3.54,1.52,5.14Z"/>
    <path class="st0" d="M269.64,368.99c0,2.84-.92,5.18-2.75,7.01-1.83,1.83-4.17,2.75-7.01,2.75-4.11,0-7.02-1.69-8.72-5.06-5.77,3.38-12.02,5.06-18.73,5.06-10.33,0-19.12-3.62-26.35-10.87-7.24-7.24-10.86-16.04-10.86-26.38s3.62-19.13,10.86-26.38c7.24-7.24,16.02-10.87,26.35-10.87,6.3,0,12.2,1.5,17.69,4.51v-22.14c0-2.85.92-5.19,2.75-7.02,1.83-1.83,4.17-2.75,7.02-2.75s5.19.92,7.01,2.75c1.83,1.83,2.75,4.17,2.75,7.02v82.35Z"/>
    <path class="st0" d="M351.02,341.5c0,10.38-3.61,19.18-10.83,26.41-7.22,7.22-16.01,10.84-26.38,10.84s-19.17-3.61-26.39-10.84c-7.22-7.22-10.83-16.02-10.83-26.41s3.61-19.18,10.83-26.41,16.01-10.84,26.39-10.84,19.16,3.61,26.38,10.84c7.22,7.22,10.83,16.02,10.83,26.41Z"/>
    <path class="st0" d="M429.41,341.5c0,10.34-3.62,19.13-10.86,26.38-7.24,7.24-16.02,10.87-26.36,10.87s-19.11-3.61-26.35-10.83c-7.24-7.22-10.86-16-10.86-26.33v-54.96c0-2.85.91-5.19,2.75-7.02,1.83-1.83,4.17-2.75,7.01-2.75s5.19.92,7.01,2.75c1.83,1.83,2.75,4.17,2.75,7.02v22.14c5.49-3.01,11.39-4.51,17.69-4.51,10.33,0,19.12,3.62,26.36,10.87,7.24,7.25,10.86,16.03,10.86,26.38Z"/>
    <path class="st0" d="M486.51,368.98c0,2.85-.92,5.19-2.75,7.02-1.83,1.83-4.17,2.75-7.01,2.75-2.69,0-4.94-.81-6.77-2.44-3.13,1.63-6.97,2.44-11.53,2.44-7.89,0-14.44-2.15-19.64-6.47-5.61-4.63-8.42-10.82-8.42-18.54s2.81-13.91,8.42-18.55c5.21-4.31,11.75-6.46,19.64-6.46,3.17,0,6.02.41,8.54,1.22v-.61c0-2.38-.83-4.4-2.5-6.08-1.67-1.68-3.68-2.52-6.04-2.52-1.71,0-3.95,1.02-6.71,3.05-2.77,2.04-5.19,3.05-7.26,3.05-2.32,0-4.35-.73-6.1-2.2-1.87-1.55-2.81-3.45-2.81-5.69,0-2.12,1.02-4.26,3.05-6.42,5.17-5.51,11.78-8.26,19.83-8.26s14.39,2.74,19.85,8.21c5.47,5.48,8.21,12.1,8.21,19.87v36.63Z"/>
  </g>
</svg>