<svg width="90" height="38" viewBox="0 0 90 38" fill="none" xmlns="http://www.w3.org/2000/svg">
<path d="M21.7382 15.5001H22.6785V16.1445C22.6785 16.4348 22.4663 16.7309 21.7841 16.7309C21.1018 16.7309 20.8896 16.4348 20.8896 16.1445V15.0647C20.8896 14.7745 21.1075 14.4784 21.7841 14.4784C22.4606 14.4784 22.6785 14.7687 22.6785 15.0531V15.2157H22.1281V15.146C22.1281 14.9893 21.9962 14.937 21.7898 14.937C21.5834 14.937 21.4515 14.9951 21.4515 15.1634V16.0458C21.4515 16.2142 21.5834 16.2722 21.7898 16.2722C21.9962 16.2722 22.1338 16.22 22.1338 16.069V15.9471H21.7382V15.5001Z" fill="white"/>
<path d="M23.0167 15.0647C23.0167 14.7745 23.2575 14.4784 23.9398 14.4784C24.6221 14.4784 24.8686 14.7745 24.8686 15.0647V16.1445C24.8686 16.4348 24.6221 16.7309 23.9398 16.7309C23.2575 16.7309 23.0167 16.4348 23.0167 16.1445V15.0647ZM24.3125 15.1634C24.3125 14.9951 24.1577 14.937 23.9455 14.937C23.7334 14.937 23.5843 14.9951 23.5843 15.1634V16.0458C23.5843 16.2142 23.7391 16.2722 23.9455 16.2722C24.1519 16.2722 24.3125 16.2142 24.3125 16.0458V15.1634Z" fill="white"/>
<path d="M25.2584 16.696V14.5074H26.1356C26.7549 14.5074 26.9727 14.7339 26.9727 15.0067V15.1693C26.9727 15.3318 26.8925 15.4653 26.7204 15.5408C26.967 15.6163 27.0874 15.7672 27.0874 15.9472V16.162C27.0874 16.4464 26.8695 16.6902 26.2503 16.6902H25.2584V16.696ZM25.8203 14.9486V15.3899H26.1242C26.2904 15.3899 26.4223 15.3376 26.4223 15.1925V15.117C26.4223 14.9777 26.2904 14.9545 26.1242 14.9545H25.8203V14.9486ZM25.8203 16.2606H26.2331C26.3994 16.2606 26.5312 16.2084 26.5312 16.0633V15.9704C26.5312 15.8485 26.3994 15.7904 26.2331 15.7904H25.8203V16.2606Z" fill="white"/>
<path d="M27.9818 14.5133V16.7019H27.4199V14.5133H27.9818Z" fill="white"/>
<path d="M29.8567 14.9661H28.9623V15.3609H29.7993V15.7963H28.9623V16.2491H29.8911V16.7019H28.4004V14.5133H29.8567V14.9661Z" fill="white"/>
<path d="M30.2294 16.696V14.5074H31.2041C31.8233 14.5074 32.0411 14.7919 32.0411 15.0822V15.3376C32.0411 15.535 31.9379 15.7324 31.6742 15.8369L32.0698 16.696H31.462L31.1066 15.9065H30.797V16.696H30.2294ZM30.7913 14.9661V15.4537H31.1869C31.3531 15.4537 31.485 15.4015 31.485 15.2563V15.1576C31.485 15.0183 31.3589 14.9661 31.1869 14.9661H30.7913Z" fill="white"/>
<path d="M33.7497 16.696L32.9241 15.5408V16.696H32.3909V14.5074H32.8897L33.7096 15.6627V14.5074H34.2428V16.696H33.7497Z" fill="white"/>
<path d="M34.6326 15.0647C34.6326 14.7745 34.8734 14.4784 35.5557 14.4784C36.2379 14.4784 36.4845 14.7745 36.4845 15.0647V16.1445C36.4845 16.4348 36.2379 16.7309 35.5557 16.7309C34.8734 16.7309 34.6326 16.4348 34.6326 16.1445V15.0647ZM35.9226 15.1634C35.9226 14.9951 35.7678 14.937 35.5557 14.937C35.3435 14.937 35.1944 14.9951 35.1944 15.1634V16.0458C35.1944 16.2142 35.3493 16.2722 35.5557 16.2722C35.7621 16.2722 35.9226 16.2142 35.9226 16.0458V15.1634Z" fill="white"/>
<path d="M39.3569 15.0996V16.1156C39.3569 16.4116 39.1218 16.7019 38.4453 16.7019H37.4993V14.5133H38.4453C39.1218 14.5133 39.3569 14.8036 39.3569 15.0996ZM38.7893 16.0111V15.1925C38.7893 15.0242 38.6402 14.9661 38.4396 14.9661H38.0611V16.2375H38.4396C38.6402 16.2375 38.7893 16.1794 38.7893 16.0111Z" fill="white"/>
<path d="M41.1916 14.9661H40.2972V15.3609H41.1343V15.7963H40.2972V16.2491H41.226V16.7019H39.7354V14.5133H41.1916V14.9661Z" fill="white"/>
<path d="M42.7568 14.5133V16.2491H43.6111V16.7019H42.1949V14.5133H42.7568Z" fill="white"/>
<path d="M44.3335 16.3071L44.2189 16.7019H43.6742L44.3851 14.5133H45.0158L45.7153 16.7019H45.1419L45.0273 16.3071H44.3335ZM44.8897 15.8776L44.6718 15.1519L44.4539 15.8776H44.8897Z" fill="white"/>
<path d="M47.0798 15.9704V16.7019H46.5179V14.5133H47.4926C48.1118 14.5133 48.3297 14.7978 48.3297 15.088V15.4015C48.3297 15.6918 48.1118 15.9762 47.4926 15.9762H47.0798V15.9704ZM47.0798 14.9661V15.5118H47.4697C47.6417 15.5118 47.7736 15.4596 47.7736 15.3144V15.1693C47.7736 15.0242 47.6417 14.9719 47.4697 14.9719H47.0798V14.9661Z" fill="white"/>
<path d="M48.6335 16.696V14.5074H49.6082C50.2274 14.5074 50.4453 14.7919 50.4453 15.0822V15.3376C50.4453 15.535 50.3421 15.7324 50.0784 15.8369L50.474 16.696H49.8662L49.5108 15.9065H49.2011V16.696H48.6335ZM49.1954 14.9661V15.4537H49.591C49.7573 15.4537 49.8834 15.4015 49.8834 15.2563V15.1576C49.8834 15.0183 49.7573 14.9661 49.591 14.9661H49.1954Z" fill="white"/>
<path d="M50.7606 15.0647C50.7606 14.7745 51.0014 14.4784 51.6837 14.4784C52.366 14.4784 52.6125 14.7745 52.6125 15.0647V16.1445C52.6125 16.4348 52.366 16.7309 51.6837 16.7309C51.0014 16.7309 50.7606 16.4348 50.7606 16.1445V15.0647ZM52.0564 15.1634C52.0564 14.9951 51.9016 14.937 51.6894 14.937C51.4773 14.937 51.3282 14.9951 51.3282 15.1634V16.0458C51.3282 16.2142 51.483 16.2722 51.6894 16.2722C51.8958 16.2722 52.0564 16.2142 52.0564 16.0458V15.1634Z" fill="white"/>
<path d="M53.7879 16.0342L54.2236 14.5074H54.7912L54.0975 16.696H53.4439L52.7559 14.5074H53.3521L53.7879 16.0342Z" fill="white"/>
<path d="M55.5766 14.5133V16.7019H55.0148V14.5133H55.5766Z" fill="white"/>
<path d="M57.3541 16.696L56.5284 15.5408V16.696H55.9952V14.5074H56.494L57.3139 15.6627V14.5074H57.8471V16.696H57.3541Z" fill="white"/>
<path d="M60.0143 15.9181V16.1445C60.0143 16.4348 59.7964 16.7309 59.1199 16.7309C58.4433 16.7309 58.2255 16.4348 58.2255 16.1445V15.0647C58.2255 14.7745 58.4433 14.4784 59.1199 14.4784C59.7964 14.4784 60.0143 14.7745 60.0143 15.0647V15.2563H59.4639V15.1576C59.4639 14.9951 59.332 14.937 59.1256 14.937C58.9192 14.937 58.7873 14.9951 58.7873 15.1634V16.0458C58.7873 16.2142 58.9192 16.2722 59.1256 16.2722C59.332 16.2722 59.4639 16.2142 59.4639 16.0516V15.9181H60.0143Z" fill="white"/>
<path d="M60.9145 14.5133V16.7019H60.3527V14.5133H60.9145Z" fill="white"/>
<path d="M61.7974 16.3071L61.6827 16.7019H61.1381L61.849 14.5133H62.4797L63.1791 16.7019H62.6058L62.4911 16.3071H61.7974ZM62.3593 15.8776L62.1414 15.1519L61.9235 15.8776H62.3593Z" fill="white"/>
<path d="M65.8394 15.0996V16.1156C65.8394 16.4116 65.6044 16.7019 64.9278 16.7019H63.9818V14.5133H64.9278C65.6044 14.5133 65.8394 14.8036 65.8394 15.0996ZM65.2718 16.0111V15.1925C65.2718 15.0242 65.1228 14.9661 64.9221 14.9661H64.5437V16.2375H64.9221C65.1228 16.2375 65.2718 16.1794 65.2718 16.0111Z" fill="white"/>
<path d="M67.6742 14.9661H66.7798V15.3609H67.6168V15.7963H66.7798V16.2491H67.7086V16.7019H66.2179V14.5133H67.6742V14.9661Z" fill="white"/>
<path d="M25.8834 34.4313L25.8949 34.2803C25.9121 34.0655 25.7515 33.9552 25.3903 33.9552C25.0693 33.9552 24.8858 34.0365 24.8457 34.2745L24.8342 34.3326C24.8113 34.4545 24.9087 34.5126 25.0578 34.559L25.9924 34.826C26.4625 34.9538 26.7033 35.244 26.6574 35.662L26.623 35.9813C26.5657 36.4631 26.2045 36.9043 25.0979 36.9043C23.9914 36.9043 23.6416 36.3993 23.6875 35.9813L23.7334 35.5865H24.6163L24.5819 35.8594C24.5533 36.0916 24.7539 36.1961 25.1381 36.1961C25.4821 36.1961 25.7114 36.1206 25.7458 35.8768L25.7573 35.8071C25.7859 35.6156 25.6426 35.5401 25.3559 35.4588L24.5017 35.2034C24.1577 35.0989 23.8997 34.826 23.9455 34.4603L23.9799 34.1758C24.043 33.6998 24.3641 33.2528 25.4419 33.2528C26.6115 33.2528 26.8409 33.7637 26.8007 34.1817L26.7778 34.4313H25.8834Z" fill="white"/>
<path d="M27.8385 35.7374L27.8098 36.016C27.7869 36.1844 27.9073 36.2657 28.2054 36.2657C28.4634 36.2657 28.5953 36.1902 28.6182 36.0625L28.6354 35.9638H29.4496L29.4324 36.0741C29.3578 36.5908 29.0482 36.8926 28.1653 36.8926C27.2365 36.8926 26.8925 36.5153 26.9498 36.0393L27.0759 35.0408C27.1447 34.5125 27.5289 34.1874 28.3946 34.1874C29.2604 34.1874 29.6445 34.5531 29.5872 35.0408L29.5069 35.7374H27.8385ZM27.913 35.1917H28.7272L28.7444 35.093C28.773 34.9014 28.6412 34.8144 28.3545 34.8144C28.0965 34.8144 27.9531 34.8898 27.9359 35.0582L27.9187 35.1917H27.913Z" fill="white"/>
<path d="M29.7936 36.0219L29.9197 35.0175C29.9828 34.5067 30.2522 34.1874 30.8428 34.1874C31.3186 34.1874 31.6168 34.3615 31.806 34.4951L31.8691 34.2396H32.6889L32.3507 37.032C32.2876 37.5486 31.892 37.8737 31.0262 37.8737H29.891L29.977 37.1713H31.0893C31.3244 37.1713 31.462 37.1074 31.4849 36.9101L31.5251 36.5676C31.3358 36.6953 31.0549 36.852 30.6077 36.852C30.0057 36.852 29.742 36.5037 29.7993 36.0219H29.7936ZM30.6822 35.8767C30.665 36.0219 30.6994 36.1089 30.9402 36.1089C31.181 36.1089 31.462 35.9754 31.5996 35.8941L31.6913 35.1394C31.5652 35.064 31.3014 34.9246 31.0721 34.9246C30.8428 34.9246 30.7912 35.0291 30.774 35.1569L30.688 35.8709L30.6822 35.8767Z" fill="white"/>
<path d="M35.7392 34.2339L35.4181 36.8347H34.5982V36.5908C34.3804 36.7244 34.1166 36.8869 33.6809 36.8869C33.119 36.8869 32.8151 36.5444 32.8667 36.1148L33.0961 34.2339H33.979L33.7726 35.9116C33.7497 36.0858 33.7955 36.1438 34.0249 36.1438C34.2542 36.1438 34.518 36.0219 34.6441 35.9406L34.8562 34.2339H35.7392Z" fill="white"/>
<path d="M36.731 36.8405H35.848L36.1691 34.2397H37.0463L36.731 36.8405ZM37.0807 33.9436H36.1978L36.2895 33.2006H37.1667L37.0807 33.9436Z" fill="white"/>
<path d="M37.4706 34.2339H38.2905V34.4835C38.5198 34.3384 38.7606 34.1816 39.2078 34.1816C39.5576 34.1816 39.8442 34.3268 39.9589 34.5474C40.1596 34.4197 40.4348 34.1816 40.9737 34.1816C41.5127 34.1816 41.8395 34.5242 41.7879 34.9537L41.5643 36.8347H40.6813L40.882 35.1627C40.8992 34.9886 40.8533 34.9247 40.624 34.9247C40.3946 34.9247 40.1252 35.0524 40.0048 35.1337L39.8041 36.8347H38.9269L39.1218 35.1627C39.1448 34.977 39.076 34.9247 38.8696 34.9247C38.646 34.9247 38.3765 35.0524 38.2504 35.1337L38.044 36.8347H37.161L37.4764 34.2339H37.4706Z" fill="white"/>
<path d="M42.1376 35.0408C42.2064 34.5125 42.6479 34.1874 43.5308 34.1874C44.4711 34.1874 44.8782 34.5531 44.8151 35.0408L44.689 36.0393C44.6202 36.5675 44.1844 36.8926 43.3015 36.8926C42.3555 36.8926 41.9541 36.5153 42.0115 36.0393L42.1376 35.0408ZM43.9264 35.1046C43.9494 34.9305 43.7716 34.855 43.4907 34.855C43.2212 34.855 43.0377 34.9188 43.0148 35.1046L42.9116 35.9348C42.8829 36.167 43.0549 36.2192 43.3473 36.2192C43.6168 36.2192 43.806 36.1554 43.8232 35.9638L43.9264 35.1046Z" fill="white"/>
<path d="M46.6784 35.0756L46.7013 34.9537C46.73 34.8086 46.5752 34.7738 46.3401 34.7738C46.1394 34.7738 46.0018 34.797 45.9846 34.9363V34.9828C45.9674 35.0582 46.0076 35.1047 46.0878 35.1221L46.8733 35.3427C47.2861 35.4588 47.4638 35.6794 47.4352 35.929L47.4065 36.1903C47.3606 36.5676 47.0338 36.8927 46.1394 36.8927C45.159 36.8927 44.9125 36.4921 44.9411 36.2077L44.9641 36.0045H45.784L45.7725 36.1264C45.761 36.2657 45.9216 36.3064 46.1624 36.3064C46.4032 36.3064 46.5809 36.2773 46.5924 36.138V36.0916C46.6038 36.0219 46.5408 35.9755 46.4146 35.9406L45.6464 35.7142C45.3253 35.6213 45.1303 35.4065 45.1647 35.0873L45.1819 34.9247C45.2163 34.5474 45.4973 34.1932 46.3802 34.1932C47.332 34.1932 47.5785 34.6228 47.5269 34.9537L47.504 35.0814H46.6841L46.6784 35.0756Z" fill="white"/>
<path d="M49.8778 33.2006L49.723 34.4661C49.9294 34.3384 50.216 34.1875 50.6403 34.1875C51.2423 34.1875 51.506 34.5764 51.4602 34.9596L51.2366 36.8405H50.3536L50.56 35.1686C50.583 34.9944 50.5371 34.9305 50.2963 34.9305C50.0555 34.9305 49.7746 35.0583 49.6484 35.1453L49.4363 36.8405H48.5591L49.0005 33.2006H49.8778Z" fill="white"/>
<path d="M53.461 36.8405V36.585C53.2489 36.7185 52.968 36.8927 52.515 36.8927C51.913 36.8927 51.6493 36.5386 51.7009 36.0625L51.827 35.0234C51.8901 34.5067 52.1653 34.1932 52.7558 34.1932C53.2202 34.1932 53.5241 34.3616 53.6847 34.4835L53.7477 34.2455H54.602L54.2809 36.8463H53.4553L53.461 36.8405ZM52.601 35.9116C52.5838 36.0567 52.6182 36.1438 52.859 36.1438C53.0826 36.1438 53.3808 36.0103 53.5184 35.929L53.6159 35.1395C53.4897 35.064 53.226 34.9247 52.9909 34.9247C52.7558 34.9247 52.7157 35.0292 52.6985 35.1569L52.6068 35.9058L52.601 35.9116Z" fill="white"/>
<path d="M57.4343 34.9827L57.4171 35.1801H56.5686L56.58 35.064C56.5915 34.9246 56.4768 34.855 56.1844 34.855C55.9207 34.855 55.7831 34.913 55.7602 35.0988L55.6512 35.9638C55.6283 36.1438 55.7487 36.2192 56.0411 36.2192C56.3106 36.2192 56.4482 36.1612 56.4654 35.987L56.4826 35.8593H57.3254L57.3082 36.0509C57.268 36.5734 56.8724 36.8926 55.9838 36.8926C55.0492 36.8926 54.7052 36.5153 54.7625 36.0393L54.8887 35.0408C54.9575 34.5125 55.3473 34.1874 56.2188 34.1874C57.1476 34.1874 57.4687 34.5647 57.4343 34.9827Z" fill="white"/>
<path d="M58.4204 36.8405H57.5375L57.8585 34.2397H58.7358L58.4204 36.8405ZM58.7702 33.9436H57.8872L57.9789 33.2006H58.8562L58.7702 33.9436Z" fill="white"/>
<path d="M59.7907 35.7374L59.7621 36.016C59.7392 36.1844 59.8596 36.2657 60.1577 36.2657C60.4157 36.2657 60.5476 36.1902 60.5705 36.0625L60.5877 35.9638H61.4018L61.3846 36.0741C61.3101 36.5908 61.0005 36.8926 60.1175 36.8926C59.1887 36.8926 58.8447 36.5153 58.9021 36.0393L59.0282 35.0408C59.097 34.5125 59.4811 34.1874 60.3469 34.1874C61.2126 34.1874 61.5968 34.5531 61.5394 35.0408L61.4592 35.7374H59.7907ZM59.8595 35.1917H60.6737L60.6909 35.093C60.7196 34.9014 60.5877 34.8144 60.301 34.8144C60.043 34.8144 59.8997 34.8898 59.8767 35.0582L59.8595 35.1917Z" fill="white"/>
<path d="M63.7639 34.1874C64.3717 34.1874 64.6297 34.5763 64.5838 34.9595L64.3602 36.8404H63.4773L63.678 35.1685C63.7009 34.9943 63.655 34.9305 63.42 34.9305C63.1849 34.9305 62.8982 35.0582 62.7663 35.1453L62.5599 36.8404H61.6827L62.0038 34.2396H62.8237V34.4893C63.0301 34.3615 63.3225 34.1874 63.7639 34.1874Z" fill="white"/>
<path d="M66.5848 36.8404V36.585C66.3727 36.7127 66.1147 36.8927 65.6388 36.8927C65.0368 36.8927 64.7673 36.5385 64.8247 36.0625L64.9508 35.0234C65.0139 34.5067 65.2891 34.1932 65.8796 34.1932C66.3268 34.1932 66.6479 34.3616 66.8084 34.4835L66.9632 33.2063H67.8462L67.4047 36.8462H66.5791L66.5848 36.8404ZM65.7248 35.9116C65.7076 36.0567 65.742 36.1438 65.9828 36.1438C66.2064 36.1438 66.5046 36.0103 66.6422 35.929L66.7396 35.1395C66.6135 35.064 66.3498 34.9247 66.1147 34.9247C65.8796 34.9247 65.8395 35.0292 65.8223 35.1569L65.7306 35.9058L65.7248 35.9116Z" fill="white"/>
<path d="M68.0067 35.0408C68.0755 34.5125 68.517 34.1874 69.3999 34.1874C70.3402 34.1874 70.7473 34.5531 70.6842 35.0408L70.5581 36.0393C70.4893 36.5675 70.0536 36.8926 69.1706 36.8926C68.2246 36.8926 67.8233 36.5153 67.8806 36.0393L68.0067 35.0408ZM69.7955 35.1046C69.8185 34.9305 69.6407 34.855 69.3598 34.855C69.0903 34.855 68.9069 34.9188 68.8839 35.1046L68.7807 35.9348C68.7521 36.167 68.9241 36.2192 69.2165 36.2192C69.4859 36.2192 69.6751 36.1554 69.6923 35.9638L69.7955 35.1046Z" fill="white"/>
<path d="M73.9636 16.1387L73.9822 16.1569V16.1447L73.9636 16.1387Z" fill="#ED7225"/>
<path d="M73.5623 20.5333L73.1381 21.3345L73.3903 31.813H73.4649L82.1051 23.018L73.5623 20.5333Z" fill="#BBCE00"/>
<path d="M81.83 28.179L82.948 28.1267L82.1051 23.018L73.4649 31.813L81.8587 31.8131L81.8529 31.7202L81.83 28.179Z" fill="#86BC25"/>
<path d="M75.2078 9.27106L80.4252 3.00714L73.6884 0L73.8088 0.905627L72.7195 2.31051L71.7047 2.7343L69.675 8.40027L69.8471 13.2883L75.2078 9.27106Z" fill="#E63346"/>
<path d="M75.2078 9.27106L81.5834 21.9789L82.0249 22.8613L82.1051 23.018L82.1625 22.9774L82.5982 22.6407L88.9623 17.8978L75.2078 9.27106Z" fill="#FABA20"/>
<path d="M88.9623 17.8978L82.5982 22.6407L82.1625 22.9774L82.1051 23.018L82.3058 23.0934L86.4797 24.626L90 19.3781L88.9623 17.8978Z" fill="#86BC25"/>
<path d="M87.873 4.08691H86.4855L85.7918 3.45994L85.7172 2.20599L84.7253 0.731445L80.4252 3.00714L88.0679 11.7325L89.1343 6.54255L87.873 4.08691Z" fill="#00A7E5"/>
<path d="M73.5623 20.5333L82.1051 23.018L75.2078 9.27106L69.8471 13.2883L71.5901 14.1592L72.3011 14.5133L72.6737 15.8717L73.9636 16.1387L73.9809 16.1446V16.1562L73.5623 20.5333Z" fill="#ED7225"/>
<path d="M88.6871 15.9414L87.7698 14.8442L87.5977 12.1331L88.0679 11.7325L80.4252 3.00714L75.2078 9.27106L88.9623 17.8978L88.6871 15.9414Z" fill="#B53672"/>
<path d="M82.3058 23.0934L82.1051 23.018L82.948 28.1267L83.1084 28.1209L84.1577 28.0745L86.4797 24.626L82.3058 23.0934Z" fill="#13A438"/>
<path d="M29.719 31.7086H25.0692L22.9307 30.4895H28.8246L29.719 31.7086Z" fill="#FABA20"/>
<path d="M25.0692 31.7086H12.6737L13.9809 30.4895H22.9307L25.0692 31.7086Z" fill="#0084C7"/>
<path d="M12.7024 31.7086H1.02344V30.4895H13.9809L12.7024 31.7086Z" fill="#891E81"/>
<path d="M36.3297 31.7086H29.719L28.8246 30.4895H38.646L36.3297 31.7086Z" fill="#E63346"/>
<path d="M64.7215 31.7086H60.6335L61.3216 30.4895H67.3072L64.7215 31.7086Z" fill="#E63346"/>
<path d="M71.0454 31.7086H64.7215L67.3072 30.4895H71.0511L71.0454 31.7086Z" fill="#BBCE00"/>
<path d="M60.6335 31.7086H48.3068L55.055 30.4895H61.3216L60.6335 31.7086Z" fill="#ED7225"/>
<path d="M48.3068 31.7086H42.5504L38.646 30.4895H55.055L48.3068 31.7086Z" fill="#00A7E5"/>
<path d="M42.5504 31.7086H36.3297L38.646 30.4895L42.5504 31.7086Z" fill="#FABA20"/>
<path d="M9.84133 24.7654V25.9207C9.84133 27.3836 8.76345 28.8756 5.38075 28.8756C1.99805 28.8756 0.914429 27.3836 0.914429 25.9207V20.4637C0.914429 19.0008 1.99231 17.5088 5.38075 17.5088C8.76919 17.5088 9.84133 19.0008 9.84133 20.4637V21.4216H7.09503V20.9339C7.09503 20.1038 6.42996 19.8135 5.40941 19.8135C4.38887 19.8135 3.72379 20.1038 3.72379 20.9687V25.4214C3.72379 26.2806 4.3774 26.5767 5.40941 26.5767C6.44142 26.5767 7.09503 26.2864 7.09503 25.4562V24.7712H9.84133V24.7654Z" fill="white"/>
<path d="M10.5867 20.4579C10.5867 18.995 11.7964 17.503 15.2078 17.503C18.6192 17.503 19.8633 18.995 19.8633 20.4579V25.9149C19.8633 27.3779 18.6421 28.8698 15.2078 28.8698C11.7735 28.8698 10.5867 27.3779 10.5867 25.9149V20.4579ZM17.0482 20.963C17.0482 20.1038 16.2685 19.8078 15.2078 19.8078C14.1471 19.8078 13.396 20.098 13.396 20.963V25.4157C13.396 26.2749 14.1586 26.5709 15.2078 26.5709C16.257 26.5709 17.0482 26.2807 17.0482 25.4157V20.963ZM18.0802 14.4495L16.1423 16.9051H13.8089L15.0186 14.4495H18.086H18.0802Z" fill="white"/>
<path d="M21.0215 28.713V17.6655H25.9006C28.9966 17.6655 30.0802 19.0936 30.0802 20.5566V21.8395C30.0802 22.8497 29.57 23.8366 28.2398 24.359L30.2236 28.713H27.1734L25.3961 24.7306H23.8366V28.713H21.0215ZM23.8308 19.9702V22.4259H25.8031C26.6459 22.4259 27.2824 22.1472 27.2824 21.4332V20.9455C27.2824 20.2315 26.6459 19.9702 25.8031 19.9702H23.8308Z" fill="white"/>
<path d="M40.3545 25.7523C40.3545 27.2442 39.1792 28.7072 35.7965 28.7072H31.0779V17.6597H35.7965C39.1792 17.6597 40.3545 19.1226 40.3545 20.6146V25.7523ZM37.5394 25.253V21.1254C37.5394 20.2662 36.7941 19.9702 35.7907 19.9702H33.8872V26.4024H35.7907C36.7941 26.4024 37.5394 26.1122 37.5394 25.2472V25.253Z" fill="white"/>
<path d="M41.3235 20.4578C41.3235 18.9949 42.5332 17.5029 45.9446 17.5029C49.356 17.5029 50.6001 18.9949 50.6001 20.4578V25.9148C50.6001 27.3777 49.3789 28.8697 45.9446 28.8697C42.5103 28.8697 41.3235 27.3777 41.3235 25.9148V20.4578ZM47.785 20.9629C47.785 20.1037 47.0053 19.8076 45.9446 19.8076C44.8839 19.8076 44.1328 20.0979 44.1328 20.9629V25.4156C44.1328 26.2747 44.8954 26.5708 45.9446 26.5708C46.9938 26.5708 47.785 26.2805 47.785 25.4156V20.9629Z" fill="white"/>
<path d="M51.7583 17.6655H56.1558C59.2519 17.6655 60.3355 18.8208 60.3355 20.2024V21.0326C60.3355 21.8453 59.9399 22.5246 59.0627 22.9019C60.2839 23.2734 60.8916 24.0397 60.8916 24.9512V26.0368C60.8916 27.4649 59.8137 28.7188 56.712 28.7188H51.7583V17.6655ZM54.5677 22.0834H56.0755C56.9012 22.0834 57.5548 21.8047 57.5548 21.0732V20.6843C57.5548 19.9702 56.9012 19.8541 56.0755 19.8541H54.5677V22.0834ZM54.5677 24.1617V26.5186H56.6317C57.4573 26.5186 58.1109 26.2574 58.1109 25.5259V25.0731C58.1109 24.4577 57.4573 24.1617 56.6317 24.1617H54.5677Z" fill="white"/>
<path d="M67.3244 26.7275H63.8958L63.3053 28.7072H60.5704L64.1137 17.6597H67.2728L70.7701 28.7072H67.8977L67.3244 26.7275ZM66.688 24.5506L65.6101 20.8816L64.5322 24.5506H66.6937H66.688Z" fill="white"/>
</svg>
